<?xml version="1.0" encoding="UTF-8"?>
<!DOCTYPE svg PUBLIC "-//W3C//DTD SVG 1.1//EN" "http://www.w3.org/Graphics/SVG/1.1/DTD/svg11.dtd">
<!-- Creator: CorelDRAW X8 -->
<svg xmlns="http://www.w3.org/2000/svg" xml:space="preserve" width="9.1151mm" height="9.1151mm" version="1.1" style="shape-rendering:geometricPrecision; text-rendering:geometricPrecision; image-rendering:optimizeQuality; fill-rule:evenodd; clip-rule:evenodd"
viewBox="0 0 5 5"
 xmlns:xlink="http://www.w3.org/1999/xlink">
 <defs>
  <style type="text/css">
   <![CDATA[
    .fil0 {fill:#663333}
   ]]>
  </style>
 </defs>
 <g id="Слой_x0020_1">
  <metadata id="CorelCorpID_0Corel-Layer"/>
  <path class="fil0" d="M3 4l0 -1 -1 1c0,0 0,0 0,0 -1,0 -1,0 -1,0 0,0 0,0 0,-1l1 0 -1 -1c0,0 0,-1 0,-1 0,0 0,0 1,0 0,0 0,0 0,0l1 1 0 -1c1,0 1,0 1,0 0,0 0,0 0,0 0,0 0,1 0,1l-1 1 1 0c0,1 0,1 0,1 0,0 0,0 0,0 0,0 0,0 -1,0zm-1 -3l0 0c0,0 0,-1 0,-1 0,0 0,0 0,0 0,0 1,0 1,0 0,0 0,0 0,0 0,0 0,0 0,0 0,0 -1,0 -1,1zm0 0c-1,0 -2,1 -2,2 0,0 0,0 0,0 0,0 0,0 0,0 0,-1 0,-1 1,-2 0,0 0,0 1,-1 0,0 0,0 0,1 0,0 0,0 0,0zm-2 2c0,1 1,2 3,2 1,0 2,-1 2,-2 0,-2 -1,-3 -2,-3 -2,0 -3,1 -3,3z"/>
 </g>
</svg>
