<?xml version="1.0" encoding="UTF-8"?>
<!DOCTYPE svg PUBLIC "-//W3C//DTD SVG 1.1//EN" "http://www.w3.org/Graphics/SVG/1.1/DTD/svg11.dtd">
<!-- Creator: CorelDRAW X7 -->
<svg xmlns="http://www.w3.org/2000/svg" xml:space="preserve" width="369px" height="312px" version="1.1" style="shape-rendering:geometricPrecision; text-rendering:geometricPrecision; image-rendering:optimizeQuality; fill-rule:evenodd; clip-rule:evenodd"
viewBox="0 0 24 21"
 xmlns:xlink="http://www.w3.org/1999/xlink">
 <defs>
  <style type="text/css">
   <![CDATA[
    .fil0 {fill:red;fill-rule:nonzero}
   ]]>
  </style>
 </defs>
 <g id="Слой_x0020_1">
  <metadata id="CorelCorpID_0Corel-Layer"/>
  <g id="_22288051504">
   <path class="fil0" d="M15 18l-2 0c-1,0 -1,0 -1,0 0,0 0,1 1,1l2 0c0,0 0,0 0,0 0,0 0,1 0,1l-5 0c-1,0 -2,-1 -2,-1l-2 -2c0,0 -1,-1 -2,-1l0 -3 2 0c1,0 1,1 2,1l3 3c0,0 0,0 0,0 -1,1 -1,1 -1,0l-2 -1c0,-1 -1,-1 -1,0 0,0 0,0 0,0l2 2c1,0 1,0 1,0 1,0 1,0 1,0 1,-1 1,-1 0,-2l-2 -2c-1,-1 -2,-2 -3,-2l-2 0c0,0 -1,0 -1,0l-3 0c0,0 0,0 0,0l0 4c0,0 0,0 0,0 1,0 1,0 1,0l0 -3 2 0c0,0 0,0 0,0l0 4c0,0 0,0 0,0l-1 0c0,0 0,0 0,0 0,1 0,1 0,1l1 0c0,0 1,-1 1,-1 1,0 1,0 2,1l1 1c1,1 2,2 3,2l5 0c0,0 1,-1 1,-2 0,-1 -1,-1 -1,-1z"/>
   <path class="fil0" d="M24 4c0,0 -1,1 -1,1l0 3 -1 0c0,0 -1,0 -1,0l0 -4c0,0 1,0 1,0l0 0c0,0 1,0 1,-1 0,0 -1,0 -1,0l0 0c-1,0 -1,0 -1,1 -1,0 -2,-1 -2,-1l-2 -2c0,-1 -1,-1 -2,-1l-5 0c-1,0 -2,1 -2,1 0,1 1,2 2,2l2 0c0,0 0,0 0,-1 0,0 0,0 0,0l-2 0c0,0 -1,0 -1,-1 0,0 1,0 1,0l5 0c1,0 1,0 2,1l1 1c1,1 1,2 2,2l0 2 -1 0c-1,0 -2,0 -3,-1l-2 -2c0,0 0,-1 0,-1 0,0 0,0 1,0l2 2c0,0 0,0 0,0 0,0 0,0 0,-1l-2 -1c0,-1 -1,-1 -2,0 0,0 0,1 0,2l3 2c1,1 2,1 3,1l2 0c0,1 0,1 1,1l2 0c0,0 0,0 0,0l0 -4c0,0 0,-1 0,-1z"/>
   <path class="fil0" d="M15 16c0,0 -1,0 -1,1 1,0 1,0 1,0 0,0 0,0 0,0 0,0 0,0 0,0 0,0 0,-1 0,-1 0,0 0,0 0,0z"/>
   <path class="fil0" d="M16 15c0,0 0,1 0,1 0,0 0,0 0,0 0,0 0,0 0,0 0,0 0,0 0,0 1,0 1,0 1,-1 -1,0 -1,0 -1,0z"/>
   <path class="fil0" d="M13 16c0,0 0,1 0,1 0,0 0,0 1,0 0,0 0,0 0,0 0,0 0,0 0,0 0,0 0,0 0,0 0,-1 0,-1 -1,-1z"/>
   <path class="fil0" d="M17 15l0 0 0 0 0 0zm1 -1c-1,0 -1,0 -1,0 0,0 0,0 0,0 0,1 0,1 0,1 0,0 0,0 0,0 0,0 0,0 1,0 0,0 0,0 0,-1z"/>
   <path class="fil0" d="M19 12c0,0 -1,0 -1,0 0,0 0,1 0,1 1,0 1,0 1,0 0,0 0,0 0,-1l0 0c0,0 0,0 0,0z"/>
   <path class="fil0" d="M19 9c0,0 0,0 0,0 0,0 -1,0 -1,0 0,1 1,1 1,1 0,0 0,0 0,0 0,0 0,0 0,-1 0,0 0,0 0,0z"/>
   <path class="fil0" d="M19 10c0,0 -1,1 -1,1 0,0 0,0 0,0 0,0 1,0 1,0 0,0 0,0 0,0 0,0 0,0 0,0 0,0 0,-1 0,-1z"/>
   <path class="fil0" d="M18 13c0,0 0,0 0,0l0 0c0,1 0,1 0,1 0,0 0,0 0,0 0,0 0,0 0,0l0 0 0 0c1,0 1,-1 0,-1z"/>
   <path class="fil0" d="M9 5c0,0 0,0 0,0 1,0 1,-1 1,-1 0,0 -1,0 -1,0l0 0c0,0 0,0 0,0 0,1 0,1 0,1z"/>
   <path class="fil0" d="M11 4c0,0 0,0 0,0 0,0 0,0 0,0 0,-1 0,-1 -1,-1 0,0 0,0 0,0 0,0 0,1 0,1 0,0 0,0 1,0z"/>
   <path class="fil0" d="M8 6c0,0 0,-1 0,-1l0 0c1,0 1,0 0,0 0,0 0,0 0,0l0 0 0 0c0,0 -1,0 0,0 0,0 0,1 0,1z"/>
   <path class="fil0" d="M6 9c0,0 0,0 0,0 0,0 0,0 0,0 0,-1 0,-1 0,-1 0,0 -1,0 -1,0 0,0 0,0 0,0 0,1 0,1 1,1z"/>
   <path class="fil0" d="M6 10c0,0 0,0 0,0 0,0 0,0 0,0 0,0 0,0 0,0 -1,0 -1,0 -1,0 0,0 0,0 0,0 0,0 0,0 1,0z"/>
   <path class="fil0" d="M6 8c0,0 0,0 0,0 0,0 1,0 1,-1 0,0 0,0 -1,0 0,0 0,0 0,0l0 0c0,0 0,1 0,1z"/>
   <path class="fil0" d="M7 6c0,1 0,1 0,1 0,0 0,-1 0,-1 1,0 1,0 0,0 0,0 0,0 0,0 0,0 0,0 0,0 -1,0 0,0 0,0z"/>
   <path class="fil0" d="M6 11c-1,0 -1,0 -1,1l0 0c0,0 0,0 1,0 0,0 0,0 0,0 0,0 0,0 0,-1 0,0 0,0 0,0z"/>
   <path class="fil0" d="M11 9c0,0 1,0 1,0 0,1 0,1 0,1 0,0 1,0 1,-1 0,0 0,0 1,0 1,0 1,0 1,1 0,0 0,1 0,1l-3 2 -2 -2c0,0 -1,-1 -1,-1 0,-1 1,-1 2,-1zm-2 3c0,0 0,0 0,0l3 2c0,0 0,0 0,0 0,0 0,0 1,0l2 -2c0,0 0,0 0,0 1,-1 1,-1 1,-2 0,-1 -1,-2 -2,-2 -1,0 -1,0 -2,0 0,0 -1,0 -1,0 -2,0 -3,1 -3,2 0,1 1,1 1,2z"/>
   <path class="fil0" d="M0 17c1,0 1,0 1,0 0,1 0,1 -1,1 0,0 0,0 0,-1 0,0 0,0 0,0z"/>
   <path class="fil0" d="M24 3c0,0 0,0 0,0 0,1 0,1 0,1 0,0 -1,0 -1,-1 0,0 1,0 1,0z"/>
  </g>
 </g>
</svg>
