<?xml version="1.0" encoding="UTF-8"?>
<!DOCTYPE svg PUBLIC "-//W3C//DTD SVG 1.1//EN" "http://www.w3.org/Graphics/SVG/1.1/DTD/svg11.dtd">
<!-- Creator: CorelDRAW X7 -->
<svg xmlns="http://www.w3.org/2000/svg" xml:space="preserve" width="238px" height="329px" version="1.1" style="shape-rendering:geometricPrecision; text-rendering:geometricPrecision; image-rendering:optimizeQuality; fill-rule:evenodd; clip-rule:evenodd"
viewBox="0 0 10 14"
 xmlns:xlink="http://www.w3.org/1999/xlink">
 <defs>
  <style type="text/css">
   <![CDATA[
    .fil0 {fill:red;fill-rule:nonzero}
   ]]>
  </style>
 </defs>
 <g id="Слой_x0020_1">
  <metadata id="CorelCorpID_0Corel-Layer"/>
  <g id="_22294732928">
   <path class="fil0" d="M6 14c0,0 0,0 0,0l-4 -2c0,0 0,0 0,0 0,0 0,0 0,0l4 2 0 -2c0,-1 0,-1 1,-1l1 0c0,0 1,-1 1,-1l0 -2c0,0 0,0 0,0 0,0 0,0 0,0 0,0 0,0 0,0l1 0c0,0 0,0 0,0 0,0 0,0 0,0 0,0 0,0 0,0l-1 -2c0,0 0,0 0,0l0 -1c0,-3 -2,-4 -4,-4 -3,0 -4,1 -4,4l0 1c0,0 0,1 0,2 0,0 0,0 0,0l0 3c0,0 0,0 0,0 0,0 0,0 0,0l0 -3c-1,-1 -1,-1 -1,-2l0 -1c0,-3 2,-5 5,-5 2,0 4,2 4,5l0 1 1 1c0,1 0,1 0,1l0 0c0,0 0,0 0,0 0,0 0,1 0,1 0,0 0,0 0,0l-1 0 0 1c0,1 0,1 -1,1l-1 0c0,0 0,0 0,1l0 2c0,0 0,0 0,0 -1,0 -1,0 -1,0z"/>
   <path class="fil0" d="M4 7c0,0 0,0 0,0 0,0 0,0 0,0 0,0 0,0 0,0l0 0c0,1 0,1 0,1l1 0c0,0 0,0 0,-1l0 0c0,0 0,0 0,0 0,0 1,0 1,0 0,0 0,0 0,0l0 0c0,0 0,0 0,0l1 -1c0,0 0,0 0,0l0 0c0,0 0,0 0,0 0,0 0,0 0,-1 0,0 0,0 0,0l0 0c0,0 1,0 1,0l0 -1c0,0 -1,0 -1,0l0 0c0,0 0,0 0,0 0,0 0,0 0,0 0,0 0,0 0,-1l0 0c0,0 0,0 0,0l-1 -1c0,0 0,0 0,1l0 0c0,0 0,0 0,0 0,0 -1,0 -1,0 0,0 0,0 0,-1l0 0c0,0 0,0 0,0l-1 0c0,0 0,0 0,0l0 0c0,1 0,1 0,1 0,0 0,0 0,0 0,0 -1,0 -1,0l0 0c0,-1 0,-1 0,-1l-1 1c0,0 0,0 0,0l1 0c0,1 0,1 0,1 0,0 0,0 0,0 0,0 -1,0 -1,0l0 0c0,0 0,0 0,0l0 1c0,0 0,0 0,0l0 0c0,0 1,0 1,0 0,1 0,1 0,1 0,0 0,0 0,0l-1 0c0,0 0,0 0,0l1 1c0,0 0,0 0,0l0 0c0,0 0,0 1,0zm1 1l-1 0c0,0 0,0 0,-1l0 0c0,0 0,0 0,0l-1 0c0,1 0,1 0,0l-1 0c0,0 0,-1 0,-1l0 0c0,0 0,0 0,0l0 0c0,0 -1,-1 -1,-1l0 -1c0,0 1,0 1,0l0 0c0,0 0,0 0,0l0 -1c0,0 0,0 0,0l1 -1c0,0 0,0 0,0l1 0c0,0 0,0 0,0l0 0c0,0 0,-1 0,-1l1 0c0,0 1,1 1,1l0 0c0,0 0,0 0,0l0 0c0,0 1,0 1,0l0 1c1,0 1,0 0,0l0 1c0,0 0,0 0,0l0 0 0 0c1,0 1,0 1,0l0 1c0,0 0,1 -1,1l0 0c0,0 0,0 0,0l0 0c1,0 1,1 0,1l0 0c0,1 -1,1 -1,0l0 0c0,0 0,0 0,0l0 0c0,1 -1,1 -1,1z"/>
   <path class="fil0" d="M5 4c-1,0 -1,0 -1,1 0,0 0,1 1,1 0,0 1,-1 1,-1 0,-1 -1,-1 -1,-1zm0 2c-1,0 -2,0 -2,-1 0,-1 1,-2 2,-2 0,0 1,1 1,2 0,1 -1,1 -1,1z"/>
   <path class="fil0" d="M1 11c0,0 0,1 0,1 0,0 0,0 0,0 0,0 0,0 0,0 0,0 0,-1 0,-1z"/>
  </g>
 </g>
</svg>
