<?xml version="1.0" encoding="UTF-8"?>
<!DOCTYPE svg PUBLIC "-//W3C//DTD SVG 1.1//EN" "http://www.w3.org/Graphics/SVG/1.1/DTD/svg11.dtd">
<!-- Creator: CorelDRAW X7 -->
<svg xmlns="http://www.w3.org/2000/svg" xml:space="preserve" width="115px" height="117px" version="1.1" style="shape-rendering:geometricPrecision; text-rendering:geometricPrecision; image-rendering:optimizeQuality; fill-rule:evenodd; clip-rule:evenodd"
viewBox="0 0 46 46"
 xmlns:xlink="http://www.w3.org/1999/xlink">
 <defs>
  <style type="text/css">
   <![CDATA[
    .fil0 {fill:white;fill-rule:nonzero}
   ]]>
  </style>
 </defs>
 <g id="Слой_x0020_1">
  <metadata id="CorelCorpID_0Corel-Layer"/>
  <path class="fil0" d="M37 0l-28 0c-5,0 -9,4 -9,9l0 28c0,5 4,9 9,9l28 0c5,0 9,-4 9,-9l0 -28c0,-5 -4,-9 -9,-9zm3 5l1 0 0 8 -8 0 0 -8 7 0zm-17 10c6,0 8,6 8,8 0,4 -4,8 -8,8 -4,0 -8,-4 -8,-8 0,-2 2,-8 8,-8zm18 22c0,2 -2,4 -5,4l-27 0c-2,0 -4,-2 -4,-4l0 -19 6 0c0,2 -1,4 -1,5 0,7 6,13 13,13 7,0 12,-6 12,-13 0,-1 0,-3 -1,-5l7 0 0 19 0 0z"/>
 </g>
</svg>
