<?xml version="1.0" standalone="no"?>
<!DOCTYPE svg PUBLIC "-//W3C//DTD SVG 1.1//EN" "http://www.w3.org/Graphics/SVG/1.1/DTD/svg11.dtd" >
<svg>
<metadata>
Created by FontForge 20120731 at Sun Jul  2 08:34:01 2017
 By www
Copyright (c) 2003, 2006 Parachute?, www.parachute.gr.  All rights reserved.
</metadata>
<defs>
<font id="PFPlayskoolPro-3D" horiz-adv-x="392" >
  <font-face 
    font-family="PF Playskool Pro 3D"
    font-weight="400"
    font-stretch="normal"
    units-per-em="1000"
    panose-1="2 0 5 6 0 0 0 2 0 3"
    ascent="750"
    descent="-250"
    x-height="325"
    cap-height="485"
    bbox="-265.722 -265 920 769"
    underline-thickness="20"
    underline-position="-123"
    unicode-range="U+0020-2122"
  />
<missing-glyph horiz-adv-x="386" 
d="M8 585l358 -26l-19 -559l-307 4zM263 82l-60 161l-89 -161h149zM282 478l-168 35l84 -185zM88 183l77 110l-90 123zM289 160l20 276l-76 -143z" />
    <glyph glyph-name=".notdef" horiz-adv-x="386" 
d="M8 585l358 -26l-19 -559l-307 4zM263 82l-60 161l-89 -161h149zM282 478l-168 35l84 -185zM88 183l77 110l-90 123zM289 160l20 276l-76 -143z" />
    <glyph glyph-name=".null" horiz-adv-x="0" 
 />
    <glyph glyph-name="nonmarkingreturn" horiz-adv-x="220" 
 />
    <glyph glyph-name="space" unicode=" " horiz-adv-x="220" 
 />
    <glyph glyph-name="space" unicode="&#xa0;" horiz-adv-x="220" 
 />
    <glyph glyph-name="dollar" unicode="$" horiz-adv-x="463" 
d="M408 304q73 -48 72 -136q0 -20 -7.5 -40t-20.5 -38t-30 -32t-36 -22q-21 -8 -32.5 -10.5t-17.5 -2.5l6 -72q0 -2 -10 -11t-42 -11q-26 -2 -51 1t-35 10q-3 2 -15 22t-20 68q-43 2 -77 8t-48 11q-8 3 -13 12q-7 14 -2 29.5t16 28.5t25 20.5t25 6.5q8 -3 21.5 -7.5
t29.5 -8.5t33 -5.5t34 1.5q61 12 59 66q0 19 -21.5 36t-50.5 32t-57.5 29t-43.5 26q-11 10 -19 25.5t-12 33.5t-2.5 37t9.5 35q22 43 83 57l2 55q0 6 3 6l58 3l63 -15q5 -3 5 -5l11 -40q6 -1 25 -6t42 -11.5t44.5 -13t33.5 -10.5q5 -2 4 -8q-2 -7 -9.5 -22t-17.5 -29
q-2 -2 -4.5 -4t-4.5 -1t-13 4.5t-26 6.5t-32 4.5t-32 -0.5q-14 -2 -22.5 -8t-8.5 -18q0 -18 12 -25.5t27 -15.5l42.5 -20t47.5 -26zM416 411q8 14 15 27.5t8 18.5q-11 5 -37 12t-43 12q-8 -2 -15 -10.5t-13 -17.5t-10.5 -17t-7.5 -10q13 1 28.5 -0.5t30 -4t26.5 -5.5t18 -5z
M281 542l-57 16l9 -48q11 1 25.5 0.5t31.5 -3.5zM327 23l-68 11l4 -68l70 -8zM289 -62q17 0 26.5 4t13.5 7l-66 8q-20 -11 -28 -13q25 -6 54 -6zM384 45q17 8 32.5 21.5t27.5 30t19.5 35t7.5 36.5q2 86 -68 129q-21 13 -46.5 25.5t-43.5 20.5q-17 7 -30.5 19t-12.5 29
q1 11 8 19.5t20 13.5q-9 1 -25 2t-33.5 -0.5t-33.5 -5t-26 -11.5q-14 -12 -12 -23t12 -20.5t24.5 -17t25.5 -11.5q24 -9 54.5 -22.5t55.5 -34.5t39 -50.5t5 -70.5q-9 -45 -37 -73t-82 -43q40 -6 53 -9q9 -2 14 -2q5 1 18.5 2t33.5 11z" />
    <glyph glyph-name="percent" unicode="%" horiz-adv-x="508" 
d="M366 129q-3 14 -6.5 21t-8.5 12q-2 0 -7 -5t-8 -17q-4 -16 -3 -27t5 -21q3 -7 7.5 -11.5l7.5 -7.5q7 8 12 21.5t1 34.5zM306 69q9 -3 20.5 -3.5t19.5 2.5q-9 6 -17 20q-9 23 -2 53q6 21 17 26q-6 3 -15 4t-17 -2q-19 -7 -25 -22.5t-4 -31.5t9 -29.5t14 -16.5zM167 423
q-6 24 -13 29q-4 -1 -10.5 -8.5t-11.5 -22.5q-3 -10 -0.5 -23t13.5 -21q7 -6 11 -6q5 8 9.5 20t1.5 32zM112 362q14 -5 22.5 -2.5t14.5 4.5q-19 8 -25 26t-1 35q5 15 11.5 22.5t12.5 12.5q-7 4 -15.5 5.5t-17.5 -2.5q-13 -4 -20 -12.5t-9.5 -19t-1 -21.5t5.5 -20
q5 -12 11.5 -19t11.5 -9zM491 129q2 -28 -7 -59t-30 -46q-16 -12 -44.5 -19.5t-65.5 -2.5q-11 2 -25.5 5.5t-23.5 8.5q-24 13 -38 39q-2 -6 -4 -14.5t-4 -16.5t-3.5 -13.5l-1.5 -5.5q-2 -2 -9 -6.5t-27 -6.5q-21 -3 -38 -0.5t-20 4.5q-6 2 -13 5t-13 6l-14 6q-2 2 -2 5
l100 278q-11 -4 -32 -4q-20 0 -42.5 3t-42.5 13.5t-35 29t-20 50.5q-10 70 34 112q14 13 28.5 16.5t32.5 5.5q9 1 22 1.5t27 0t27 -3.5t23 -9q12 -10 22 -24t13 -29l25 70q1 3 6 5l51 -3l32 -11q2 -1 4 -3t1 -4l-79 -288q5 2 11 3t17 2q15 3 43 2.5t52 -9.5q58 -24 63 -93z
M176 302q30 0 35 5l50 138q-4 17 -13.5 33t-23.5 26q-11 8 -28 9.5t-34 1.5q26 -11 42 -37q25 -43 16 -96q-1 -10 -5.5 -22t-12 -23.5t-17.5 -20.5t-22 -14h13zM250 64q-15 40 -8 80t34 64q5 5 11 8.5t9 5.5l77 287l-42 4l-149 -510q2 -2 9.5 -2t16.5 1.5t17 3.5t10 5z
M449 31q10 8 16.5 20t10.5 25.5t5.5 27t0.5 23.5q-6 67 -57 86q-14 6 -28.5 7.5t-28.5 1.5q28 -11 42 -36q23 -42 16 -96q-2 -21 -17 -46t-41 -35q27 0 48 6.5t33 15.5z" />
    <glyph glyph-name="ampersand" unicode="&#x26;" horiz-adv-x="463" 
d="M220 383q-2 10 -9 24q-4 -5 -7.5 -10.5t-5.5 -13.5q0 -14 5 -24t10 -15q5 7 7.5 17.5t-0.5 21.5zM156 403q-8 -12 -9 -24.5t3 -24.5t11 -23.5t15 -21.5q8 5 16 11.5t15 14.5q-4 5 -12 17.5t-6 32.5q2 10 8 18q4 6 3 10q-3 5 -8 6t-16 -1q-13 -3 -20 -15zM241 131l-26 26
t-22 23q-3 -2 -6 -8.5t-3 -13.5q0 -10 4 -16t10 -9.5t12 -4.5t10 -1q8 0 13.5 2t7.5 2zM123 164q3 -29 23.5 -40.5t38.5 -11.5q14 0 28 6q-15 2 -27 11t-12 29q0 10 4.5 17.5t8.5 12.5q-7 8 -14 15.5t-13 15.5q-14 -10 -25.5 -22.5t-11.5 -32.5zM518 66l4.5 -4.5t0.5 -4.5
q-7 -11 -16 -20q-6 -6 -22 -10.5t-34.5 -6.5t-36.5 -2.5t-28 1.5q-24 5 -35.5 13t-25.5 19q-4 -2 -22.5 -11t-43.5 -14q-31 -6 -64.5 -6t-63 10.5t-52.5 32t-32 57.5q-13 48 5.5 88.5t66.5 69.5q-14 17 -23 36t-15 41q-7 25 -5 50t11.5 45.5t26 35.5t38.5 22q13 4 30.5 6.5
t36 2.5t36.5 -3t33 -10q17 -7 29.5 -19.5t21 -27.5t12.5 -31.5t4 -32.5q0 -6 -2 -19.5t-9.5 -31.5t-21 -37.5t-35.5 -37.5l81 -85q5 1 16 2.5t22.5 3t20.5 2.5t10 1q8 0 11.5 -5.5t3.5 -12.5q0 -13 -10 -23t-17 -16q9 -7 20.5 -16t24.5 -18.5t25.5 -18t22.5 -15.5zM358 120
q18 -18 40.5 -35t48.5 -28l57 9q-6 4 -8.5 5.5t-9 6t-22.5 16t-50 35.5zM437 182q-1 0 -19 -2.5t-36 -4.5q-2 -16 -7.5 -25t-17.5 -21l58 9q6 5 17 15.5t11 21.5q0 7 -6 7zM316 160q11 5 21 9t21 9l-81 85l-57 -9q14 -15 38.5 -40.5t57.5 -53.5zM285 495q-19 8 -38 10.5
t-36 2.5q6 -2 10.5 -4t9.5 -5q21 -13 36 -34.5t23 -48.5q24 -85 -71 -153l60 9q26 17 43.5 47.5t21.5 64t-9.5 64t-49.5 47.5zM257 33q21 5 37.5 12t23.5 12q-5 5 -10 9t-10 9q-23 -16 -44.5 -27t-40.5 -19q24 0 44 4zM502 44q10 7 13 15l-63 -11q0 -12 -11 -20q18 1 35.5 5
t25.5 11z" />
    <glyph glyph-name="quoteright" unicode="&#x2019;" horiz-adv-x="214" 
d="M148 551q18 -7 31 -16t13 -20l-75 -140l-46 -2q-5 0 -8 3l-31 36l30 125q2 8 13.5 9.5t17.5 2.5q14 2 32 3.5t23 -1.5zM110 381l72 133h-40q1 -2 0 -4t-2 -3q-2 -4 -11 -21t-20.5 -38t-21.5 -40.5t-14 -26.5h37zM145 542q-5 2 -15.5 1t-15.5 -2q8 -3 16 -7.5t11 -12.5h41
q-5 5 -16 11.5t-21 9.5z" />
    <glyph glyph-name="parenleft" unicode="(" horiz-adv-x="271" 
d="M190 318q-1 -30 3.5 -63.5t11.5 -66.5t15.5 -64t16 -55t12.5 -38.5t5 -15.5q3 -8 -4 -8l-76 7q-6 0 -12 8q-35 49 -56.5 88.5t-33.5 73t-16 63.5t-4 60q0 41 4 69t13 52.5t24 50.5t38 64l42 23q5 3 9 2l63 -14q4 -2 3 -6q0 -1 -8 -20.5t-18 -51.5t-19.5 -73t-12.5 -85z
M182 318q2 39 9.5 76.5t16.5 68t17.5 52.5t11.5 31l-57 13q-3 -7 -13 -36t-21 -68t-19.5 -83t-8.5 -81t9.5 -82.5t21.5 -86t21.5 -69t9.5 -31.5l63 -5q-4 13 -15 46.5t-22.5 76.5t-19 90.5t-4.5 87.5z" />
    <glyph glyph-name="parenright" unicode=")" horiz-adv-x="300" 
d="M257 456q28 -109 -11 -252q-7 -26 -17.5 -52.5t-22 -49.5t-22.5 -42t-19 -31q-1 -1 -13.5 -5.5t-28.5 -10t-31 -10t-22 -5.5q-7 -2 -6.5 2t2.5 7l11 33q7 22 17 53.5t18 66t14 69.5t6 63q0 42 -10 92t-22.5 92.5t-23.5 71.5t-12 31q-3 2 0.5 5t14.5 3q1 0 14 -1
t29.5 -2.5t32.5 -3t23 -3.5q7 -1 17.5 -8.5t21.5 -22.5t22 -37.5t18 -52.5zM237 206q19 69 22 130t-11 118q-7 30 -17 51.5t-20.5 35t-20 20t-14.5 7.5q-8 3 -27 4.5t-37 2.5q36 -20 63 -79.5t27 -159.5q0 -37 -7 -78t-19 -81t-28.5 -77t-36.5 -66q-4 -6 -8 -11.5t-8 -10.5
l20 6q17 5 29 9t14 8q8 12 18.5 30.5t21.5 41t21.5 48t17.5 51.5z" />
    <glyph glyph-name="asterisk" unicode="*" horiz-adv-x="311" 
d="M259 405q1 0 2.5 -2t-0.5 -5q-7 -11 -11.5 -18.5t-10.5 -14.5q-3 -5 -9 -5q-4 0 -12.5 -0.5t-25.5 0.5q2 -10 2 -16q0 -4 -4 -4h-46.5t-25 0.5t-11 1t-3.5 0.5q-6 0 -4 6l4 14l-26 2q-3 0 -6 3q-8 7 -12.5 15t-7.5 13q-1 1 -1.5 3t1.5 3q8 6 20 16t21 17q-13 3 -25 7
t-23 9q-5 3 -2 6q1 1 7 10.5t17 26.5q3 4 9 4h30q0 3 -0.5 6.5t0.5 7.5q0 4 3 4q23 0 41.5 -1.5t25.5 -3.5q3 -1 3 -4v-9t-1 -13q2 1 4 3t4 2t16 -1t29 -3q3 0 4 -2l2 -4l11 -24q1 -4 -1 -6l-29 -22zM231 370q5 5 9.5 12.5t6.5 12.5h-46q-8 -15 -20 -25q14 0 30.5 -1t19.5 1
zM183 360q-2 0 -5.5 0.5t-5.5 2.5q-5 4 -7.5 7t-5 6.5t-6 8t-9.5 12.5l6 -48q10 -1 18.5 -1.5t16.5 0.5zM150 504q-2 -8 -3 -20.5t-3 -23.5q6 5 12.5 9t11.5 9q1 7 1.5 14t0.5 10zM201 405h41l-35 18l-40 4zM236 458l-7 18l-35 4l9 -20zM200 451q-13 -8 -28 -15l37 -4l24 17
zM111 460q-2 6 -3 12.5t-2 14.5h-24zM86 373l18 -2l5 30z" />
    <glyph glyph-name="plus" unicode="+" horiz-adv-x="450" 
d="M425 278q2 -20 -6 -39.5t-10 -21.5q-3 -5 -10 -5l-105 7l-9 -99q0 -8 -7 -8l-54 2l-35 17l-2 2t-2 3l-7 90l-42 4l-48 20l-6 3t-2 6l8 39q1 4 5 4l78 7l-10 95q0 7 4 8q17 9 30 10q18 3 93 -4q2 0 13.5 -3.5t14.5 -17.5q1 -3 0.5 -8t-1.5 -13.5t-3 -22t-5 -35.5h24
l75 -16q2 -2 10 -7.5t9 -16.5zM401 224q2 8 8.5 23t4.5 29q-1 5 -3 9t-9 6l-58 13q2 -5 1.5 -14.5t-2 -19.5t-4 -18.5t-3.5 -10.5zM294 316l11 78q2 9 -7.5 11t-42.5 5q4 -3 4 -10l-9 -87zM276 129l7 92l-42 14l-4 -93zM138 241l38 -4v8q-7 0 -21.5 0.5t-31.5 2.5zM290 230
l52 -4l-15 6l-50 2zM226 127l24 -2l-19 7q-5 0 -9 -0.5t-7 -0.5z" />
    <glyph glyph-name="comma" unicode="," horiz-adv-x="186" 
d="M146 52q9 -10 11 -23t-5 -27q-3 -6 -9 -18.5t-13 -24.5t-12.5 -21.5t-6.5 -9.5q-19 -1 -35.5 1t-27 9.5t-13.5 21t6 36.5q-14 16 -15.5 28.5t0.5 17.5q10 30 47 30q6 0 16 -1t21 -3t21 -6t15 -10zM144 6q5 14 3 24.5t-6 15.5q-8 5 -20 8t-24 5q8 -10 11 -25t-9 -38
q-9 -18 -15.5 -33.5t-18.5 -22.5q3 -2 16 -2.5t27 -0.5q2 4 6.5 13.5t10 19.5l11 20t8.5 16z" />
    <glyph glyph-name="hyphen" unicode="-" 
d="M372 203q0 -3 -4 -3q-1 0 -13 -1.5t-32.5 -3t-48 -2t-60.5 0.5q-52 2 -72 6.5t-25 6.5l-73 34q-5 2 -5 6v32q0 5 3 5q84 4 129.5 6.5t67 3.5t25.5 1h5l97 -31q4 -1 4 -6zM215 203q42 -1 75.5 0t53.5 4l-77 24q-23 -1 -48.5 -1t-51.5 0.5t-50.5 2t-44.5 3.5l34 -15
q9 -3 17.5 -6t20.5 -5.5t29 -4t42 -2.5zM271 238l92 -27l-2 46l-90 27v-46z" />
    <glyph glyph-name="period" unicode="." horiz-adv-x="286" 
d="M206 82q32 -8 45 -22.5t13 -28.5q0 -6 -0.5 -15t-6.5 -18t-19.5 -17t-39.5 -11t-53.5 -3.5t-50 4.5t-37.5 18.5t-15 39.5q0 25 23 42t60 17q46 3 81 -6zM196 -21q24 3 36 10t17 15t5.5 15.5t0.5 11.5q0 8 -10.5 22t-40.5 22q-17 5 -27 5.5t-23 0.5q18 -9 29.5 -22
t11.5 -30t-12.5 -30.5t-30.5 -21.5q21 0 29.5 0.5t14.5 1.5z" />
    <glyph glyph-name="slash" unicode="/" horiz-adv-x="329" 
d="M314 551q2 -2 2 -4l-140 -645q-1 -4 -6 -4l-101 6l-61 25q-4 1 -1 10l224 639q0 3 4 3h31zM23 -67l50 -20l75 -6l-51 26h-74zM167 -91l139 637l-40 25l-164 -631z" />
    <glyph glyph-name="zero" unicode="0" horiz-adv-x="447" 
d="M286 312q-5 34 -13.5 52t-16.5 27q-1 -1 -9.5 -7.5t-18.5 -17.5t-18.5 -26.5t-10.5 -35.5q-2 -26 2.5 -47t12.5 -37t17.5 -27t16.5 -17q5 4 13.5 14t15.5 27t10.5 40.5t-1.5 54.5zM240 172q-9 7 -19 19t-18.5 29t-13 39t-1.5 49q1 13 7.5 26t14 24t15.5 19.5t14 13.5t3 9
t-11 6t-19.5 1t-23.5 -5q-13 -7 -23 -19.5t-16.5 -27.5t-10 -31t-3.5 -31q0 -66 28.5 -99.5t76.5 -21.5zM436 315q4 -57 -10 -108.5t-42 -94.5q-17 -26 -39 -40t-47.5 -20t-52.5 -5t-53 4q-36 4 -63.5 22t-47.5 44t-32 58t-16 65q-8 68 3.5 128t55.5 106q29 30 73 45
q3 1 25 4t51 3.5t60 -4t52 -18.5q12 -8 25.5 -25.5t25.5 -42t21 -55.5t11 -66zM376 116q57 83 49 199q-2 33 -10.5 62t-20 53t-24.5 41t-24 25q-20 14 -54.5 16.5t-66.5 2.5q38 -12 62.5 -36t38.5 -56q14 -29 19.5 -63t6.5 -69q0 -14 -1 -29.5t-3 -31.5q-4 -26 -11.5 -52.5
t-20 -50t-31.5 -42.5t-45 -29q42 -4 76.5 10t59.5 50z" />
    <glyph glyph-name="one" unicode="1" horiz-adv-x="407" 
d="M405 141q6 -20 0.5 -37.5t-7.5 -19.5q-5 -5 -19 -9t-30 -6q-9 -2 -38.5 -5t-62 -6.5t-59.5 -6t-32 -1.5l-98 15q-11 14 -15 25.5t-4 19.5q0 5 3 9t6 6q6 4 28 13t65 18l3 154q-5 -2 -17 -3t-20 -1l-42 15q-9 2 -19 8t-18 22q-2 6 1 9l134 108l91 19l64 -4q4 0 4 -7
l-34 -302q9 -1 27 -4t36.5 -7t33.5 -9.5t19 -12.5zM315 472l-60 4l-30 -305q11 2 24.5 2.5t27.5 0.5zM110 316q8 0 18.5 1t16.5 4v27q-20 -11 -33.5 -16.5t-24.5 -8.5q5 -2 10 -3.5t13 -3.5zM349 77q6 1 14 2.5t14 4.5l-59 12q-27 -2 -52 -3.5t-52 -4.5t-57.5 -7.5
t-67.5 -11.5l68 -11zM390 88q3 5 6 21.5t-2 27.5q-3 5 -25 11t-50 11q7 -11 4.5 -26.5t-4.5 -25.5z" />
    <glyph glyph-name="two" unicode="2" horiz-adv-x="450" 
d="M436 79q7 -6 7.5 -16t-1.5 -20t-6 -19t-7 -13q0 -4 -4 -4l-234 -15l-116 26q-3 1 -5.5 1.5t-4 3.5t-3 10.5t-2.5 22.5q2 32 18.5 73t48.5 74q16 16 37 35t40 40t31.5 44.5t12.5 49.5q0 17 -5 29t-10 20q-4 5 -19 5t-26 -8q-6 -6 -20.5 -15.5t-21.5 -11.5q-3 -1 -14 -1
t-24.5 1t-26 2t-18.5 2q-24 6 -30 34q-3 20 6.5 41t27.5 38.5t42 30t49 14.5q30 3 67.5 0.5t72.5 -14t63.5 -33t40.5 -55.5q4 -12 6 -32.5t-1.5 -45.5t-14 -52.5t-31.5 -53.5q-22 -29 -35.5 -46.5t-22 -29t-13 -17.5t-8.5 -12q-11 -12 -15.5 -30t-7.5 -23q23 0 35.5 0.5
t28.5 -0.5q5 0 21 -2.5t34.5 -7t35 -9.5t22.5 -11zM391 448q-6 19 -20 35.5t-33.5 28.5t-42.5 19.5t-47 9.5q71 -22 94 -108q6 -35 -5.5 -72.5t-28.5 -63.5l-10.5 -11.5t-25.5 -29t-32.5 -39t-31.5 -42.5t-22.5 -38.5t-5.5 -27.5q2 -1 8 -2t15 -1t20.5 1t28.5 2q0 1 1 7.5
t4 15.5t7 19t10 18q4 6 9 12t13.5 17t22 29t34.5 47q19 27 29 53t13 49t1.5 41.5t-5.5 30.5zM184 426q8 3 17.5 6.5t20.5 3.5l-18 6t-20 6q-19 0 -33.5 -4.5t-25.5 -11.5q-8 -5 -19 -16t-20 -14q20 -2 37 -2.5t20 -0.5q8 0 20.5 11.5t20.5 15.5zM191 0l211 15l-67 15
q-54 -3 -85.5 -5.5t-39.5 -2.5q-31 0 -54 -2t-40 -2zM425 18q5 14 9 31t-2 22q-8 6 -34 13.5t-52 13.5q3 -12 2.5 -29.5t-6.5 -31.5z" />
    <glyph glyph-name="three" unicode="3" horiz-adv-x="414" 
d="M395 295q0 -1 4.5 -11t7.5 -27.5t1.5 -41t-13.5 -51.5q-15 -34 -41 -58.5t-53.5 -40.5t-50.5 -25t-32 -12q-10 -3 -37 -1t-55.5 5.5t-51 7t-25.5 3.5l-23 60q49 10 86 24q50 19 74 38.5t30 31.5q17 35 6.5 56t-41.5 32q-13 5 -29 8.5t-36 5.5q-5 1 -5 3t2 5l52 113
q-42 5 -58.5 10t-17.5 5q-11 6 -18 15q-7 8 -11 20t0 29q3 3 8 3l256 -7l64 -15q3 -1 2.5 -3t-1.5 -3t-27 -35t-80 -102q10 -1 26.5 -4.5t34 -9t32 -13t20.5 -15.5zM324 485l-110 -137q17 0 33 -2.5t24 -5.5l105 132zM388 167q11 27 12.5 49.5t-1.5 39.5q-4 19 -11 36
q-5 4 -15 9t-22.5 9t-26.5 8t-27 7q26 -17 34 -39t8 -36q0 -34 -13.5 -62t-47.5 -62q-4 -4 -17 -14.5t-35.5 -23t-55.5 -24t-76 -17.5q32 -2 63.5 -8t56.5 0q8 2 31 10t50 23.5t53 39t40 55.5z" />
    <glyph glyph-name="four" unicode="4" horiz-adv-x="484" 
d="M478 275q3 -4 6 -14t4 -22t-1 -23.5t-9 -19.5q-3 -4 -18.5 -6t-36.5 -2t-43 1.5t-37 2.5q-1 -8 -3.5 -27.5t-5.5 -43.5t-6 -49t-5 -43q-3 -26 -4 -29q-1 -5 -18.5 -10t-51.5 -1q-22 2 -35.5 5.5t-23 10t-16.5 16t-16 24.5l31 173h-140q-8 0 -13.5 7.5t-5.5 15.5
q0 1 0.5 7.5t5 21.5t15 41t31 67t53 99t80.5 137l71 -4l31 -38q0 -1 -1.5 -11.5t-4.5 -25.5t-8 -31.5t-11 -30.5l69 -14q4 0 4 -3q1 -1 -2.5 -37t-8.5 -111q8 -1 20.5 -3t23.5 -4q8 -1 20.5 -4t25 -6.5t22 -7.5t12.5 -8zM358 452l-57 11l-15 -151q6 0 21.5 -0.5t35.5 -2.5z
M283 474q4 11 7.5 24.5t6.5 26.5t5 23.5t3 16.5l-56 7q0 -14 -9 -43.5t-20.5 -59.5t-21 -53t-9.5 -25l-42 -86q20 3 36 4t24 3l34 170zM283 598l-53 7q11 -24 19 -24l52 -5zM250 -2q20 0 31.5 1t19.5 1l-52 11q-6 -3 -12 -5t-15 -2q6 -3 14 -4.5t14 -1.5zM309 7l23 189
l-57 15q-1 -11 -4.5 -36.5t-6.5 -52.5q-2 -13 -3 -24t-2.5 -22.5t-3 -24t-2.5 -29.5zM339 203q26 -2 52 -3.5t46 -1.5h12.5t10.5 1l-61 15q-31 1 -49.5 2t-30 1.5t-17.5 0.5h-12zM475 207q4 6 4.5 15t-1 18.5t-3.5 18t-4 12.5q-3 3 -22 7.5t-42 7.5q10 -17 6.5 -34.5
t-6.5 -29.5z" />
    <glyph glyph-name="five" unicode="5" horiz-adv-x="422" 
d="M200 -13q-30 6 -54.5 15t-41.5 26q-14 13 -22.5 32t-13.5 48q8 2 20.5 7t17.5 8h79q12 -17 30 -25.5t38 -8.5q28 27 28 73q0 32 -14 55q-13 21 -36 32t-54 9l-9.5 -0.5t-25.5 -2.5t-37.5 -7.5t-43.5 -15.5l-34 192q-4 23 0 36.5t4 16.5q2 5 17.5 8.5t37.5 6.5
q24 3 51.5 6t51.5 5t40 3l16 1q32 -1 50.5 -3.5t28 -4.5t12 -4t3.5 -3q0 -6 -1.5 -13t-9.5 -21q-6 -6 -25.5 -12t-42 -11t-44 -9t-31.5 -6l7 -60q7 2 26 3t43.5 -1t51.5 -9.5t49 -22.5q23 -20 38 -54.5t18 -66.5l3 -27t0.5 -40t-7.5 -46t-21 -45q-21 -29 -41.5 -43
t-43 -19.5t-49 -4.5t-59.5 3zM384 59q13 19 19.5 42t8.5 44.5t1 38.5t-2 25q-5 29 -20 62t-37 51q-25 19 -55 24t-59 6q31 -2 51 -22t32 -46q8 -18 13.5 -36.5t8.5 -35t4.5 -29.5t1.5 -19q0 -25 -11 -63q-6 -18 -14.5 -36t-20 -32.5t-26.5 -24.5t-33 -12q20 1 38.5 2.5
t35.5 7.5t33 18.5t31 34.5zM177 420h-71q8 -34 13.5 -53.5t5.5 -25.5q6 3 11 5t11 3.5t15 3t23 3.5zM245 465q1 -1 -13.5 -5.5t-34 -10t-39 -11.5t-26.5 -10h49q15 3 33 6.5t35.5 7.5t33.5 8t26 8zM117 111q12 -13 24.5 -20t23.5 -11q12 -4 24 -6q31 -3 49 7q-9 1 -18.5 5.5
t-18 9.5t-14.5 9.5t-6 5.5h-64zM320 469q14 14 8 19q-3 3 -24.5 5.5t-47.5 5.5q0 -5 -0.5 -11t-2.5 -11z" />
    <glyph glyph-name="six" unicode="6" horiz-adv-x="404" 
d="M236 196q-2 31 -8 42.5t-15 17.5q-2 -3 -7 -9t-10 -14.5t-9 -20t-4 -24.5q0 -29 7 -49.5t12 -25.5l8 -8q8 11 18.5 32t7.5 59zM123 188q-2 -17 1 -32t8 -27t11 -20t10 -11q24 -13 49 0q0 2 -2.5 3t-4.5 4q-6 8 -12.5 31t-6.5 52t12 47.5t18 24.5q-6 5 -16.5 6t-21.5 1
q-2 -1 -8 -4.5t-13.5 -12t-14 -23.5t-9.5 -39zM390 482q11 -8 14.5 -16t-2.5 -22q-5 -11 -53 -23q-17 -5 -41.5 -15t-41.5 -18q-11 -9 -19.5 -19t-14.5 -15q23 -3 46.5 -9.5t40.5 -20.5q26 -26 36.5 -59t8.5 -81q-1 -30 -8.5 -55.5t-18 -45t-21.5 -33t-20 -20.5
q-20 -17 -37 -22.5t-34 -7.5q-10 -2 -22.5 -1.5t-23.5 2t-18.5 2.5l-7.5 1q-40 5 -70 33.5t-39 67.5q-38 162 41 290q10 15 25 32t34 31.5t42 25t50 13.5q9 2 26 2.5t27 0.5q6 0 20.5 -1.5t30.5 -4t30.5 -5.5t19.5 -7zM394 459q0 3 -4 8t-9 9q-6 5 -27.5 7.5t-49.5 5.5
q11 -12 7 -22zM356 184q2 45 -8.5 77t-36.5 55q-20 17 -49 23.5t-52 6.5q42 -17 64 -68q12 -31 13.5 -70.5t-6.5 -79.5q-3 -16 -10 -33.5t-17 -34t-23 -29.5t-29 -20h24t21 2t21 7.5t24 16.5q7 6 17.5 18.5t20.5 31.5t17.5 43t8.5 54zM308 459q-14 -9 -33 -13.5t-35 -12.5
q-48 -23 -70.5 -46t-27.5 -37q14 0 34 3.5t49 0.5q8 14 17.5 24t19.5 17q9 6 20 11.5t22.5 10t21 8t15.5 4.5q26 8 37.5 12t11.5 7z" />
    <glyph glyph-name="seven" unicode="7" horiz-adv-x="405" 
d="M334 268l56 -26q4 -2 4 -3.5t-1 -4.5l-22 -68q0 -4 -4 -4h-75l-57 -154q-3 -3 -15 -13.5t-26 -13.5q-7 -1 -17.5 1.5t-20 6t-17.5 7t-11 4.5q-6 2 -6 11q0 2 0.5 8t3.5 23.5t10 50.5t20 88h-11l-57 25q-3 1 -3 5l3 53q1 3 4 3l83 4q3 3 8 25t18 81q-65 5 -98.5 8t-47.5 3
q-20 3 -23.5 4t-3.5 3q0 3 -2 16.5t-2 47.5q0 4 8 4q18 3 39 5.5t38 5t28.5 3.5l11.5 1q1 0 16.5 0.5t40 1.5t55 1.5t61.5 0.5l78 -34q3 -2 1 -7zM322 471q-14 -42 -21.5 -67t-12 -39.5t-6.5 -22.5t-5.5 -16.5t-8.5 -21.5t-14 -37h72l64 174zM284 162l-49 30l-2 -4t-3.5 -9
t-7 -20.5t-13.5 -37.5l-38 -106q-2 -3 -7.5 -7.5t-11.5 -7.5q12 -3 22.5 -6t16.5 -2q11 2 21 9.5t12 9.5zM367 177l19 57l-58 25l-17 -59zM292 170h60l-49 22l-56 4zM119 203l37 -15q3 3 3.5 6t0.5 6z" />
    <glyph glyph-name="eight" unicode="8" horiz-adv-x="368" 
d="M356 226q8 -19 12.5 -47.5t-8.5 -76.5q-8 -28 -21 -48t-27.5 -33.5t-27.5 -21t-22 -10.5q-20 -6 -40 -7t-38.5 1.5t-35 7.5t-28.5 10q-10 4 -30.5 14.5t-34.5 29.5q-7 9 -13.5 22t-9.5 30t-1 39t12 49q0 1 5 12.5t15.5 27.5t28 34.5t42.5 34.5q-17 23 -32 53.5t-13 66.5
q2 34 11 57t23 37q22 23 48 29.5t42 8.5q14 1 32.5 0t37 -7t35 -18t27.5 -31q14 -26 15 -55.5t-8 -57.5q-9 -29 -23.5 -49t-29.5 -34q20 -15 34.5 -31.5t22.5 -36.5zM335 490q-7 12 -17 20.5t-22 13.5t-24 7.5t-22 3.5q6 -3 12 -6.5t11 -8.5q11 -11 20 -35.5t6 -66.5
q0 -2 -3.5 -19t-13.5 -39q-7 -15 -17.5 -29.5t-25.5 -25.5l53 -4q8 6 25 25.5t28 53.5q9 29 5 56.5t-15 53.5zM220 407q0 -6 1 -9.5t3 -5.5q3 5 3.5 11.5t0.5 14.5q-8 -5 -8 -11zM213 407q1 8 6.5 14t8.5 8q-6 23 -23 23q-11 0 -22 -14t-8 -43q0 -14 5.5 -28t13.5 -28
q14 17 18.5 23.5t7.5 17.5q-9 9 -7 27zM183 117q8 3 15.5 11t10.5 19q13 30 -4 56q-5 -5 -14 -15.5t-12 -21.5q-8 -17 -3.5 -30.5t7.5 -18.5zM171 170q3 11 14 23t17 18q-3 4 -8.5 10.5t-10.5 12.5q-6 7 -12 15q-11 -9 -20.5 -20.5t-15.5 -22.5q-8 -12 -13 -25
q-7 -14 -6 -25t4 -19q4 -10 10 -16q3 -3 11.5 -8.5t22.5 -3.5q7 0 11 4q-5 6 -8.5 21.5t4.5 35.5zM352 106q12 45 7 72t-11 44q-16 34 -56 68l-60 4q4 -5 11.5 -14.5t15 -18.5t13 -16.5l5.5 -7.5q8 -14 17 -39.5t2 -65.5q-10 -54 -43 -88t-93 -44q13 -6 29 -9q14 -2 31 -2
t37 8q9 3 22 10t27 20t26.5 32.5t19.5 46.5z" />
    <glyph glyph-name="nine" unicode="9" horiz-adv-x="374" 
d="M227 355q5 11 8.5 26t3.5 29q0 11 -2 23t-6 16q-8 -5 -12.5 -18t-5.5 -27.5t2.5 -28.5t11.5 -20zM201 332q5 0 10.5 4.5t8.5 10.5q-8 6 -11.5 23t-2 36t6.5 35t14 19q-6 11 -19 11q-20 0 -30 -19t-12 -43q-2 -28 6.5 -52t28.5 -25zM235 561q18 0 41 -5t43.5 -24t34 -55.5
t13.5 -98.5q0 -21 -1.5 -44.5t-6.5 -50.5q-1 -8 -5.5 -27.5t-13.5 -43.5t-23.5 -50t-35 -47.5t-48 -35.5t-63.5 -14q-22 0 -47 3t-49 10.5t-44.5 19.5t-32.5 30q-2 2 -1 6q1 1 6 10.5t11.5 21t14 22t13.5 14.5q4 2 6 0q13 -13 34.5 -21.5t43.5 -8.5q21 0 37 11t27 27.5
t18 35t9 33.5q-8 -1 -18 -1.5t-20 1.5q-3 0 -17.5 5t-30.5 19.5t-29 40.5t-13 69q0 51 16 80.5t41 44.5q20 13 43.5 17.5t46.5 5.5zM348 287q6 41 8 87.5t-8 86t-36 65.5t-77 26q-5 0 -9.5 0.5t-9.5 -0.5q11 -2 25 -10.5t26 -26t20.5 -44t8.5 -63.5q0 -29 -4 -65.5
t-13 -74.5t-22.5 -74t-32.5 -62.5t-43.5 -41.5t-55.5 -10q18 -5 47 -5q42 1 74 26t53.5 59t33.5 69.5t15 57.5z" />
    <glyph glyph-name="colon" unicode=":" horiz-adv-x="285" 
d="M236 287q-2 -24 -13.5 -37.5t-19.5 -18.5q-11 -3 -36 -0.5t-60 8.5q-26 5 -33.5 22.5t-7.5 32.5q0 10 2 20t8.5 18.5t18 13.5t30.5 5q5 0 17 -0.5t25.5 -2t25.5 -4t17 -6.5q8 -7 17.5 -18t8.5 -33zM226 287q1 19 -6 28.5t-16 17.5q-5 2 -18 3.5t-26 3.5q17 -14 17 -44
q0 -44 -30 -54q20 -2 33.5 -3.5t18.5 0.5q7 4 16 16t11 32zM219 89q-2 -24 -13.5 -37.5t-19.5 -18.5q-11 -3 -36 -0.5t-60 8.5q-26 5 -33.5 22.5t-7.5 32.5q0 10 2 20t8.5 18.5t18 13.5t30.5 5q5 0 17 -0.5t25.5 -2t25.5 -4t17 -6.5q8 -7 17.5 -18t8.5 -33zM209 89
q1 19 -6 28.5t-16 17.5q-5 2 -18 3.5t-26 3.5q17 -14 17 -44q0 -44 -30 -54q20 -2 33.5 -3.5t18.5 0.5q7 4 16 16t11 32z" />
    <glyph glyph-name="semicolon" unicode=";" horiz-adv-x="285" 
d="M221 331q15 -9 20 -24.5t3 -31.5t-11.5 -28.5t-24.5 -16.5q-12 -3 -27 -4t-28 -0.5t-22.5 1.5t-10.5 1q-30 4 -38 22t-8 35q0 10 2 20t8.5 18.5t18 13.5t30.5 5h11.5t25 -0.5t29 -3t22.5 -7.5zM223 77q0 -11 -7.5 -35t-27.5 -48q-8 -10 -21 -20.5t-30 -21.5l-58 10
q-2 0 2 10t8.5 22.5t7.5 24t1 14.5q-17 7 -29 18.5t-12 36.5q0 10 2 19.5t8 18t17.5 13.5t31.5 6q1 0 11.5 -0.5t24.5 -2t28 -4.5t21 -8q17 -11 19.5 -27t2.5 -26zM216 324q-8 5 -23 7t-29 2q22 -13 22 -46q0 -40 -27 -52q12 -2 25 -1.5t22 3.5q12 4 19.5 15.5t9 25t-3 26.5
t-15.5 20zM214 77q0 14 -3 26t-14 20q-7 5 -21 7t-27 4q19 -13 19 -46q0 -29 -18 -62t-52 -59l39 -6q4 3 17.5 13.5t26.5 25.5q18 22 25.5 44.5t7.5 32.5z" />
    <glyph glyph-name="less" unicode="&#x3c;" horiz-adv-x="306" 
d="M274 374q2 -2 1.5 -4.5t-1.5 -4.5q-1 -1 -8 -13t-17.5 -28t-24 -34t-27.5 -31q-18 -17 -28 -25.5t-14 -11.5q13 -14 31.5 -34t37 -40.5t34.5 -39.5t25 -32q2 -4 -1 -9l-23 -34q0 -4 -5 -4l-76 3q-8 0 -14 6q-16 15 -34.5 38.5t-36.5 49.5t-34.5 51.5t-27.5 44.5
q-2 2 -1.5 4t2.5 4q14 23 31 48.5t35 50.5t35.5 48t32.5 42q4 5 9 4l75 -12q6 0 8 -4zM202 375q-35 -63 -65 -98t-47 -47q20 -1 30.5 -1.5t15 -1t6 -0.5h3.5q2 1 4.5 2t7 5t12.5 11t22 20q12 11 23.5 26t21.5 29.5t17.5 27t11.5 18.5zM263 375l-13 26l-73 13l22 -28zM201 72
l-28 -30l79 -4l20 30zM272 77q-9 14 -25 33t-34 38.5t-36 37.5t-30 31l-60 3q27 -27 56 -59t59 -80z" />
    <glyph glyph-name="equal" unicode="=" horiz-adv-x="556" 
d="M473 234q0 -6 -6 -6h-21.5h-39.5h-42.5h-30.5q-20 1 -46 3t-53.5 5t-54 6.5t-48.5 8.5q-5 1 -5.5 2t-0.5 4v30q0 4 6 4l257 12l79 -14q3 -1 3.5 -3t0.5 -3zM394 254l70 -13l-2 39l-70 14zM391 246q-13 -2 -27.5 -3t-31.5 -1h-31t-32 1q19 -3 42.5 -4.5t46.5 -2t44 -0.5
t36 1zM476 175q2 -1 3 -3t1 -3v-35q0 -3 -4 -3l-241 -2l-103 14q-5 1 -5 6l2 51q0 4 3 4q38 2 76 1.5t72 -2t62.5 -4.5t47.5 -6zM394 182v-22l77 -17v22zM178 145l57 -7l210 2l-57 13z" />
    <glyph glyph-name="greater" unicode="&#x3e;" horiz-adv-x="306" 
d="M278 234q5 -5 0 -7q-23 -36 -41 -64.5t-39 -54.5q-22 -26 -40.5 -46t-22.5 -22q-3 -2 -6 -2h-55q-2 1 -3.5 1.5t-3.5 2.5l-31 37q-3 3 -1 6q32 48 60 80t59 63q-14 10 -47.5 45.5t-71.5 104.5q-1 2 1 6l27 39q3 3 8 3q4 0 24 -3.5t38 -5.5q6 0 8 -4zM266 237l-133 173
q-18 2 -33.5 3.5t-23.5 3.5q14 -18 30.5 -40.5t34 -46.5t34 -49t30.5 -48zM192 114q10 12 22 28.5t22.5 33t19 31t12.5 21.5l-63 -4q-10 -18 -25 -42t-32 -49t-34.5 -47.5t-33.5 -38.5h50q4 5 22.5 24.5t39.5 42.5z" />
    <glyph glyph-name="question" unicode="?" horiz-adv-x="366" 
d="M276 526q25 -9 40.5 -26t23.5 -36.5t10 -39t1 -33.5q-4 -38 -22.5 -80.5t-48.5 -77.5q-12 -14 -26 -29t-24 -31.5t-14.5 -32.5t3.5 -31q1 -4 -4 -6l-62 -10q-21 8 -34 13.5t-13 6.5q-10 19 -11 34q-2 19 1.5 32.5t6.5 18.5q6 12 15.5 29.5t18.5 38.5q8 18 14.5 38t9 39.5
t-0.5 37t-13 31.5q-11 17 -41 18.5t-62 -5.5q-4 -1 -4 0t1 4l18 82q0 2 1 3t7 3q16 8 44 13t58.5 6.5t59 -1t47.5 -9.5zM342 393q1 13 -1 31.5t-9 36.5t-21 33.5t-37 23.5q-17 6 -45 7.5t-49 0.5q34 -11 52.5 -38t23.5 -65q4 -33 0 -58.5t-12 -45.5t-19.5 -36t-22.5 -30
q-29 -35 -42 -74.5t-7 -75.5l55 9q-5 19 -0.5 35.5t14.5 31.5t23.5 30t26.5 30q30 34 48.5 75.5t21.5 78.5zM202 93q23 2 34 -10.5t13 -29.5t-5 -32t-21 -20q-5 -2 -19 -6t-25 -6q-16 -3 -37 -4.5t-35 5.5q-11 5 -16.5 17.5t-6 26.5t4.5 26.5t16 18.5q6 3 15 5t18.5 3.5
t18 2t12.5 0.5zM239 36q2 17 -4.5 32.5t-23.5 15.5q-10 0 -47 -3q10 -3 16 -13.5t7.5 -23.5t-1.5 -26t-9 -20q20 2 40 10t22 28z" />
    <glyph glyph-name="at" unicode="@" horiz-adv-x="605" 
d="M610 284q8 -37 6.5 -70.5t-8.5 -61t-18.5 -47t-23.5 -26.5q-10 -6 -24 -12.5t-41 -11.5q-2 -2 -8 -7.5t-18.5 -13t-31.5 -15.5t-46 -15q-35 -9 -76.5 -14t-83.5 0t-80.5 21.5t-66.5 51.5q-43 54 -52 113t20 122q16 34 35 57.5t43 39t54 25.5t67 17q15 3 48.5 5t71.5 1
t74 -6t56 -15q7 -3 21 -12t30 -25t30.5 -41t21.5 -60zM559 87q9 7 20 24t18.5 42.5t9.5 58t-7 70.5q-8 37 -22 61.5t-29 39.5t-27.5 21.5t-18.5 9.5q-15 7 -37.5 10.5t-46.5 5t-48.5 1.5t-44.5 -1q57 -18 98 -50.5t64 -97.5q11 -30 13 -64.5t-4.5 -66t-22 -55t-40.5 -31.5
q18 -5 38.5 -2.5t39 7t31.5 10t16 7.5zM362 374q-30 15 -63 17t-63 -7.5t-55.5 -28.5t-41.5 -46q-22 -37 -24 -82.5t16 -88.5q12 -30 35.5 -51t50.5 -32.5t54.5 -14.5t48.5 3q-8 -1 -18.5 3.5t-21 10.5t-18 11.5t-9.5 8.5q-46 6 -70.5 39.5t-23.5 84.5q1 56 55 87q0 5 8 20
t31 35q27 23 57.5 28t51.5 3zM421 317q-3 5 -5.5 8.5t-8.5 9.5l-51 2q0 -31 1.5 -58t6.5 -64q4 -26 9.5 -43t11.5 -27.5t12 -16t12 -8.5q10 -3 17 0t12.5 7.5t8 9t3.5 6.5q-9 12 -14.5 35t-8 48.5t-4 50t-2.5 40.5zM269 189q5 18 15 22q6 3 6 7q1 5 -8.5 7t-26.5 0
q-20 -3 -30 -20.5t-7 -38.5q5 -23 27.5 -30t43.5 4q-5 0 -9 5t-7 12.5t-4.5 16t0.5 15.5zM401 343q-6 5 -10.5 9t-9.5 9q-5 1 -18.5 2t-31 -0.5t-36.5 -7.5t-36 -20q-15 -12 -22.5 -23.5t-10.5 -17.5q7 4 17 6.5t19.5 2.5t18 -1t12.5 -4l-4 38q0 4 4 5q27 8 54.5 6t53.5 -4z
M342 105q-9 -14 -31 -24t-42 -4q12 -12 27.5 -17.5t32.5 -6t33.5 3t30.5 8.5q-6 3 -23 12.5t-28 27.5zM395 12q28 7 46 15.5t29 14.5l-106 -10q-17 -23 -42 -32q17 2 35 4.5t38 7.5zM454 154q2 8 3.5 15.5t2.5 17.5q2 18 -2.5 48t-26.5 65q2 -16 3.5 -37.5t4 -42.5t6 -39
t9.5 -27zM304 211q-12 -2 -18 -11.5t-6.5 -20.5t4 -20.5t13.5 -12.5q16 11 18.5 31t-11.5 34zM366 42l98 11q-11 0 -25.5 2t-25.5 4q-21 -8 -48 -11z" />
    <glyph glyph-name="A" unicode="A" horiz-adv-x="536" 
d="M291 431q-3 -2 -8 -7.5t-12 -16t-16 -28t-21 -43.5l57 8l13 23q-5 32 -8 45.5t-5 18.5zM291 334l-51 -5l74 -21q-1 2 -1.5 8t-1.5 11zM298 340l12 -4q-1 3 -1.5 7.5t-2.5 9.5zM530 40q-1 -2 -3 -4l-79 -8l-70 3q-6 20 -12.5 45.5t-12.5 52t-11.5 51t-8.5 42.5
q-3 1 -11 3.5t-18.5 5.5t-21.5 5.5t-20 4.5l-115 -202q-2 -2 -4 -2l-72 2l-32 28q-9 18 -12 42l152 309l74 150q2 2 3 2q1 1 109 -2l76 -10q4 0 4 -4zM141 46l112 197q-12 3 -25.5 5.5t-27.5 4.5q-2 -4 -10.5 -18.5t-20.5 -35t-26 -44t-27 -45t-22.5 -38.5t-13.5 -24z
M369 558l83 -520l68 6l-85 505z" />
    <glyph glyph-name="B" unicode="B" horiz-adv-x="475" 
d="M458 205q5 -57 -11 -95.5t-54 -67.5q-25 -20 -55.5 -29.5t-61.5 -13t-60 -2t-51 3.5q-13 1 -46 6t-75 23q-5 2 -6 5t-1 6l51 514q0 3 5 3q24 2 44 2.5t39 -2.5q1 0 17 1t38 0.5t46.5 -3t42.5 -9.5q65 -23 82 -90q5 -19 5 -42t-5 -45q-4 -18 -11 -32.5t-18 -21.5
q24 -9 40 -22t25.5 -28t14 -30.5t5.5 -30.5zM388 50q35 28 50 64.5t10 90.5q-6 78 -81 104l-5 2l-72 4q15 -7 31 -22t29 -36t21 -46.5t7 -53.5q-2 -21 -12 -44t-26.5 -43.5t-38.5 -36.5t-48 -24q33 2 70.5 11t64.5 30zM319 369q-10 -25 -30 -46l72 -4l1 1q11 5 20 21.5
t14 40.5q6 34 -3 73q-7 29 -27 50.5t-50 32.5q-18 6 -45.5 9.5t-52.5 3.5q40 -8 65 -26.5t37 -44.5q8 -13 10.5 -28.5t1.5 -30.5q-2 -28 -13 -52zM200 140q21 -7 35 -4t26 8q16 23 12.5 47.5t-20.5 42.5q-19 19 -46 25zM134 126l56 14l7 121q-11 2 -21.5 3.5t-28.5 3.5z
M152 359q20 0 28.5 0.5t13.5 2.5q4 5 6.5 33.5t6.5 87.5q-2 2 -13.5 6t-32.5 7zM209 373q10 7 16 21t7.5 29.5t-2.5 29.5t-13 22zM217 114q11 2 19 7t14 10q-15 -5 -27.5 -4t-26.5 6l-59 -16q18 -3 32.5 -3.5t25.5 -0.5q12 0 22 1z" />
    <glyph glyph-name="C" unicode="C" horiz-adv-x="447" 
d="M474 192q6 -2 4 -7q-1 -2 -5.5 -14.5t-14 -29.5t-24 -36.5t-35.5 -35.5q-29 -22 -68.5 -27.5t-96.5 -1.5q-51 -1 -89 14t-64 41q-38 36 -50.5 84.5t-13.5 96.5q-1 57 24 108.5t69 80.5q50 32 115 39.5t129 -1.5q53 -9 59 -55q3 -20 -3.5 -39.5t-16.5 -29.5q-5 -5 -9.5 -6
t-6.5 -1q-13 2 -29.5 3t-46.5 1q-1 0 -16 -3.5t-34 -12.5t-36 -24t-22 -38q-8 -34 -3 -56t17 -36t29.5 -21.5t35.5 -12.5q8 8 16 18.5t15 24.5q0 2 3 2q2 1 28.5 1t80.5 -2zM413 207l-79 2l48 -17h66zM183 300q4 18 17.5 32.5t30.5 25t34.5 17t29.5 9.5q-5 1 -14 2.5
t-19.5 3t-20.5 2t-16 0.5q-38 -1 -62.5 -14.5t-43.5 -41.5q-21 -32 -20.5 -71t18.5 -70q11 -19 27 -33t35.5 -19.5t41 -0.5t43.5 23q-16 4 -33.5 12t-30.5 23t-19 39.5t2 60.5zM406 448q-2 11 -8 21t-20 18q-16 7 -40 9.5t-42 3.5q22 -6 33 -20.5t12 -32t-8 -34.5t-25 -28
q10 0 30 -0.5t40 -3.5q4 0 10 6q8 7 14 25t4 36zM393 76q17 13 30 29t22 31t14.5 27.5t7.5 19.5h-83q-10 -33 -22.5 -55.5t-28.5 -37.5t-37 -24.5t-49 -17.5q62 -1 95 7t51 21z" />
    <glyph glyph-name="D" unicode="D" horiz-adv-x="424" 
d="M115 122q18 -2 34 4t28 16l15 202q-12 4 -27.5 6.5t-34.5 0.5zM218 181q14 20 20 39.5t7 36.5q1 26 -8.5 48.5t-35.5 34.5l-13 -191q6 5 11.5 11t9.5 11t9 10zM409 347q2 -11 4 -34.5t-2 -55t-16 -68t-39 -73.5q-22 -30 -47.5 -47t-51 -26t-47.5 -12.5t-36 -6.5
q-8 -1 -26 -2t-36.5 -1.5t-33 -0.5h-15.5h-20.5t-21.5 2q-5 1 -5 5q0 2 8 116.5t25 349.5q0 4 3 4q2 0 11 -0.5t19 -0.5q11 -1 25 -1q3 0 24 -0.5t49 -2t57.5 -4.5t48.5 -9q19 -5 38.5 -16t37 -27.5t30 -38.5t17.5 -50zM349 122q25 36 37 71.5t16 65.5t2 52.5t-4 33.5
q-5 27 -17 47.5t-28 35.5t-35 25t-38 16q-21 7 -57 10t-66 5q30 -6 56.5 -17.5t48 -28t36.5 -37.5t21 -46q0 -1 5 -27t2 -65t-20.5 -85t-62.5 -86q-23 -19 -51.5 -34.5t-74.5 -26.5q17 0 31.5 1t21.5 1q12 0 34 4t47.5 13.5t51 27t44.5 44.5z" />
    <glyph glyph-name="E" unicode="E" horiz-adv-x="485" 
d="M483 63q0 -3 -3 -6q-38 -12 -66 -20.5t-62 -16.5q-26 -6 -55 -10t-58 -5.5t-57 -0.5t-51 3q-6 1 -10.5 1t-5.5 5l-19 155l-59 13q-5 1 -5 5l-11 82q0 4 3 5l57 11q-6 66 -10.5 107.5t-7.5 53.5q-1 3 -1 6t5 5q28 9 50 16.5t40.5 13t35.5 9t35 6.5q22 3 48.5 4t62.5 2
l70 -12q5 -2 7 -18t0 -32q-3 -22 -40 -29l-140 -32l7 -66q5 0 29 4.5t50 6.5l74 -15q4 -4 4 -6l3 -74q3 -3 -3 -3l-138 -35l5 -78q8 0 20.5 2t26.5 5l44 10t34 9l83 -13q4 -3 4 -6zM192 114q22 0 39 1t27 1l-5 78l-70 9zM227 384l-61 8l7 -85l61 11zM288 18q26 3 54.5 9.5
t54 13.5t46 13.5t29.5 9.5l-74 9q-40 -21 -83 -33q-36 -11 -71 -16.5t-67 -9.5q23 -2 52.5 -1t58.5 5zM324 251l68 -9l-1 63l-69 15zM473 73l-3 49l-74 11q2 -12 2 -23.5t2 -26.5zM409 447q2 10 -1 22t-5 17l-60 11q11 -44 1 -59l55 -3q7 4 10 12zM321 242q-11 -3 -28.5 -8
t-36 -9.5t-35 -9t-25.5 -5.5l60 -7l120 31zM385 428l-54 3q-23 -5 -60 -11.5t-88 -20.5l47 -5l144 31zM56 186l38 -7l-2 13z" />
    <glyph glyph-name="F" unicode="F" horiz-adv-x="419" 
d="M478 465q4 -2 4 -6l-17 -83q0 -5 -8 -3q-4 1 -25 4t-51.5 6t-66.5 3.5t-70 -4.5q-1 -4 -2.5 -14t-3 -23t-3.5 -27.5t-3 -26.5q18 -1 33 -1.5t20 -0.5l81 -22q6 0 5 -9l-7 -65q0 -4 -4 -4l-146 -7q0 -1 -1 -1l-26 -177q-2 -5 -11.5 -14.5t-34.5 -14.5q-14 -3 -29 0
t-27 9.5t-20 16t-9 20.5q2 29 4 80t6 109q-6 0 -15.5 0.5t-19.5 1t-19 1t-13 0.5t-5.5 3t-1.5 5v77q0 6 6 6l75 -6q1 42 4 94.5t7 107.5q0 5 6 6q29 6 57.5 8.5t51.5 3t37.5 0t15.5 -0.5q38 -3 69 -8.5t69 -15.5q23 -6 45.5 -12t42.5 -16zM203 183l-50 22q-5 -39 -7.5 -66
t-5 -48t-5 -38.5t-6.5 -37.5q-1 -7 -9.5 -16.5t-26.5 -9.5q12 -6 26 -7t26 2t21.5 9t13.5 13zM240 391q25 3 53 3t54 -1.5t49 -3.5t40 -4l-54 19q-27 3 -56 3.5t-56.5 0t-53 -2.5t-44.5 -5q-7 -57 -8 -78.5t-1 -26.5q10 -2 26 -2.5t33 -1.5q4 33 7 52.5t5.5 30t3.5 13.5t2 4
zM458 387l12 70q-25 11 -45 17.5t-30 8.5q-1 -21 -3.5 -40t-5.5 -30zM285 280l-6 -65l77 -17l6 61zM170 208l38 -17h1l111 6l-46 11h-104z" />
    <glyph glyph-name="G" unicode="G" horiz-adv-x="480" 
d="M463 30q2 -6 -5 -8q-12 -2 -23.5 -4t-21.5 -3.5t-16 -2.5t-7 -1l-43 -3q-7 0 -9 4l-8 22q-10 -6 -30 -10.5t-42.5 -7t-43.5 -3.5t-33 0q-48 4 -80.5 32.5t-51.5 67.5t-25 83.5t-1 81.5q5 31 19.5 72.5t40.5 79t64 64t91 28.5q6 0 22.5 -1.5t35 -3.5t33.5 -4t18 -4
q7 -3 13.5 -13t4.5 -22q-1 -6 -12.5 -19t-26.5 -27t-30 -27t-23 -20q-12 -12 -25 -26t-23 -29.5t-14.5 -31.5t-1.5 -31q42 14 76.5 20.5t70.5 9.5q8 -1 34 -5t56 -7q4 -1 4 -5zM454 32l-13 240l-81 11l33 -262zM356 476q2 8 -3 15t-10 9q-3 1 -13 2.5t-24 3t-29.5 3
t-29.5 2.5q4 -13 2.5 -22t-7 -16.5t-15 -15t-20.5 -18.5q-19 -18 -37.5 -41.5t-33 -49.5t-23 -53t-7.5 -52q2 -38 10.5 -61.5t22 -36.5t29.5 -17t33 -2q18 2 39.5 11t29.5 26q-30 -3 -53.5 1t-40.5 21l-3 4t-6 11t-4.5 17t0.5 22q2 2 10 7t27 13q-5 16 0.5 34.5t16 36
t24.5 32.5t27 25q11 9 25.5 22.5t28 27t23.5 24.5t11 15zM277 187q-5 -2 -12 -4t-14.5 -4t-13 -3.5t-5.5 -2.5q5 -4 15.5 -4t24.5 1q5 6 5 17zM308 83q-8 -22 -23 -36t-32 -21q6 0 17.5 2.5t23.5 5.5t21.5 6t10.5 4z" />
    <glyph glyph-name="H" unicode="H" horiz-adv-x="436" 
d="M385 50q0 -4 -5 -7l-57 -25q-12 -5 -30 -4.5t-34 4.5t-27.5 10t-11.5 11v53t0.5 55.5t1 52t1.5 42.5l-35 8l-9 -190q0 -6 -4 -7l-50 -23q-4 -2 -9 0l-62 29q-2 0 -2 4l-22 480q0 6 5 7q11 1 25 4q12 2 29 4.5t38 5.5q20 -2 42 -8t32 -19q2 -4 2 -8t-0.5 -22.5t-1.5 -41.5
t-1.5 -44.5t-0.5 -30.5l26 -5l6 158q0 6 5 9l83 16q12 0 27.5 -1.5t30.5 -5t27 -8.5t18 -11zM269 549q22 -2 37 -8t31 -14l68 15q-6 4 -18 7t-25 5.5t-24.5 3.5t-16.5 1zM225 349v26l-31 6l-50 -15zM135 516q0 -2 0.5 -9.5t0.5 -23.5t-0.5 -42t-2.5 -68l57 17q0 13 0.5 33
t1.5 40t1.5 37t0.5 25zM63 547q32 -5 46.5 -10.5t19.5 -11.5l63 9q-14 11 -30.5 15t-33.5 6zM170 61l9 192l-51 11l-4 -225zM376 52l37 482l-72 -14l-15 -491z" />
    <glyph glyph-name="I" unicode="I" 
d="M386 439q9 -23 4.5 -40t-17.5 -26.5t-32 -12.5t-40 2l-33 -212q5 0 14.5 -0.5t19.5 -1.5t19 -2t13 -2q8 -2 17 -5.5t14 -9.5q8 -10 12 -22.5t1 -26.5q-6 -24 -10.5 -31.5t-6.5 -9.5q-2 0 -90 -6q-119 17 -175 26t-66 11q-5 1 -4 1t1 5t1.5 18t3.5 43q1 5 1 8t5 4
q28 4 46 6t42 4l24 228q-42 5 -58.5 7.5t-15.5 3.5q-1 0 -1 4q0 12 1.5 26t3.5 37q0 3 4 3q78 0 120.5 -0.5t62.5 -0.5t24 -0.5t6 -0.5l82 -20q2 0 4 -2.5t3 -4.5zM199 141l58 9l35 216l-54 12zM369 82q4 24 -10 43l-75 -3q5 -8 6.5 -20.5t-0.5 -23.5q0 -2 -2 -13.5
t-7 -19.5l75 3q4 6 7.5 14.5t5.5 19.5zM301 455q10 -23 2 -46q-6 -22 -26 -30l39 -9q15 -4 30 -0.5t24.5 13t12.5 23.5t-5 31zM349 132q-10 3 -27.5 4t-57.5 6l-49 -7q17 -1 36 -2t26 -3zM125 150q-4 0 -22 -1.5t-38 -4.5q13 -1 25.5 -1h33.5z" />
    <glyph glyph-name="J" unicode="J" horiz-adv-x="472" 
d="M504 373q-2 -23 -10 -39t-8 -18h-10q-24 -1 -49 -0.5t-50 0.5q0 -10 -1.5 -38.5t-4.5 -65t-7.5 -75t-10.5 -67.5q-18 -94 -62.5 -138t-132.5 -38q-33 2 -59 6.5t-51.5 15.5t-52.5 31t-61 55q0 5 1 15t6 22t15 23.5t27 18.5q5 2 8 -2q18 -30 39 -44.5t41 -19.5t36 -3.5
t23 4.5q6 3 16 10.5t21 25t22.5 47t20.5 75.5q6 32 11 73.5t7 94.5q-27 3 -52.5 6t-45 5.5t-31.5 4.5t-14 2q-5 1 -3 6q5 17 7 35t4 26q1 4 6 4q17 1 54.5 2.5t78 3t75 3t46.5 1.5l131 -16l4.5 -4.5t7.5 -10t6.5 -16t1.5 -21.5zM344 72q6 30 10.5 69t7.5 75.5t4.5 64.5
t1.5 36l-60 13q-4 -37 -8 -88.5t-12 -104.5q-8 -56 -23 -105t-41 -78q-15 -17 -39 -31t-53 -19q8 -1 16.5 -1.5t18.5 -0.5q40 0 69 8.5t49.5 28.5t34.5 52.5t24 80.5zM495 373q2 19 -5 29.5t-10 13.5l-114 17q12 -19 10.5 -44t-10.5 -45l114 -20q3 5 8 18.5t7 30.5zM323 335
l50 -10h46l-59 10h-37z" />
    <glyph glyph-name="K" unicode="K" horiz-adv-x="496" 
d="M497 122q4 -6 2 -10t-9 -18.5t-35 -32.5q-14 -9 -32.5 -12.5t-35 -4.5t-29 0t-14.5 1q-7 0 -12 5q-3 3 -9 10t-16.5 19.5t-26.5 32t-38 47.5q0 -44 -1 -68t-2.5 -35t-2.5 -13.5t-2 -3.5q-34 -8 -67 -9.5t-71 4.5q-3 0 -4 4l-47 485q0 8 4 9q17 7 34.5 12t25.5 7
q7 1 21.5 1t32 -1t37 -3t37.5 -6q8 -1 8 -7l-3 -80q31 40 75 93l85 -2l1.5 -1t9 -6.5t23.5 -17t45 -32.5q4 -4 1 -7l-150 -162zM488 119l-165 198l-72 -4q3 -5 12 -16.5t28.5 -34t51 -58t79.5 -87.5zM325 326l141 153h-73q-14 -15 -35 -37t-42 -44.5t-39.5 -42.5t-27.5 -33z
M229 48q2 4 3 32.5t1 88.5q-14 20 -28.5 37.5t-32.5 39.5q2 -76 3 -116.5t1.5 -59t0 -22.5t-0.5 -7q14 0 28 1.5t25 5.5zM234 533q-17 5 -36 6.5t-33 2.5q1 -20 2.5 -45.5t2.5 -49t2 -41t2 -21.5q1 -5 4.5 -3.5t8.5 6.5q3 4 10 12.5t14.5 17.5t13.5 16t8 9zM400 537l-68 2
q33 -26 46 -37t15 -13h71zM450 69q18 11 28 23t12 19l-66 -2q-7 -13 -12.5 -21.5t-12 -14.5t-14.5 -10t-20 -9q20 0 44 2t41 13z" />
    <glyph glyph-name="L" unicode="L" horiz-adv-x="431" 
d="M482 141q2 -14 -0.5 -25.5t-5.5 -19.5q-4 -10 -8 -16l-2.5 -2.5t-3.5 -1.5l-282 -59l-134 -2q-6 0 -6 6q-4 77 -7 132.5t-5 105.5t-3.5 102t-2.5 122q0 3 3 5q28 13 54 19q38 0 54.5 -0.5t22.5 -2.5q2 -1 4.5 -4.5t7 -20.5t11 -52.5t16.5 -100.5q5 -29 9 -57t7 -51t5 -39
t3 -20q44 7 70.5 12t41 7t19.5 3t7 1h88q1 0 7 -2.5t12 -7.5t11.5 -13t6.5 -18zM152 494q-7 3 -22 3.5t-30 0.5q3 -2 3.5 -3.5t1.5 -3.5l34 -346l70 12q-4 31 -9 67t-10.5 72.5t-10.5 71t-10 61.5t-9.5 44.5t-7.5 20.5zM180 26l247 52l-50 -2q-39 -8 -69 -14.5t-59 -12
t-60 -11t-70 -12.5h61zM463 89q3 6 8 20t3 32q-1 8 -5.5 14t-9.5 10q-6 4 -14 7h-70q7 -5 11 -10.5t4 -6.5q1 -1 4.5 -19.5t-10.5 -50.5z" />
    <glyph glyph-name="M" unicode="M" horiz-adv-x="570" 
d="M542 -3q-9 -26 -30.5 -35.5t-46.5 -11t-47 2t-32 5.5q-7 1 -7 8q0 29 -2 63.5t-4 71.5t-4 73.5t-3 69.5l-42 -30q-6 -2 -9 -1l-67 14q-4 1 -5 4q-4 6 -9 16.5t-14 33.5l-70 -230q-1 -4 -5 -5l-34.5 -7.5t-17.5 -4t-7.5 -1.5t-3.5 1q-10 4 -23 9.5t-25 13.5q-5 3 -3 6
l92 451q0 5 4 8t8 4q3 1 27.5 2.5t62.5 2.5q13 0 28 -14.5t28.5 -34.5t24.5 -40t16 -30q10 10 22 22.5t28 23t37.5 16.5t52.5 4l70 -9q5 -1 6 -4.5t1 -5.5zM530 462l-57 7l3 -490q-3 -5 -8.5 -10.5t-15.5 -8.5q12 -2 24 0t23.5 7.5t20 13t13.5 16.5zM185 362
q-13 -42 -28.5 -95t-29.5 -101t-24 -82.5t-13 -39.5l51 11l73 236zM162 517q13 -3 24 -12.5t20.5 -21.5t17 -25.5t13.5 -25.5l37 -70l42 44q-5 10 -14.5 27.5t-21.5 36t-26.5 33t-29.5 18.5zM318 221l48 34l-4 50l-25 -20t-29.5 -23.5t-26.5 -20.5t-15 -10z" />
    <glyph glyph-name="N" unicode="N" horiz-adv-x="476" 
d="M433 57q0 -5 -4 -8l-48 -25q-32 -17 -50 -2.5t-23 52.5q-5 34 -8.5 60.5t-7.5 52t-8.5 54t-9.5 66.5q-37 17 -56.5 21.5t-31.5 6.5v-290q0 -5 -3 -6l-52 -28q-6 -3 -17.5 -5t-23.5 2t-21.5 15.5t-11.5 35.5q-2 10 -2.5 17t-2 18.5t-3 32.5t-4.5 58.5t-7.5 96.5t-11.5 147
q-2 9 7 19t17 10q1 0 14 2t29.5 5t31.5 5.5t19 2.5q6 1 20.5 -1.5t31 -6t32 -7.5t23.5 -7q-2 9 -4 21q-1 7 1 20.5t19 21.5q10 5 33.5 15t49.5 14q24 4 42.5 0t21.5 -5q4 -2 4 -6zM424 57l-15 468l-59 -15q1 -6 3 -33.5t5.5 -83.5t8.5 -144t12 -216zM177 46v290q-11 2 -25 3
t-28 -1l9 -314zM79 453q24 -3 56.5 -10.5t58.5 -15.5q18 -5 32.5 -11t31.5 -11q-3 20 -6 35q-6 3 -22 7.5t-33.5 8t-32 6t-18.5 2.5zM350 534q-11 -2 -22.5 -5t-21.5 -8q14 2 26 1t14 -3l52 13q-10 2 -23 3t-25 -1z" />
    <glyph glyph-name="O" unicode="O" horiz-adv-x="456" 
d="M290 292q-5 25 -17.5 48t-28.5 28q-11 -6 -25 -21t-16 -47t9 -59t21 -37q11 -10 20 -11.5t16 -1.5q5 0 7 1.5t4 4.5q10 17 13 39.5t-3 55.5zM194 165q21 -10 44 -4t34 23q-10 -1 -21 0.5t-24 13.5q-12 12 -23.5 41t-9.5 61t16.5 49t23.5 22q-21 8 -46 -1q-17 -6 -28 -19
t-18 -38q-3 -10 -3.5 -24t1 -28t4.5 -27.5t8 -22.5q8 -17 20 -29t22 -17zM446 357q13 -51 8.5 -102t-23.5 -93q-10 -23 -24.5 -39.5t-28 -27.5t-24 -16.5t-13.5 -6.5q-16 -7 -38 -11t-42 -6q-23 -2 -44 -2.5t-41 3.5t-40 15t-40 33q-22 23 -35.5 53t-19.5 62q-24 135 48 215
q8 8 19 15q9 6 21 12.5t26 11.5q3 1 18 5t37.5 8t49 5.5t52.5 -2.5q20 -3 41 -13.5t39 -27.5t32.5 -40t21.5 -51zM424 165q18 39 21.5 90t-8.5 100q-7 27 -20.5 48.5t-30.5 37.5t-36.5 26t-37.5 13q-29 5 -59 2.5t-54 -8.5q34 -1 68 -18.5t56 -56.5q20 -35 28.5 -82t4.5 -98
q-1 -19 -7.5 -41.5t-17.5 -44.5t-27 -40.5t-36 -28.5q17 3 36 6.5t33 10.5q2 1 12 6.5t23.5 15.5t27.5 25.5t24 36.5z" />
    <glyph glyph-name="P" unicode="P" horiz-adv-x="473" 
d="M406 470q5 -14 9 -37t2.5 -51t-10 -59t-27.5 -61q-17 -26 -40 -42.5t-46 -25.5t-42.5 -12.5t-27.5 -3.5l3 -137q-29 -35 -41.5 -50.5t-16.5 -17.5l-68 4q-4 0 -4 4l-83 546q-1 2 3.5 7.5t18.5 13.5q10 6 24 13.5t28.5 14.5t26.5 12.5t19 6.5q29 5 74.5 6t96.5 -19
q35 -14 61 -43t40 -69zM397 468q-29 76 -96 105q-23 10 -46.5 14t-45 4.5t-41 -1.5t-33.5 -4q-6 -1 -18 -7t-26 -13.5t-29.5 -15.5t-27.5 -14q36 8 56.5 10.5t22.5 2.5q80 6 133 -20q81 -39 94 -151q5 -42 -2.5 -73t-21 -53.5t-30 -37t-29.5 -22.5q27 6 59.5 24t54.5 52
q18 29 26.5 58.5t10 56t-2 49t-8.5 36.5zM215 178q-20 -6 -54 -6l11 -184l46 55zM253 315q10 37 2 67t-18 42q-7 8 -15.5 13t-16.5 7l10 -139q8 0 20.5 2.5t17.5 7.5zM196 448q-17 4 -33 2.5t-26 -7.5l17 -184l53 42zM246 301q-8 -3 -18.5 -4.5t-14.5 -1.5l-54 -44
q12 1 25.5 4.5t26 9.5t22 15t13.5 21z" />
    <glyph glyph-name="Q" unicode="Q" horiz-adv-x="524" 
d="M529 19q0 -1 -0.5 -3t-6 -7.5t-18.5 -16.5t-37 -30l-105 -21q-7 0 -10 3q-13 16 -24 31t-23 28.5t-27 26.5t-36 27q-13 -6 -27.5 -8t-26.5 -2.5t-20 0.5t-9 1q-9 2 -32.5 10.5t-48 30t-44.5 60t-22 100.5q-3 98 31.5 161.5t112.5 90.5q2 1 22 4.5t47.5 5.5t58 0t54.5 -12
q25 -11 44 -28.5t31.5 -36t19 -36.5t8.5 -30q3 -17 4 -40t0 -47.5t-4.5 -48.5t-10.5 -44q-8 -23 -16.5 -37.5t-13.5 -19.5q34 -14 65.5 -36.5t63.5 -75.5zM434 367q-2 12 -9 28.5t-19 34t-30 33.5t-42 27q-26 12 -63.5 13t-66.5 -4q10 -1 26.5 -5t35 -15.5t35.5 -32.5
t28 -56q12 -37 15.5 -70.5t0 -65t-13.5 -63t-26 -64.5l86 6q3 3 11.5 17t18.5 40q7 19 11 43t5.5 48t0.5 46.5t-4 39.5zM518 21q-50 79 -125 103l-77 -4q22 -14 41 -26t34.5 -24.5t28 -27t23.5 -34.5zM443 -1l-65 -45l85 17q14 11 27 21t23 18zM241 392q-19 -7 -31 -35
t-12 -90q0 -36 6 -61.5t16 -30.5q12 -5 17 0q12 25 19.5 53.5t9 57t-4 56t-20.5 50.5zM237 400q-17 18 -38.5 16.5t-39.5 -15.5q-11 -9 -19.5 -23.5t-14.5 -32t-9 -37.5t-3 -39q0 -15 3.5 -38t12.5 -44.5t24.5 -35.5t39.5 -11q18 3 36 24q-5 0 -11 2q-8 3 -13.5 13t-9 24.5
t-5 31t-1.5 32.5q0 66 13.5 96t34.5 37z" />
    <glyph glyph-name="R" unicode="R" horiz-adv-x="495" 
d="M468 473q11 -49 -13 -99t-71 -95l98 -169q0 -3 -2 -5l-50 -57q-48 -24 -65 -31.5t-21 -8.5q-4 -2 -7 3q-29 45 -53 82q-10 16 -20 31t-18 27.5t-13.5 20.5t-6.5 10q-6 8 -10.5 11t-15.5 1l-16 -142q0 -6 -3 -7l-69 -49q-2 -2 -6 -2q-1 0 -19.5 2.5t-42.5 8.5q-4 1 -4 5
l-3 575v5t8 5l133 38q2 0 21.5 -0.5t46.5 -3t57 -7.5t53 -14q46 -18 73.5 -52.5t38.5 -82.5zM383 368q0 -2 -2.5 -12.5t-9 -25.5t-17.5 -33.5t-28 -34.5l54 25q46 46 67 91.5t11 92.5q-21 95 -109 129q-21 9 -49 14t-54 7t-45 2.5t-21 0.5l-94 -26q51 3 78 1.5t31 -1.5
q52 0 91 -18.5t63 -50t32.5 -73.5t1.5 -88zM376 276l-66 -31l118 -186l43 49zM210 517q-11 5 -27 7.5t-34 -0.5l-9 -217l58 33zM272 405q3 28 -1 46.5t-12 30.5t-18.5 19t-21.5 12l-11 -171q35 9 48 23.5t16 39.5zM190 192q-6 -2 -19.5 -5.5t-34.5 -11.5q-3 -63 -7.5 -103
t-10.5 -61l57 40zM246 346q-8 -4 -17 -7.5t-25 -5.5l-64 -35q33 4 58 15t48 33z" />
    <glyph glyph-name="S" unicode="S" horiz-adv-x="450" 
d="M443 464l-5 -3l-93 -34q-4 -2 -7 -0.5t-5 3.5q-3 2 -7 4t-13 5q-4 -3 -14 -13.5t-10 -25.5q1 -8 13.5 -25.5t28.5 -38t33 -40.5t27 -32q8 -9 19 -23t22 -33.5t20.5 -44t13.5 -52.5q1 -8 2 -24.5t-2.5 -38t-15 -45t-35.5 -45.5q-37 -34 -87.5 -46.5t-96.5 -13t-79 4.5
t-36 6q-28 8 -55.5 17.5t-51.5 19t-42.5 19t-28.5 17.5q-7 6 -9 16.5t-0.5 23t6 25t10.5 20.5q14 20 34 27.5t34 5.5l113 7q5 -3 15.5 -10.5t23.5 -13.5t26.5 -9t24.5 2q13 13 17 32t1.5 38.5t-9.5 36.5t-15 27q-24 28 -53.5 67t-50.5 81t-27 85t17 80q16 26 37 37.5
t42 19.5q1 1 18 5t41.5 8t54 5t56.5 -5t51.5 -14.5t43.5 -16.5t30.5 -14.5t13.5 -7.5q4 -2 2 -6zM457 109q-5 33 -14.5 56.5t-20 41t-21 29.5t-18.5 22q-19 23 -37 45.5t-32 41t-23.5 33t-10.5 22.5q0 15 8.5 26t15.5 16q-12 4 -27 7.5t-29 4.5t-27 -0.5t-22 -7.5
q-15 -11 -15.5 -29t8.5 -40t25 -46t33 -46.5t33 -41.5t25 -31t19 -31.5t16.5 -43t8 -50t-6.5 -51.5q-17 -57 -62 -88.5t-111 -37.5q12 -1 25.5 -1.5t29.5 -0.5q45 0 95 12t87 46q35 34 45 68t3 75zM472 538q-16 7 -51 22t-78 24q-31 6 -65 4t-60 -8q42 -3 87 -18t86 -51z
M208 67q-9 -2 -21.5 1t-24.5 8t-22 11t-14 11l-102 -7q9 -7 21.5 -16t27.5 -17t31.5 -13.5t32.5 -5.5q22 0 39.5 7.5t31.5 20.5zM392 503q-17 -26 -26.5 -40.5t-15.5 -22.5l85 30l37 59z" />
    <glyph glyph-name="T" unicode="T" horiz-adv-x="470" 
d="M506 431q4 -1 4 -7q-2 -17 -6.5 -28t-9.5 -17t-9 -8.5t-5 -2.5l-153 -25v-358q0 -3 -2 -5l-54 -21q-4 -2 -7 0l-64 17q-3 1 -3 4l-28 352q-1 0 -9 -0.5t-17.5 -1.5t-18.5 -1.5t-12 -0.5q-7 0 -25.5 4.5t-46.5 13.5q-14 5 -21 23t-9 37.5t1 35t9 15.5q105 4 173.5 6.5
t110.5 4t63.5 2t33.5 0.5zM318 -12v355l-53 25l7 -399zM405 459q2 -11 -1.5 -26.5t-6.5 -25.5l87 -26q4 3 9 11t7 32zM392 400q-3 -1 -10.5 -3t-21 -5t-35 -7t-53.5 -10l51 -25l146 26zM167 363q-40 -7 -63.5 -10t-37.5 -5q17 -4 30 -7.5t16 -3.5q5 0 24 1t33 3z" />
    <glyph glyph-name="U" unicode="U" horiz-adv-x="584" 
d="M584 427q0 -1 1 -24.5t0 -60.5t-6 -83t-17 -92q-27 -106 -102 -158.5t-180 -56.5q-69 -3 -118 18.5t-80.5 60t-47.5 90t-21 107.5q-5 51 -1.5 101.5t11.5 96.5q0 3 1 6.5t5 5.5q20 4 34 3.5t20 -1.5l71 -12q5 -1 5.5 -2.5l1.5 -4.5q2 -14 4.5 -34.5t5.5 -41.5t5.5 -39
t4.5 -28q4 -23 11.5 -51.5t21 -52.5t35 -37.5t53.5 -5.5q14 4 20.5 7t9.5 5q19 34 23.5 79.5t5.5 92.5v46t2 43q0 6 2 7.5t7 5.5q19 12 47.5 21t58.5 11.5t58.5 -2.5t47.5 -20zM573 425q-8 6 -20.5 9.5t-26 5t-26 1.5t-19.5 -1q11 -46 12 -98.5t-8 -105.5
q-8 -47 -24.5 -91.5t-43 -81.5t-63 -64.5t-83.5 -39.5q52 1 97.5 14.5t82 39.5t62.5 64.5t39 91.5q11 44 16 87.5t6 79.5t0 60t-1 29zM324 129q-4 -2 -8.5 -4t-11.5 -4q-38 -9 -62 6t-38.5 41.5t-21 57t-10.5 52.5q-2 10 -5 30.5t-6 43t-5.5 41.5t-4.5 26l-64 12
q2 -16 3.5 -37t3.5 -44t4 -45.5t5 -41.5q4 -34 10.5 -68t19.5 -61t34 -44t56 -18q66 -3 101 57z" />
    <glyph glyph-name="V" unicode="V" horiz-adv-x="496" 
d="M319 44q0 -3 -7 -6l-89 -32q-16 -5 -22 1t-15 19q-18 30 -31.5 56.5t-25.5 54.5t-24 59.5t-26 70.5q-18 50 -41.5 115.5t-57.5 156.5q3 12 18 18t23 6q1 1 11 3t24.5 3.5t31.5 2t34 -2.5q16 -3 36 -31.5t39 -65t34.5 -71.5t22.5 -51q15 42 25 69t16 43t9 23.5t4 9.5
q5 17 19.5 26.5t31.5 14.5q1 0 14 2t31 4.5t38 3t35 -2.5q36 -6 56.5 -17.5t20.5 -13.5q4 -4 2 -6zM462 493q-45 -95 -76 -159t-48 -99t-43.5 -89t-64.5 -129l79 29l236 457zM120 560q-20 3 -39 2t-35 -2q5 -2 23.5 -35t53.5 -105q18 -38 40.5 -86t50.5 -109q11 33 20 61
t17 51q-10 22 -26.5 59t-35.5 72.5t-37.5 62.5t-31.5 29zM538 512q-8 4 -24 11t-39 11q-4 1 -13 1h-19.5t-19 -0.5t-10.5 -0.5q5 -2 20 -9t29 -22z" />
    <glyph glyph-name="W" unicode="W" horiz-adv-x="628" 
d="M642 459q0 -3 -3.5 -26.5t-9.5 -58.5t-13.5 -77t-15 -81.5t-14 -72t-11.5 -47.5t-22 -25t-37.5 -15t-41.5 -5.5t-33 1.5q-27 5 -46.5 25t-38.5 43q-3 -6 -10 -18t-15 -24t-14.5 -22t-7.5 -12q-17 -23 -46.5 -29t-67.5 -6q-11 0 -26 4.5t-20 21.5l-136 415q-1 6 1 8
q13 8 26 14t26 8q4 2 19 5.5t33 6t35.5 3t28.5 -3.5q13 -4 21.5 -11.5t13.5 -16.5t8 -17t4 -12q3 -13 8 -40.5t10 -58.5t9.5 -59t6.5 -42l33 57l29 3h37.5h20t7.5 -0.5l1 -0.5l45 -43q66 238 66 240q2 3 3 4t8 1l84 2q2 0 6 -2l34 -26q2 -2 4 -5t1 -5zM566 454
q-6 -25 -12 -62.5t-12.5 -79.5t-14.5 -84.5t-17.5 -78.5t-21.5 -60.5t-27 -29.5q13 0 29.5 2.5t32.5 7.5t28 13t15 17q5 14 11.5 43.5t13.5 66t14 76.5t12.5 75t9.5 61.5t5 36.5zM255 223q-1 1 -3 14t-5 33t-6.5 44t-7.5 47t-7.5 42t-5.5 29q-4 14 -12 29.5t-28 22.5
q-14 5 -37.5 2t-43.5 -8q11 -3 21.5 -10t16.5 -21q30 -72 43 -148t26 -161q0 1 1.5 4t6.5 11.5t14.5 25t26.5 44.5zM351 127q-7 10 -16 22t-19 26q-21 -41 -37.5 -69t-29 -46.5t-21 -28t-13.5 -13.5q23 0 48 6t38 26zM433 241l-47 44h-50l83 -95zM597 488l-77 -2l43 -22
l62 3z" />
    <glyph glyph-name="X" unicode="X" horiz-adv-x="466" 
d="M350 281l102 -204q2 -5 0 -9q-2 -3 -13 -18t-43 -36q-15 -10 -34 -14t-35.5 -4.5t-28.5 0.5t-13 1q-5 2 -6 3.5l-3 4.5q-15 45 -26.5 78t-19.5 56l-63 -92q-2 -4 -7 -4l-80 -11q-4 0 -5 1q-3 3 -11.5 11t-18 17t-18.5 18l-14 14q-3 3 -1 7t6 10l12 18q12 18 41 58.5
t87 118.5l-84 172q-2 2 2 6q26 20 40.5 22t16.5 2q4 1 15 2t23 1t22.5 -1t14.5 -4q10 -7 18.5 -19t15.5 -24.5t12.5 -24t8.5 -18.5q26 28 37.5 40t19.5 17q12 8 22.5 13t23 8t28 3.5t35.5 0.5q15 0 29 -3.5t25 -7t17.5 -7t7.5 -4.5q2 -2 1.5 -4t-1.5 -3zM341 277h-70
q3 -6 9.5 -19.5t18 -37t28.5 -59.5t41 -88l74 3zM427 466l-42 -46q-15 -16 -33.5 -36t-35.5 -39t-29.5 -35t-16.5 -24h71l154 184zM208 201q-2 2 -4 1t-7 -8l-108 -151l69 9l69 96zM258 411q-2 5 -7.5 16.5t-13 25t-16.5 26t-18 19.5q-4 2 -12 2.5t-17 0.5t-17.5 -1
t-11.5 -1q10 -10 28 -37.5t50 -88.5q19 22 35 38zM366 63q-7 -14 -18 -25l-12 -12t-11.5 -8.5t-24.5 -12.5q17 -2 43.5 0t46.5 16q21 14 33 26.5t17 19.5zM486 479q-19 8 -46 12t-52 -2q6 -2 15.5 -5t23.5 -8z" />
    <glyph glyph-name="Y" unicode="Y" horiz-adv-x="443" 
d="M439 482q0 -2 -0.5 -17t-5.5 -38t-16 -50t-33 -52q-39 -43 -69 -58t-40 -18l-22 -178q0 -3 -5 -5q-14 -5 -59 -10q-35 -4 -60 2t-45 15q0 1 0 0.5t0.5 1t2 7t4.5 18.5q4 16 11 45t13 58.5t10 53t1 29.5q-2 5 -7 13t-11 18q-8 11 -17.5 25t-13.5 21q-3 8 -20.5 42.5
t-45.5 98.5q-4 7 -1 9q5 4 13.5 6.5t24.5 3.5q35 0 53 -0.5t25 -0.5q9 -1 17 -7t15 -14.5t12.5 -16.5t8.5 -14q8 -14 21.5 -38.5t30.5 -35.5q20 16 44.5 45t39.5 71l2.5 2.5t3.5 1.5l74 -4q10 -5 20 -10.5t20 -11.5q4 -3 4 -8zM393 503l-54 4l32 -15l46 -2zM373 483
q-2 -32 -11 -57.5t-19.5 -44t-20 -29.5t-12.5 -14q-22 -23 -47 -39.5t-49 -32.5l57 -8q3 0 12 3t23 11t32 22t38 36q19 21 29.5 44t16 44.5t7 38t1.5 24.5zM225 391q-18 14 -30 34t-23 40q-3 4 -8 12t-11 16t-13 13.5t-14 5.5q-4 1 -14.5 1.5t-44.5 0.5q14 -6 26.5 -21.5
t24 -34t22 -36.5t21.5 -29q17 -19 31.5 -17.5t32.5 15.5zM211 257q-1 -5 -3.5 -16t-6.5 -31t-9 -50.5t-11 -74.5l61 -7l24 171zM229 71q-18 1 -28 2t-15 2t-6.5 1h-2.5q-8 -4 -16 -6.5t-13 -4.5q8 -2 19 -2t22.5 1.5t22 3t17.5 3.5z" />
    <glyph glyph-name="Z" unicode="Z" horiz-adv-x="470" 
d="M489 55q0 -2 -2 -3t-4 -1l-102 -15q-6 -1 -11 1q-19 8 -41.5 10t-40.5 3q-29 3 -53 4.5t-49.5 3t-56 2.5t-72.5 1q-5 0 -8.5 1.5t-4.5 8.5q-1 9 1.5 24t7 31t11.5 31t15 25l8.5 10.5t28 35t52 64t82.5 98.5l-124 15q-6 0 -8 5q-6 17 -3.5 29t8.5 20q6 10 17 16h14h29.5
t38 -0.5t39.5 -1.5q18 -1 40.5 -2.5t42.5 -3t35 -2.5t18 -2q9 -3 17.5 -9.5t15 -15.5t9.5 -19t1 -20q-3 -14 -13.5 -34.5t-25 -44t-31 -48t-32 -46.5t-28 -39t-18.5 -25q10 -1 29 -2.5t42 -4.5t47 -7.5t44 -11.5q28 -11 54 -24q2 -2 2 -4t-1 -3zM234 224q-14 -20 -27 -38.5
t-20 -29.5l96 6q5 8 13 19t20 28q16 22 34.5 49t35 54t29 50.5t15.5 38.5q2 7 -1.5 16t-9.5 17t-13 13.5t-11 6.5q-5 2 -27.5 4t-51.5 4q14 -8 19.5 -20.5t5.5 -26t-4.5 -27.5t-10.5 -26q-5 -9 -15 -25t-23 -34.5t-27 -39t-27 -39.5zM407 101q-2 -7 -7 -21t-16 -34l98 15
l17 42zM489 112q-7 3 -16 7.5t-22 9.5q-18 6 -41 10.5t-45.5 7t-42.5 4t-34 2.5l-38 -3q7 -1 14.5 -1t15.5 -2q15 -2 33.5 -6t35.5 -9.5t31 -11t21 -10.5z" />
    <glyph glyph-name="bracketleft" unicode="[" horiz-adv-x="268" 
d="M312 -93q0 -5 -3 -6t-30 -4.5t-61.5 -7t-67.5 -6t-48 -1.5q-12 1 -34.5 4t-52.5 17q-2 1 -2 6l4 736q0 2 2 2.5t3 0.5q32 1 55.5 1h37.5q32 0 35 -1q2 0 26 -3.5t69 -10.5q4 0 4 -6l-2 -16q0 -4 -4 -4l-68 -9l26 -624l105 -22q3 0 3 -6zM195 -58l81 7l-81 17l-70 -8z
M240 621v4l-83 14l3 -9zM157 621l-44 -6l58 -7l45 6zM166 599l-74 9l22 -642l78 9zM207 -104q15 1 30 2.5t28 3.5t23 3.5t13 3.5l-3 33l-97 -9l-1 -32q0 -5 7 -5z" />
    <glyph glyph-name="backslash" unicode="\" horiz-adv-x="362" 
d="M396 -38q-5 -22 -27.5 -39t-52 -27.5t-59.5 -13t-49 4.5l-177 702q-2 7 3 7q3 1 11.5 1h28.5l54 -10q5 -2 6 -5zM387 -36l-260 613l-46 9l230 -633zM311 -56q-12 -21 -25 -33t-30 -19q19 1 39 5t37.5 12t31 19.5t21.5 26.5z" />
    <glyph glyph-name="bracketright" unicode="]" horiz-adv-x="268" 
d="M189 641q1 0 3 -0.5t8 -3t18 -7t34 -13.5q3 -2 3 -6l30 -715q0 -4 -7 -7q-2 -1 -10.5 -4t-21 -7t-27.5 -7.5t-30 -4.5q-51 -5 -92 1t-77 14q-5 1 -5 7l-1 41q0 5 4 5l81 19l22 653l-63 7q-7 0 -5 6l5 20q0 4 7 4zM276 -97l-30 707l-50 20l6 -725zM187 -125q23 2 44 8
t34 11l-67 2q-19 -8 -38 -13t-39 -8q17 -1 34 -1.5t32 1.5z" />
    <glyph glyph-name="asciicircum" unicode="^" horiz-adv-x="574" 
d="M580 401q3 0 1 -7q-1 -3 -12 -19t-39 -27q-12 -5 -33 -6t-41.5 -0.5t-35.5 2.5t-16 2q-14 7 -23.5 14.5t-19.5 16t-22.5 19.5t-32.5 27q-5 -5 -14 -14.5t-25 -20.5q-12 -8 -28 -14t-30.5 -9.5t-25 -5.5t-11.5 -2l-81 -2q-4 0 -7 4l-21 37q-1 2 -1.5 4t1.5 3l190 120
q38 -3 65.5 -4.5t44.5 -3.5zM562 401l-203 107l-84 4l182 -105zM262 396q14 10 23 18.5t14 14.5l-39 31q-20 -20 -36 -33t-33 -23t-36 -19t-44 -21l59 2q1 0 11.5 1.5t24.5 5.5t29 9.5t27 13.5zM527 357q17 6 27.5 16.5t14.5 18.5l-110 5q-5 -17 -17.5 -27.5t-23.5 -16.5
q10 -1 24.5 -1.5t30.5 -0.5t30.5 1.5t23.5 4.5z" />
    <glyph glyph-name="underscore" unicode="_" horiz-adv-x="558" 
d="M600 -177q0 -6 -4 -6h-438l-164 37q-3 1 -3 6v68q0 5 5 5h447l158 -42q4 -1 4 -7zM447 -78v-57l145 -31l4 50zM442 -144h-413l129 -30h427z" />
    <glyph glyph-name="quoteleft" unicode="&#x2018;" horiz-adv-x="196" 
d="M191 372q0 -4 -3 -5l-27 -9q-1 0 -2.5 -0.5t-3.5 0.5l-51 19q-3 0 -4 3l-78 126q-2 3 0 5q12 17 33.5 31.5t46.5 8.5l57 -30q3 -2 3 -5zM182 377l-27 137l-48 26l30 -145zM157 365l18 6l-38 15l-21 -6z" />
    <glyph glyph-name="a" unicode="a" horiz-adv-x="437" 
d="M369 -13q-9 0 -19.5 0.5t-20 2t-16.5 3t-9 2.5l-8 26q-28 -6 -54 -8t-47.5 -2t-37.5 2t-23 4q-53 17 -68.5 55t-4.5 89q0 2 7.5 15.5t25.5 30.5t48.5 33.5t76.5 23.5q-3 12 -7.5 23.5t-6.5 13.5q-3 4 -13 5.5t-28 -9.5q-3 -2 -11.5 -7t-17.5 -11t-16 -10.5l-7 -4.5
q-70 -4 -83 3q-7 4 -18 12.5t-28 24.5q-4 4 0 8q32 30 57 51.5t48 35t46.5 20t53.5 7.5q27 0 54 0.5t51 -5t42.5 -18.5t28.5 -40q15 -42 25 -86t17 -88.5t12.5 -89t13.5 -88.5zM421 21q-8 46 -13.5 88.5t-12 83.5t-16 81t-24.5 82q-11 33 -44.5 45.5t-84.5 13.5q11 -3 22 -9
t22 -17q2 -2 12 -16t24.5 -52.5t31 -108.5t32.5 -184zM248 172q-13 -1 -28 -5.5t-28.5 -12.5t-22.5 -18.5t-9 -22.5q0 -11 7.5 -20t36.5 -9l-4 7q-6 10 -0.5 19t16 16.5t22 12t18.5 4.5zM197 315q-8 6 -19.5 9.5t-28.5 -1.5q-8 -3 -20.5 -9.5t-25.5 -14t-25.5 -15
t-20.5 -13.5l51 4q9 3 20.5 10t23.5 14t23.5 12t21.5 4zM267 113q-7 13 -10 22q-9 0 -21 -5.5t-21 -12.5q-4 -3 -8 -11.5t4 -18.5q11 3 25 9t31 17zM366 21l-44 -18l48 -8l40 19zM285 54q-33 -23 -66 -33q17 0 37 3t35 7z" />
    <glyph glyph-name="b" unicode="b" horiz-adv-x="401" 
d="M375 187q4 -36 -7.5 -65.5t-32.5 -52.5q-28 -29 -67 -44.5t-77 -13.5v-41l-41 -18h-72q-4 24 -10 70.5t-13 105.5t-14.5 125.5t-15.5 130t-15 119t-13 93.5l83 26l52 -8q3 0 3 -3l38 -319q7 2 20.5 4.5t30.5 3t37 -2t40 -10.5q23 -9 46 -35t28 -65zM128 607l-40 7
l33 -338q11 5 22 8.5t22 5.5zM364 187q-4 36 -24 59t-43 32q-11 5 -26 7t-29 2q23 -8 42.5 -26.5t27.5 -54.5q12 -56 -6 -96q-24 -57 -97 -88q36 -1 69 14t55 43q17 21 25.5 48.5t5.5 59.5zM169 180h-45l8 -94q11 0 22.5 0.5t20.5 1.5zM220 140q2 11 -0.5 19.5t-10.5 16.5
q-3 3 -11 3h-19l5 -87q13 5 23.5 17t12.5 31zM180 11h-45l-3 -30h48v30zM128 -26l-29 -11h47l28 11h-46zM202 187q-8 6 -18.5 8.5t-14.5 2.5t-13.5 -1t-23.5 -6l40 -4q3 0 12.5 1.5t17.5 -1.5z" />
    <glyph glyph-name="c" unicode="c" horiz-adv-x="364" 
d="M364 139q4 -5 0 -10q-5 -9 -19 -29.5t-48 -40.5q-56 -33 -114 -33q-8 0 -21.5 0.5t-28 2.5t-28 5.5t-21.5 8.5q-35 23 -53.5 57t-16.5 88q1 25 11 47.5t25.5 39.5t36 28.5t41.5 15.5q7 1 38.5 5t79.5 -4q23 -4 43.5 -14t21.5 -11q4 -2 1 -8l-22 -55q0 -2 -3 -3t-5 -1
l-80 -3q-8 5 -16.5 9t-16.5 4q-5 -5 -10 -14.5t-5 -20.5q0 -18 8.5 -29t20 -17.5t23 -9t18.5 -3.5q5 5 10 8.5t13 8.5l11 5l80 4l18 -21t8 -10zM213 136q-14 2 -28.5 6.5t-25.5 15.5q-8 7 -11.5 18t-3 22.5t4.5 22.5t12 19q-23 1 -40 -7.5t-22 -22.5q-8 -23 1.5 -45
t27.5 -36q9 -5 16 -8t15.5 -3t20.5 4.5t33 13.5zM286 129q-16 -29 -32.5 -46t-31.5 -27t-28 -14.5t-22 -8.5q36 0 65 8.5t57 25.5q27 17 42 37.5t20 28.5zM227 284l-22 -52l78 4l18 48h-74zM334 162l-74 -3l23 -23l69 4zM294 291q-25 15 -58 21t-57 5q11 -3 24 -8.5
t24 -13.5z" />
    <glyph glyph-name="d" unicode="d" horiz-adv-x="389" 
d="M294 -41l-41 8q-5 1 -7 7l-11 40q-5 -2 -21.5 -8t-33.5 -6q-19 0 -31.5 0.5t-21.5 2t-16 4t-16 5.5q-25 11 -50.5 37.5t-29.5 71.5q-2 42 18 75t59 50q12 4 27 7q13 2 30 4t38 0l-55 350q0 7 4 7l92 4l51 -11q3 -17 4 -22.5t3 -19t6.5 -43t14 -94.5t26 -173.5
t42.5 -279.5q0 -5 -4 -5zM272 596l-40 11l81 -615l51 -7zM309 -15l-41 -11l26 -4l63 7zM228 44q-10 -9 -17 -14.5t-14.5 -9t-16.5 -5.5t-22 -4q7 -4 18.5 -3t23.5 4t21.5 6.5t11.5 5.5zM191 136q0 8 -4.5 14t-10.5 11q-6 -2 -17.5 -8.5t-11.5 -20.5q0 -11 4.5 -17.5
t10.5 -10t11 -4.5t7 -1q11 11 11 37zM165 165q-12 9 -23 7t-20 -9t-14 -17t-5 -18q0 -26 21 -36t45 0q-29 8 -29 40q0 16 8.5 23t16.5 10z" />
    <glyph glyph-name="e" unicode="e" horiz-adv-x="373" 
d="M336 87q-9 -12 -26 -23t-38.5 -19t-45 -12t-45.5 -2q-35 3 -67 11t-57 28q-17 14 -29 34.5t-17 51.5q-4 22 -1.5 44.5t10.5 43.5q14 39 46 67.5t81 31.5q18 2 44.5 2.5t54 -5.5t51 -20.5t34.5 -42.5q9 -23 6.5 -51t-21.5 -48q-12 -13 -30.5 -20t-40 -10t-43 -2t-39.5 3
q-3 -7 4.5 -17t12.5 -10q11 0 20 5.5t20 13.5l91 9l27 -54q1 -2 0 -5t-2 -4zM320 273q-9 22 -24.5 34.5t-34 18.5t-38 7.5t-36.5 2.5q35 -10 58.5 -39.5t27.5 -67.5q2 -22 -6 -43.5t-32 -29.5q22 2 42.5 8t31.5 17q17 19 18 45.5t-7 46.5zM305 141l-77 -8l22 -45l77 9z
M250 78q-20 -20 -42 -27t-43 -10q18 -2 40 0t44 7.5t41 14.5t33 23zM169 119q-8 5 -13 15t-3 17q-11 3 -25.5 9.5t-28.5 17.5q-2 -13 3 -24.5t15 -20t23.5 -12.5t28.5 -2zM195 214q8 10 2.5 21t-10.5 16q-17 -4 -21.5 -18.5t3.5 -25.5q8 0 16 2t10 5zM182 256
q-13 15 -32.5 11.5t-28.5 -16.5q-7 -10 -4.5 -17.5t9.5 -12.5t17 -8.5t18 -5.5q-9 15 -2 29.5t23 19.5z" />
    <glyph glyph-name="f" unicode="f" horiz-adv-x="426" 
d="M324 330q-19 -12 -31.5 -26.5t-20 -28t-11.5 -24.5t-6 -18l65 -3l67 -25q2 0 2 -2q2 -2 -21 -83q-3 -4 -7 -4h-136l-30 -198q0 -3 -2 -3q-1 -1 -64 -1l-33 15q-4 4 -4 7l22 180l-62 4l-48 22q-14 14 -20 30.5t-6 17.5q0 8 1.5 20t20.5 24h129q9 61 24.5 113.5t45.5 91
t78.5 60.5t123.5 22l92 -29l-18 -110q-1 -3 -3 -3.5t-4 -1.5q-1 0 -17 -3.5t-38.5 -9.5t-46.5 -14.5t-42 -19.5zM320 337q14 8 32.5 15t36.5 13t34 10.5t27 7.5l-71 13q-29 -1 -60 -15t-56.5 -36t-42 -51t-17.5 -60h44q0 3 3 14.5t11.5 27t22.5 32t36 29.5zM468 389l18 95
l-78 25l-25 -102zM188 -75l28 191l-33 15q-3 -21 -6 -46t-6 -50.5t-6 -50t-7 -45.5zM320 219l-22 -73l63 -19l18 70zM339 124l-48 14l-96 -3l26 -11h118zM56 127h58v11h-84zM129 -79h48l-22 9h-43z" />
    <glyph glyph-name="g" unicode="g" horiz-adv-x="407" 
d="M373 375q5 -8 2 -43t-8 -89q-5 -30 -11.5 -70t-14 -83t-16.5 -84t-18 -73q-9 -31 -21 -53t-25.5 -37t-28 -25t-28.5 -17q-66 -36 -162 -7q-45 14 -68.5 27t-40.5 35l-28 39q-4 5 -9 12t-1 12l69 92q4 5 8 1l13 -13q13 -13 35.5 -27t40.5 -21q12 -5 27 -7.5t30 -2t28 5.5
t21 16q22 32 29 62q-8 0 -21 1.5t-30 9.5q-60 27 -83 73t-9 97q6 21 19.5 37t30 26.5t35 16.5t33.5 8q42 4 69 3l22 89q1 4 7.5 6t15 2.5t16.5 -0.5t13 -1q4 0 13 -1.5t18 -4t17 -5.5t11 -7zM321 382q4 -10 3 -18.5t-3 -21.5q-16 -89 -26 -143.5t-15.5 -85.5t-7.5 -42.5
t-2 -12.5q-3 -18 -7.5 -39.5t-11.5 -44.5t-18 -46t-26 -42q-28 -34 -58.5 -47.5t-55.5 -11.5q-26 1 -46 5.5t-39.5 12.5t-40.5 21t-49 33l38 -55q5 -4 26 -16t63 -23q43 -12 80 -14t75 17q13 7 27 16.5t27 24.5t24.5 36.5t20.5 51.5q10 30 19 70.5t16 81.5t12.5 78t8.5 61
q3 19 6 42t5.5 44t2.5 36t-3 18q-3 5 -15.5 8.5t-29.5 5.5zM218 206q-9 5 -22.5 2.5t-24.5 -10t-16.5 -19.5t1.5 -25q9 -15 21 -16.5t27 1.5q-6 4 -7.5 14.5t0.5 21.5t7.5 20t13.5 11zM148 44q17 -8 30.5 -9.5t18.5 -1.5q3 5 4 12t3 13q-16 -3 -31 -2t-27 3t-20 4.5t-11 2.5
q8 -8 16 -12.5t17 -9.5zM211 143q3 -5 6.5 1t5.5 16.5t4 22.5t2 19q-8 0 -13.5 -7.5t-8 -18t-2 -20.5t5.5 -13z" />
    <glyph glyph-name="h" unicode="h" horiz-adv-x="399" 
d="M317 313q31 -9 47.5 -33.5t22.5 -55.5t4 -64t-6 -58q-10 -64 -19.5 -89t-13.5 -29l-57 -13q-23 -3 -40 0.5t-43 8.5q-6 1 -4 7q16 69 16 107v49q0 4 -1 16t-5 24t-13.5 21t-25.5 6l6 -143q0 -5 -3 -6l-51 -14q-16 -5 -36 -4.5t-32 0.5q-5 0 -6 6q-1 4 -1 16t-2 41l-8 143
q-2 42 -4 77t-4 64q-3 57 -5 88.5t-3.5 48t-3 21.5t-2.5 10q-2 5 3.5 6.5t7.5 2.5q16 4 34.5 6.5t37.5 2.5q26 0 38.5 -17.5t14.5 -40.5l15 -212q6 3 12 4t11 2l59 7q13 1 28 0t32 -6zM374 105q3 24 4 55.5t-4.5 61t-19 52.5t-39.5 30q-20 5 -38 5.5t-32 -1.5
q48 -18 64.5 -56t12.5 -102q0 -1 -1 -14.5t-3.5 -36t-7.5 -53t-13 -66.5l51 15q3 5 10.5 30t15.5 80zM126 563q-18 9 -43 2q17 -4 19 -25q1 -12 2 -29t2.5 -46t5 -73t8.5 -110q14 8 24.5 13t19.5 9l-15 210q-2 17 -4 29t-19 20zM175 69l-7 139q-8 -2 -17.5 -5t-23.5 -6
l4 -139z" />
    <glyph glyph-name="i" unicode="i" horiz-adv-x="277" 
d="M265 506q14 -5 27 -18.5t9 -43.5q-2 -15 -8 -31t-16.5 -30t-25.5 -23.5t-34 -11.5q-23 -2 -44.5 1.5t-33.5 17.5q-18 21 -15.5 44t15 43t30.5 34.5t32 18.5q12 3 32 3.5t32 -4.5zM290 445q3 23 -5 35.5t-24 18.5q-6 2 -19.5 2t-21.5 -2q18 -12 24 -31t2.5 -39.5t-16 -39
t-32.5 -30.5q42 -2 64.5 22t27.5 64zM171 120q0 -17 11 -27t16 -12q19 -8 31 -15t17 -18q3 -6 1 -17t-7 -21.5t-12 -18.5t-14 -9l-78 -13q-53 17 -74.5 43t-20.5 60q0 31 4 60t13 59t23.5 63t35.5 72l55 10q9 1 11 0l22 -11t11 -7t3 -5.5v-6.5q-1 -9 -5 -24t-12 -41
q-5 -18 -10.5 -37t-10 -35.5t-7.5 -29.5t-3 -19zM177 328l-38 -6q17 -5 23 -12l40 5zM195 72q-8 3 -21.5 15.5t-11.5 32.5q0 6 3 19t7.5 30t10.5 37t12 39q5 20 9.5 37.5t4.5 25.5l-47 -8q-3 -14 -10.5 -35.5t-16 -46t-16 -50t-8.5 -47.5t6 -39t26 -25q15 -6 22 -16.5
t7.5 -21.5t-5 -21.5t-17.5 -17.5l59 11q7 1 13.5 7.5t10 14t5 15.5t0.5 14q-4 11 -16 17t-27 13z" />
    <glyph glyph-name="j" unicode="j" horiz-adv-x="252" 
d="M275 478q0 -16 -6.5 -39t-18 -45t-28 -39t-35.5 -20q-5 -1 -16.5 -1h-24.5t-23 0.5l-10 0.5q-24 0 -34 18.5t-10.5 45t6 55.5t16.5 50q25 45 94 45q17 0 33.5 -2.5t29 -10t20 -21.5t7.5 -37zM264 478q0 20 -7.5 35.5t-21.5 20.5q-18 7 -48 7q14 -8 21.5 -25.5t4.5 -37.5
q-6 -51 -19.5 -81.5t-44.5 -53.5q9 -1 19.5 -1t21.5 3q18 5 31.5 21t23 36.5t14.5 41t5 34.5zM200 300q10 -3 9 -9q0 -1 -2.5 -16.5t-6 -39t-8 -51.5t-8.5 -54.5t-7 -47.5t-4 -30q-7 -44 -16 -91t-27 -89t-50 -73t-84 -42q-44 -9 -79 -11t-62.5 1.5t-49 10.5t-38.5 15
q-8 9 -16.5 24t-13.5 23q-7 9 4 12q39 8 83 20t94 41q74 45 111 147q9 26 15 57t11 63t9 63t10 56q2 8 4 10t11 5t23.5 5t30.5 2.5t31 0.5t26 -2zM160 44q1 8 4 27.5t6.5 44t8 52.5t9 52.5t7.5 43.5t5 27q-14 3 -30 2.5t-27 -2.5l-22 -132t-15 -87q-5 -30 -9 -53.5
t-8.5 -43.5t-11.5 -37.5t-17 -34.5q-29 -47 -58.5 -73t-60.5 -39t-64 -16.5t-69 -6.5q27 -6 72.5 -10.5t111.5 10.5q49 11 79 40t48 67.5t26.5 82.5t14.5 86z" />
    <glyph glyph-name="k" unicode="k" horiz-adv-x="411" 
d="M454 64q4 -4 -1 -9l-75 -51l-89 -11q-17 17 -35 39t-35 42l8 -48q1 -8 -14.5 -11.5t-36 -4t-39.5 1t-25 3.5t-7 6q-7 20 -15 51t-16.5 66.5t-17.5 73t-17 70.5t-14.5 60t-11.5 41q-1 3 -1.5 6.5t4.5 5.5q27 11 47 13t28 4q11 2 26.5 4.5t31.5 -0.5q13 -3 20 -9.5t11 -15
t5 -17.5t2 -16q29 30 45.5 46.5l24 24l9.5 9.5l2 2q2 1 23 2t65 3q1 -1 7.5 -6t14.5 -12t14.5 -15t7.5 -15l-111 -158zM359 59l81 4l-158 169l-77 -4zM319 386q-23 -34 -38.5 -54t-27.5 -34t-23 -26.5t-25 -32.5l77 4l103 151zM289 434q24 -21 30 -37l70 4q-6 8 -17.5 20
t-19.5 17zM149 405q-7 2 -19 2t-21 -2q4 -7 7.5 -14.5t6.5 -18.5t6 -27t6 -40l44 45q-2 20 -7 34.5t-23 20.5zM179 16q11 1 19 2t10 4l-35 -1q-3 0 -8 -2t-8 -3q6 -1 11.5 -0.5t10.5 0.5zM216 33l-8 55l-51 63q3 -12 5.5 -28.5t4.5 -33.5t4 -33t4 -27zM370 11l64 43l-71 -6
l-66 -44z" />
    <glyph glyph-name="l" unicode="l" horiz-adv-x="292" 
d="M224 260q-6 -23 -8.5 -46.5t16.5 -49.5q9 -12 25.5 -29.5t28.5 -29.5q7 -7 4 -14l-24 -57q-2 -5 -9 -7l-82 -14q-5 -1 -7.5 0.5t-4.5 2.5q-21 11 -36.5 24.5t-26.5 26t-17.5 22.5t-8.5 16q-15 36 -19 84t0.5 111t16.5 142t30 175q0 9 8 12q22 7 40 10t23 4q9 1 22 2
t27.5 1t27.5 -0.5t22 -2.5q11 -2 18 -8t11.5 -12.5t6 -13.5t0.5 -11t-7 -28.5t-14.5 -59.5t-18.5 -75.5t-19 -76.5t-16 -63t-9 -35zM258 39l22 52l-80 -9l-23 -58zM224 157q-20 29 -19.5 52t4.5 40q3 11 10.5 40t17 66t20 78t19.5 76.5t15 60t7 29.5t-4.5 17.5t-24.5 18.5
q-11 3 -29.5 2.5t-29.5 -2.5q10 -6 15 -12t5.5 -14t-3 -20.5t-8.5 -31.5q-12 -43 -25 -95.5t-25 -102t-20.5 -89t-9.5 -54.5q-4 -34 14.5 -66t43.5 -56l79 8l-27.5 27.5t-24.5 27.5z" />
    <glyph glyph-name="m" unicode="m" horiz-adv-x="572" 
d="M310 89q-3 -1 -7 -2t-8 -1l-54 -6q-4 1 -4 3q-5 39 -8.5 64t-6.5 36q-7 -10 -8.5 -30.5t-1 -45t3 -49.5t3.5 -43q0 -6 -4 -8l-6 -3q-7 -3 -19.5 -6t-27.5 -6t-32 -5.5t-32 -5.5q-10 0 -12 7q-2 6 -5 22t-10 53.5t-19.5 101.5t-31.5 165q3 12 41 16q22 2 46 7.5t45 2.5
q11 -2 19.5 -9.5t10.5 -12.5q8 3 21 6t27.5 4.5t28 2t22.5 -1.5q17 -3 27.5 -12t13.5 -14q23 14 52 18t57.5 -1.5t52 -19t36.5 -34.5q22 -36 29.5 -79.5t3.5 -104.5q-2 -26 -4 -37t-3 -14t-4 -4q-2 -1 -3 -1l-66 -25h-70q-4 0 -4 5q0 72 -12 118t-18 57q-2 -2 -3 -7.5
t-1 -7.5q0 -5 -0.5 -17t-0.5 -23q-1 -14 -1 -29q0 -7 -6 -8zM277 337q-11 2 -28 1t-25 -6q17 -6 31 -19t19 -27q7 7 14.5 14t25.5 15q-2 3 -11 11.5t-26 10.5zM152 345q-8 2 -25 0t-34 -5q7 -2 11.5 -7.5t8 -13t6.5 -15.5t8 -15q5 11 16 22t28 19q0 8 -19 15zM204 161
q2 17 7 25.5t8 10.5q-7 15 -13.5 20.5t-16.5 5.5q-17 0 -26 -9.5t-13 -25t-4 -34.5t2 -37.5t4.5 -34t3.5 -24.5q2 -23 3 -35.5t1 -20.5l49 13q-2 8 -3 29t-2 45t-1 44.5t1 27.5zM351 113q3 5 3.5 24.5t0.5 45.5q0 5 2 12t5 10q-6 8 -16 11t-20 0.5t-18 -10.5t-8 -20l1 -89z
M546 102q4 58 -4.5 98.5t-28.5 74.5q-9 15 -23.5 26.5t-32 18t-36.5 8t-37 -1.5q12 -2 23.5 -11t20.5 -20.5t15.5 -24t10.5 -21.5q3 -8 8 -23t9 -41.5t6 -64.5t-1 -92l63 22q0 3 2.5 16t4.5 36z" />
    <glyph glyph-name="n" unicode="n" horiz-adv-x="428" 
d="M404 192q2 -29 3 -61t1 -58q0 -3 -4 -6l-55 -26l-84 -3q-14 69 -25 104q-14 41 -31 55q-9 1 -16 -13.5t-8 -30.5q-1 -10 -2 -30.5t-2.5 -41.5t-3.5 -38t-4 -20l-63 -26l-52 4q-3 0 -3 4l-37 305q1 4 4 4l84 33l63 3q7 1 7 -3l11 -37q6 3 37.5 10t76.5 5q17 -1 34 -7
t31.5 -21t24.5 -40t13 -65zM397 74q1 6 1 25.5v40t-0.5 36.5l-0.5 16q-3 37 -12.5 61t-23 38t-29.5 19.5t-31 6.5q-39 2 -62 -3q32 -12 48.5 -30t25.5 -58q6 -26 9 -64t6 -92zM187 203q-9 0 -20 -3.5t-20.5 -9t-16.5 -12t-9 -12.5q-1 -5 -2 -22.5t-2.5 -40.5t-2 -48.5
t-0.5 -45.5l51 21q4 12 5 35t2.5 47.5t4 46.5t10.5 33q2 4 4.5 7t-4.5 4zM169 339l-55 -3l11 -63q28 22 51 33zM349 52l30 11l-56 -3l-29 -11z" />
    <glyph glyph-name="o" unicode="o" horiz-adv-x="382" 
d="M171 112q9 0 17 8.5t12 17.5q-5 2 -17.5 14.5t-15.5 40.5q0 25 6.5 37.5t11.5 17.5q-10 11 -26 16t-25 3q-18 -5 -27.5 -16.5t-13 -25t-2.5 -27t4 -22.5q3 -11 10.5 -22t17.5 -20.5t22 -15.5t26 -6zM204 145q3 6 5 19t1.5 27.5t-5 28t-15.5 21.5q-3 -3 -10 -15t-4 -34
t12.5 -33t15.5 -14zM384 241q5 -17 6 -39.5t-2.5 -45.5t-11 -44.5t-18.5 -36.5q-21 -29 -50.5 -43.5t-59.5 -18.5q-48 -7 -92.5 2t-79.5 33q-29 20 -46.5 51.5t-17.5 75.5q0 43 12 72t30 47t37.5 26.5t34.5 12.5q3 3 31 11t67 8q55 0 98.5 -25.5t61.5 -85.5zM351 83
q11 16 17.5 36t9.5 41t2.5 41t-4.5 35q-11 39 -34 62t-52.5 34t-62.5 11.5t-64 -6.5q31 0 61.5 -17t52.5 -53q9 -14 15.5 -33t9.5 -41t2 -44.5t-8 -43.5q-10 -30 -32.5 -52.5t-48.5 -30.5q10 -2 27.5 -0.5t37 8.5t38.5 19.5t33 33.5z" />
    <glyph glyph-name="p" unicode="p" horiz-adv-x="425" 
d="M268 171q3 4 4.5 12.5t1.5 18t-2 19t-8 16.5q-5 -5 -11 -15.5t-3 -24.5q2 -8 8.5 -15.5t9.5 -10.5zM257 245q-5 8 -16 12t-25 2q-22 -4 -31 -25.5t-5 -47.5q5 -21 22.5 -33.5t39.5 -7.5q6 2 13 6t9 9l-5 5t-8 9t-7.5 11.5t-3.5 13.5q0 17 6 28.5t11 17.5zM419 226
q7 -67 -30 -121q-14 -20 -35.5 -33t-47 -20t-52 -8.5t-49.5 2.5l-40 -224q0 -3 -4 -4l-65 -11l-60 -4q-7 0 -7 5q0 1 3 138t8 413q0 7 7 7q51 -2 73 -2.5t26 -0.5q2 0 22.5 -1t58.5 -3q4 0 4 -4l4 -26q14 3 42 4t54 -7q35 -11 59 -38.5t29 -61.5zM150 351l-3 -47
q12 9 25 14.5t24 7.5t18.5 2.5t9.5 0.5v22h-74zM158 -175l36 225q-22 2 -35 6t-24 12l-36 -254zM382 109q17 26 25 56.5t4 60.5q-5 31 -28 56t-56 36q-17 5 -37 6t-37 -2q21 -7 37 -22t26 -33.5t14.5 -39t3.5 -38.5q0 -24 -8 -47t-22 -41.5t-34.5 -31t-45.5 -16.5
q21 -3 44 -1t44.5 9.5t40 19t29.5 28.5z" />
    <glyph glyph-name="q" unicode="q" horiz-adv-x="400" 
d="M388 -74l4 -2t4 -6l19 -41q1 -5 0.5 -6l-1.5 -3q-5 -7 -18 -23t-29 -33.5t-33 -33t-29 -21.5q-15 -8 -26 -12.5t-20 -6.5t-17 -2.5t-18 -0.5q-26 0 -41 8t-22 21t-8.5 28.5t-1.5 30.5q1 9 3 24.5t6 44t11.5 75t18.5 118.5q-12 -3 -28.5 -0.5t-33.5 8t-31.5 12.5t-23.5 12
q-21 12 -34 27t-20.5 31.5t-10 33.5t-1.5 34q0 12 4.5 33t17.5 42.5t37.5 38.5t65.5 22q7 1 19 0.5t26.5 -3.5t29.5 -9t28 -18l4 56q0 2 3 2q3 1 71 -2l62 -8q3 0 3 -1.5v-3.5q-2 -17 -16.5 -133t-41.5 -333h68zM311 395l-8 -63q-5 -46 -12 -106.5t-14.5 -122t-14.5 -117.5
t-12 -93l59 30q2 11 16.5 126.5t44.5 339.5zM302 -236q11 6 25 20t28 29.5t26.5 30.5t19.5 23l-81 -3q-29 -36 -51.5 -57t-38.5 -32.5t-25 -14.5t-10 -3q6 -8 18 -11t27 -1.5t31.5 6.5t30.5 13zM195 283q-11 12 -22 13.5t-21.5 -4t-19 -17t-14.5 -25.5q-8 -23 -2.5 -38.5
t16.5 -20.5t24.5 1t23.5 14q-4 7 -4.5 18t1.5 22.5t6.5 21.5t11.5 15zM320 -125l85 3l-19 37h-74zM199 136q-11 -9 -23.5 -14.5t-24.5 -8t-23 -3t-18 -0.5q6 -4 18.5 -7.5t26 -6t24 -3t12.5 1.5q3 11 4 20.5t4 20.5zM199 272q-4 -4 -8 -11t-6.5 -15.5t-2 -17.5t5.5 -15
q8 11 11.5 28t-0.5 31z" />
    <glyph glyph-name="r" unicode="r" horiz-adv-x="391" 
d="M386 359q2 -1 3 -2q0 -1 1 -2l-11 -99q0 -4 -4 -4l-8.5 -0.5t-20.5 -1t-24.5 -1t-20.5 -0.5q-7 0 -22.5 -0.5t-32.5 -3t-32.5 -8t-22.5 -14.5q0 -3 0.5 -11t1.5 -28.5t1.5 -58t0.5 -100.5q0 -6 -4 -8l-110 -33q-5 -2 -6 -0.5t-2 3.5l-70 398q0 3 4 7q11 7 22.5 12t21.5 8
q11 4 22 6h85q7 0 7 -5l11 -50q11 6 24.5 9.5t27.5 5t26.5 1t21.5 -1.5zM154 411h-59l19 -92q30 29 54 40zM180 219l-55 -4l8 -206l51 15zM261 256q-36 5 -67.5 -4.5t-57.5 -24.5l48 3q3 4 13 9t22 9t23.5 6.5t18.5 1.5zM371 260l8 92l-70 11l-8 -103h70z" />
    <glyph glyph-name="s" unicode="s" horiz-adv-x="367" 
d="M349 248q-1 -7 -8 -6l-98 11q-9 1 -25 -5.5t-19 -24.5q-1 -6 7 -22t19 -34.5t22.5 -37t16.5 -29.5q11 -20 14.5 -44.5t-2.5 -47.5t-23 -42.5t-47 -29.5q-23 -8 -47.5 -10t-47 -1.5t-41 3t-29.5 4.5q-5 1 -6.5 2.5t-2.5 3.5l-14 75q0 7 4 7q22 4 37 7l25 5q28 7 37 23.5
t-1 38.5q-5 13 -16 25t-23 26q-20 23 -36 45t-18 48q-2 40 14.5 68t45.5 43.5t69.5 18t86.5 -8.5q35 -7 67 -14.5t43 -9.5q9 -2 8 -10zM188 226q4 17 16.5 24t23.5 10q-23 4 -43 1.5t-33.5 -11t-18.5 -22t3 -31.5q2 -3 11.5 -20.5t20.5 -38.5t21 -41t13 -29q4 -14 5 -29.5
t-2.5 -30.5t-11.5 -28t-20 -22q-17 -11 -38.5 -17t-38.5 -9q25 0 53 1.5t53 9.5q31 10 47 30t20 43.5t-1.5 48t-17.5 44.5q-26 46 -45.5 74t-16.5 43zM339 252l13 74l-76 17l-14 -82z" />
    <glyph glyph-name="t" unicode="t" horiz-adv-x="365" 
d="M291 0q-6 -26 -24 -39.5t-41 -19t-47.5 -5t-43.5 4.5l-25 280h-85q-6 0 -7 4q-7 28 -6 57.5t3 55.5q0 1 1 3t3 2l77 -4l-11 143q-1 8 8 10l91 -10l22 -15q4 -2 4 -6l21 -127l98 -14q6 -1 6 -7l4 -77q0 -8 -8 -8l-84 -1zM221 334l-22 124l-52 2l21 -122zM110 482l30 -12
l51 -3l-11 8zM224 -15q-20 -17 -31.5 -24.5t-30.5 -12.5q12 -3 30 -3t35 4.5t31.5 14.5t20.5 27zM280 0l-44 227l-48 -3l36 -228zM272 237l56 2l-3 70l-56 9z" />
    <glyph glyph-name="u" unicode="u" horiz-adv-x="459" 
d="M500 93q2 -2 0 -7q-9 -23 -35.5 -39t-59 -23t-65 -3t-53.5 20q-29 -17 -63 -20.5t-68 6.5t-64.5 31.5t-51.5 53.5q-3 5 -9 17.5t-12 35.5t-9.5 57.5t-2.5 84.5q0 7 7 7l156 -4q4 0 5 -2.5t1 -4.5v-8.5t1 -20.5t2.5 -24.5t3.5 -20.5q7 -21 20 -33t17 -15q1 3 1 10
q0 15 -2.5 31.5t-6 32t-7 30t-6.5 24.5q-1 2 -0.5 5t5.5 4l75 7h3t10 -0.5t24.5 -1.5t45.5 -2q9 0 10 -8q0 -9 3 -22t6.5 -27t8 -27t7.5 -22q10 -25 34 -59.5t69 -62.5zM287 314q10 -45 21.5 -78.5t24.5 -59.5t28.5 -47.5t35.5 -42.5l88 7q-32 24 -53 49t-34.5 52t-21 55.5
t-12.5 60.5zM175 226q-2 7 -4 17.5t-3.5 21.5t-2 20.5t-0.5 13.5l-52 1q0 -27 1.5 -52t7 -45.5t16 -35t27.5 -19.5q23 -7 36 -0.5t17 23.5q-10 5 -23.5 20t-19.5 35zM246 108q-15 -25 -34 -38t-36 -18t-29.5 -5.5t-14.5 -0.5q16 -6 35.5 -10.5t39 -4.5t38.5 4.5t35 15.5
q-7 8 -15 21t-19 36zM401 75q-14 -15 -28.5 -24t-45.5 -17q18 -4 41 -3t46.5 6.5t43.5 16.5t31 28z" />
    <glyph glyph-name="v" unicode="v" horiz-adv-x="388" 
d="M275 52q-1 -3 -4 -4l-84 -11q-37 -5 -57 15q-11 22 -22.5 48t-26 59.5t-33 76.5t-43.5 99q-3 8 1 11q20 12 36 18.5t36 10.5q14 2 33.5 2.5t29.5 -0.5q5 0 10 -1.5t7 -5.5l40 -86q8 26 22 62q1 3 4 5t6 3l8.5 2.5t23 4.5t33 3.5t39.5 0.5q20 -2 31 -6.5t16 -8.5
q3 -3 1 -7zM272 356q5 -2 12.5 -4t12.5 -5l65 2q-6 3 -13 5t-15 4zM145 367h-24t-39 -2q32 -43 50 -85.5t33 -84.5q7 20 14 37.5t15 36.5q-3 9 -9 22.5t-13 27.5t-14 27t-13 21zM268 59l103 280h-74l-103 -291z" />
    <glyph glyph-name="w" unicode="w" horiz-adv-x="555" 
d="M461 317l77 -3q2 0 5 -2.5t3 -5.5q0 -16 -3 -36t-8 -40.5t-10.5 -40t-11.5 -35.5q-10 -28 -29 -50.5t-42 -38.5t-49.5 -25t-51.5 -9q-31 0 -51 8.5t-31 20.5q-15 -15 -37 -19.5t-44 -3.5t-40.5 6t-26.5 9q-24 12 -42 40.5t-30 62t-17.5 67.5t-5.5 58q2 10 7 17t11 12
q7 5 15 8q30 8 60 8.5t62 -0.5q5 0 7 -11q4 -46 13.5 -78.5t23.5 -58.5q2 4 5.5 21t5.5 43q0 5 3 6l33 11l67 -7q3 0 3 -4q0 -2 1 -11t2.5 -19.5t4 -20t5.5 -12.5q2 2 6 13t8.5 28t8.5 39t5 46q0 7 3 7h85zM266 248q2 -12 4 -30t5.5 -34.5t9 -28t14.5 -11.5q14 0 23.5 9.5
t17.5 20.5q-6 8 -9 14.5t-4.5 13.5t-2 16.5t-0.5 24.5zM106 314q1 -5 4 -20.5t7 -36t10 -43t13.5 -41.5t15.5 -31t18 -12q14 2 23 13.5t14 22.5q-17 26 -26.5 64t-15.5 86zM251 67q-12 12 -17 37q-15 -25 -31.5 -38t-46.5 -17q9 -5 23.5 -4.5t29.5 3.5t27 8.5t15 10.5z
M465 305q-4 -28 -9 -51.5t-10 -40.5q-5 -20 -11 -36q-11 -25 -21.5 -46t-23.5 -38t-29.5 -30t-39.5 -22q61 -1 100.5 23t63.5 62t35 85t15 92z" />
    <glyph glyph-name="x" unicode="x" horiz-adv-x="406" 
d="M413 104q2 -3 0 -5.5t-4 -4.5l-48 -40q-6 -6 -17 -6l-75 -3q-14 3 -22 11t-19 20t-25 28q-11 -12 -24.5 -27.5t-26 -29.5t-21.5 -24t-12 -11h-81q-6 0 -11.5 3t-9 8t-4.5 10.5t3 11.5q18 26 27 39.5t17.5 25.5t21 27.5t36.5 46.5q3 3 -1 7l-76 97q-3 4 -3 14t14 19l41 33
l66 2q1 0 3.5 -0.5t4.5 -2.5l55 -58q17 17 30 28t25 16q4 1 12 4t19 5t24.5 2.5t28.5 -3.5q14 -4 22 -13t8 -13l-88 -103zM402 104l-110 110h-56q8 -11 20.5 -25.5t27 -29.5t28.5 -29.5t24 -25.5h66zM314 317q-25 -28 -44.5 -50t-33.5 -42h59l81 92h-62zM115 23
q3 2 11.5 11.5t20.5 22t25 27.5t24 27l-26 30l-110 -118h55zM163 347h-55l80 -89l29 31zM350 58q3 0 8.5 4t11.5 9.5t12.5 11.5t12.5 10h-59q-20 -14 -32 -24t-20 -13zM361 339q-19 3 -35 1t-27 -4q12 -2 18 -11l60 1q0 3 -5 7t-11 6z" />
    <glyph glyph-name="y" unicode="y" horiz-adv-x="376" 
d="M342 302l36 -22q0 -1 -9.5 -33.5t-24.5 -78.5t-34 -98t-38 -92q-65 -134 -151 -169q-39 -15 -74 -15.5t-61 11t-41.5 32t-15.5 46.5q0 22 2 34t6 25q2 5 7 3q39 -18 69.5 -20t56 11t48 41.5t47.5 70.5q-67 2 -97.5 30.5t-35.5 87.5q-1 10 -1.5 21.5t-1.5 29t-2 41.5
t-2 59q0 4 8.5 8t19.5 6.5t20 3.5t11 0q35 9 64 5t54 -12q3 -2 4 -3t1 -6q-1 -9 -3 -29.5t-2 -49.5q0 -8 2 -17q2 -8 4.5 -16t7.5 -15l45 110h81zM264 -18q13 24 25.5 56t24 65t21 65t17 57t11.5 39.5l4 14.5l-66 -2q-24 -92 -54 -177.5t-82 -165.5q-20 -31 -44 -52
t-48 -34.5t-45 -20.5t-36 -10q6 -5 18.5 -8.5t30 -4.5t37 2t39.5 11q42 19 78.5 58.5t68.5 106.5zM176 155q1 0 5 -0.5t9 1.5t11 7.5t12 17.5q-8 8 -11.5 18.5t-5.5 19.5q-2 11 -2 21q0 20 1.5 43.5t2.5 34.5l-52 -1q-5 -90 4 -126t26 -36zM349 288l-11 7h-52l15 -8z
M124 332q5 -3 10 -4t10 -3h37q-14 3 -28 5t-29 2z" />
    <glyph glyph-name="z" unicode="z" horiz-adv-x="410" 
d="M426 130q4 -4 2 -8l-29 -67q-2 -2 -2.5 -3.5t-3.5 -2.5q-37 -4 -58 -6l-31.5 -3t-13.5 -1h-4q-55 9 -95.5 14.5t-71 9t-52 4.5t-39.5 1q-17 0 -23 7.5t2 14.5l165 206q-23 2 -51.5 3.5t-70.5 -1.5q-51 -3 -51 43q0 2 5 16t25 31q16 1 29 1h24.5t23 -0.5t25.5 -0.5
q3 0 32 -0.5t66.5 -2.5t74 -7t54.5 -14q5 -3 4 -11q-2 -8 -12.5 -29.5t-37.5 -64.5q-17 -28 -34 -55t-28 -41q9 0 24 -1t31 -2.5t32 -3.5t27 -4q27 -5 43 -12t19 -10zM237 163q9 11 27 37.5t36 55.5t33 55.5t19 38.5q2 3 0.5 5t-3.5 3q-15 8 -40.5 12t-55.5 7q9 -2 16 -4.5
t10.5 -7.5t2 -13.5t-11.5 -23.5q-20 -29 -30 -45t-19 -31t-22.5 -34t-40.5 -55q19 3 39 2.5t40 -2.5zM389 57l30 66l-81 4l-41 -78zM400 134q-28 9 -59.5 13.5t-60.5 4.5q14 -2 28.5 -5.5t25.5 -8.5z" />
    <glyph glyph-name="braceleft" unicode="{" horiz-adv-x="272" 
d="M231 173q0 -20 -5.5 -40t-12.5 -39t-12 -36.5t-5 -32.5q1 -20 6.5 -34.5t13.5 -31.5q0 -3 -3 -8t-7 -10.5t-8 -10t-6 -6.5q-9 -2 -21 -3t-22.5 -2t-18 -1h-7.5q-19 16 -33 29.5t-23 28.5t-13 33t-4 44q0 22 5 42.5t11.5 39t11.5 35.5t5 32q0 25 -15.5 37.5t-37.5 19.5
q-7 12 -8 14t-1 3q0 2 3 5q9 3 20 8.5t21 13t17 17t7 19.5q0 12 -6 24.5t-13 26.5t-13 30.5t-6 36.5q0 23 7 46t21 41t33.5 29.5t45.5 11.5h63q2 -1 3 -2q0 -1 1 -2q3 -15 3 -31q0 -13 -4 -24.5t-8.5 -23t-8.5 -23t-4 -24.5q0 -26 8.5 -52t8.5 -53q0 -20 -8.5 -42.5
t-28.5 -33.5q12 -15 21 -24.5t15 -18.5t9 -22t3 -36zM221 174q0 20 -3 32.5t-9 22t-14.5 18.5t-19.5 23l-64 -2q22 -14 37.5 -37.5t15.5 -50.5q0 -19 -4 -37t-9 -36.5t-9 -36.5t-4 -37q0 -5 0.5 -15t2 -21t4.5 -21t8 -13l50 2q-16 28 -16 62q0 15 5.5 30.5t11.5 33t11.5 38
t5.5 45.5zM193 460q0 10 4 21.5t9 23.5t9 24.5t4 25.5q0 11 -0.5 15t-1.5 6h-49q2 -11 -0.5 -21t-7.5 -20q-11 -21 -14.5 -38t-3.5 -41q0 -27 9 -52.5t9 -52.5q0 -23 -13.5 -42t-32.5 -31l61 1q15 11 25 27t10 43q0 29 -8.5 56t-8.5 55zM186 -68q5 6 10 11.5t8 12.5l-53 -2
l-20 -26z" />
    <glyph glyph-name="bar" unicode="|" horiz-adv-x="257" 
d="M157 599l56 -22q4 -1 4 -7l37 -698q0 -7 -3 -8q-5 -3 -20.5 -8.5t-48.5 -7.5q-15 -1 -35.5 3.5t-40 11.5t-34 14t-18.5 12l46 702q0 2 1 4t3 2zM208 569l-51 21l20 -694l68 -20zM171 -113q-14 -11 -29.5 -14t-30.5 -1q17 -9 36 -12t36 -2.5t32 3.5t24 7z" />
    <glyph glyph-name="braceright" unicode="}" horiz-adv-x="298" 
d="M56 562q-8 13 -1.5 24.5t20.5 11.5q6 0 23 -0.5t59 -0.5q2 -1 11.5 -7t20.5 -16.5t22 -25t16 -32.5q8 -30 7 -49t-8 -34t-18.5 -28t-24.5 -31q-15 -18 -3 -38q6 -12 24.5 -20.5t28.5 -9.5q4 0 4 -5l1 -25q2 -5 -5 -7q-9 -2 -23 -11t-16 -20q-2 -20 4 -38.5t15 -37.5
t18 -39t11 -43q3 -30 -3 -53t-18 -41.5t-28 -32.5t-34 -26l-51 2q-2 0 -3 1.5t-2 2.5t-8.5 9.5t-21.5 25.5q-3 2 2 7q8 8 10.5 24.5t2.5 45.5q0 18 -4 36t-8.5 36t-8 36.5t-3.5 38.5q1 23 15.5 48t43.5 42q-26 14 -41 36.5t-15 42.5q0 29 9.5 54.5t9.5 52.5q0 21 -2 34
t-6 22t-9.5 17.5t-12.5 20.5zM183 279l46 3v15l-46 -2v-16zM95 588q20 -7 39 -28q32 -35 36.5 -74.5t-27.5 -81.5q-24 -31 -16.5 -57.5t54.5 -42.5h26l-20 12t-15 16q-13 25 4 48q12 17 22.5 29.5t17.5 26t8 31t-6 45.5q-4 16 -13.5 29.5t-19.5 23.5t-18.5 16t-10.5 7h-61z
M233 80q-2 20 -11 40.5t-19 41t-16 40.5t-2 38q2 11 13.5 19.5t21.5 13.5l-39 -4q-20 -7 -28 -19t-8 -38q0 -20 5 -37t11.5 -34t11.5 -35t5 -41q0 -22 -2.5 -38t-9.5 -29.5t-20 -27.5t-33 -32l43 -2q16 13 31.5 26t26.5 29.5t16.5 37.5t2.5 51z" />
    <glyph glyph-name="asciitilde" unicode="~" horiz-adv-x="419" 
d="M387 309q5 -2 5 -8q-4 -25 -14.5 -44.5t-44.5 -35.5q-12 -6 -27 -7t-29 0.5t-27 5t-21 6.5q-11 4 -23.5 8.5t-24.5 7t-23 0.5t-18 -11q-3 -3 -10 1l-45 17l-39 28q-4 2 -1 6q34 49 82 49q19 0 33 -6.5t26.5 -14t25.5 -13.5t29 -6q25 0 35 8t20 28q2 5 7 5l65 -12z
M377 306l-13 7l-44 8l7 -6zM134 240q4 4 16.5 8.5t26.5 2.5q-6 6 -16 9.5t-21.5 4t-22.5 -2.5t-18 -9zM330 229q29 14 40 35t13 33l-54 9q1 -15 -5 -28.5t-15.5 -24.5t-23 -18t-27.5 -8q17 -4 36.5 -5t35.5 7z" />
    <glyph glyph-name="sterling" unicode="&#xa3;" horiz-adv-x="584" 
d="M574 503q4 -4 4 -6l-11 -106q0 -1 -1 -4.5t-4 -3.5q-1 0 -24.5 -0.5t-54 -2.5t-62 -7t-48.5 -14q-14 -7 -25 -17.5t-18.5 -20.5t-11.5 -18.5t-5 -11.5h22l117 -22q4 0 4 -4q0 -2 -18 -66q-2 -3 -5 -3l-113 16h-27q-1 -5 -4.5 -22t-8.5 -37q-3 -10 -8.5 -22.5t-8.5 -19.5
l36 -3q17 0 41.5 -2.5t45.5 -5.5q111 -15 137 -41q11 -12 14.5 -25t2.5 -24q-1 -13 -6 -26q0 -2 -6 -2q-32 7 -68.5 15t-74 15t-75 12t-71.5 6q-43 1 -81.5 -1.5t-67.5 -5.5t-47.5 -6.5t-20.5 -3.5q-5 -1 -5 6l-6 74q0 5 6 5q48 0 67 8.5t20 8.5l7 5.5t16 17.5t16.5 30
t7.5 42l-39 1q-7 0 -7 3q-22 23 -26 42q-2 9 1.5 16.5t8.5 12t9.5 7.5l4.5 3l59 2q10 58 30 101.5t52.5 73t79.5 47t112 24.5zM569 494l-129 38l-9 -108q7 -1 25 -5t38 -8.5t38.5 -8.5t26.5 -6zM368 369q13 7 34.5 11.5t45 7t47 3.5t40.5 1q-10 2 -24.5 5.5t-30.5 7t-30.5 7
t-24.5 4.5q-21 0 -50.5 -4.5t-56.5 -19.5q-21 -11 -35.5 -25t-24.5 -28.5t-15.5 -27t-7.5 -20.5h69l3.5 9t11 21t19.5 25.5t30 22.5zM517 52q-8 8 -25 14.5t-38.5 11.5t-45.5 9t-46 7q10 -4 18.5 -8t13.5 -10q4 -5 10.5 -18.5t-5.5 -40.5l127 -26q5 8 5 26q0 8 -3 17.5
t-11 17.5zM339 280l-12 -59l104 -16l14 55zM270 157q5 17 8 32.5t5 22.5l-59 -2q-4 -29 -11 -50t-14 -49h55q2 4 7.5 19.5t8.5 26.5z" />
    <glyph glyph-name="yen" unicode="&#xa5;" horiz-adv-x="463" 
d="M474 510q4 0 4 -5q0 -2 -2 -19.5t-7.5 -42t-15 -53t-23.5 -51.5q-10 -17 -24.5 -31.5t-29 -26t-28 -19.5t-20.5 -12l54 -12q4 0 4 -4v-38q0 -4 -5 -6l-68 4l66 -13q3 0 3 -4l4 -35q0 -5 -4 -5h-90l2 -91q0 -7 -4 -16t-16 -17q-12 -6 -29 -7t-32.5 0.5t-27 3.5t-12.5 2
q-14 3 -27.5 9.5t-13.5 7.5t0.5 5.5t1.5 15.5l7 83l-49 13q-3 1 -3 4q0 2 1 13t4 36q0 4 5 4h26l-28 8q-3 1 -3 5l-6 44q0 5 3 5h16t44 -1v17t-2.5 11t-7.5 12t-14 20q-18 25 -33 54q-11 20 -23 45t-22 46.5t-17 37t-8 16.5q0 4 2 6q7 5 16 7t26 4q9 0 21.5 -0.5t25 -2.5
t24 -5.5t19.5 -8.5q9 -6 19 -17t19 -24t17.5 -25.5t14.5 -21.5q8 -11 22 -23t22 -9q18 15 31 35.5t22 38.5q7 16 10.5 25.5t4.5 15t2 7.5t4 2l62 3zM423 345q13 20 21.5 45t14 48t7.5 41t3 24l-57 16q-1 -9 -4 -29.5t-10.5 -46.5t-20 -52.5t-33.5 -47.5q-17 -18 -36.5 -32
t-37.5 -25q-11 -7 -19 -14t-12 -12l51 -2l24 -5q3 2 2 1.5t12 6.5q8 4 20.5 11.5t26 18.5t26.5 24.5t22 29.5zM221 431q-6 9 -14.5 21.5t-17.5 24.5t-18.5 22.5t-18.5 16.5q-11 8 -30 10.5t-36 3.5q20 -12 38.5 -39t35.5 -53q7 -10 14.5 -21t15.5 -19.5t17.5 -13t20.5 -1.5
q10 2 18 5.5t15 7.5q-11 2 -21.5 12.5t-18.5 22.5zM270 21q12 7 14 19q1 6 0.5 30.5t-1.5 68.5l-48 11v-24q0 -20 -1 -41.5t1 -47.5q-2 -9 -7.5 -13.5t-12.5 -8.5q14 -2 29 -1t26 7zM377 229l-83 18v-28l83 -18v28zM294 162l83 -14l-4 25l-79 15v-26zM290 203l45 -2l-57 13
h-21zM290 146h43l-43 9l-27 -2zM237 210q0 -5 -2 -11h37zM149 205v7h-24zM125 146l18 -4v6z" />
    <glyph glyph-name="section" unicode="&#xa7;" 
d="M349 223q-6 -20 -16 -30.5t-17 -17.5q4 -6 9 -12t9 -13.5t6.5 -18t1.5 -24.5q-2 -32 -17 -54t-44 -38q-14 -8 -33.5 -14.5t-35.5 -10.5q-6 -3 -56 -1q-5 0 -7 2l-30 62q-2 6 3 8q1 0 9.5 4t19 10.5t21 14.5t15.5 17q8 13 5.5 23t-5.5 12q-5 5 -13.5 9t-19.5 9
q-17 7 -35.5 17t-35.5 25q-17 16 -27 39t1 48q8 20 26.5 36.5t32.5 25.5l-3.5 5t-7.5 11.5l-8 13t-5 10.5q-3 7 -4 17.5t2 23.5t11.5 27t25.5 29q21 18 50.5 25t55.5 10q7 1 30 -2.5t64 -10.5q4 0 4 -6v-37q-2 -3 -4 -3q-1 0 -13.5 -0.5t-28 -3.5t-31 -9t-22.5 -17
q-7 -10 -4.5 -22.5t15.5 -23.5q5 -5 13 -11t16 -11q17 -10 34.5 -22.5t31.5 -32.5q13 -18 16 -42t-5 -46zM224 440q8 12 27.5 19.5t37.5 9.5l-41 6q-1 0 -14 -2.5t-28.5 -9.5t-28 -18.5t-12.5 -30.5q0 -13 13 -27.5t30 -28.5t34.5 -27t25.5 -22q14 -14 19.5 -31.5t3.5 -35
t-11.5 -32.5t-25.5 -24l55 -6q8 8 16.5 18.5t14.5 27.5q7 20 4.5 42t-13.5 37q-14 19 -30.5 31t-32.5 23q-10 5 -18 11t-15 11q-29 32 -11 59zM252 482l70 -9v28l-72 12zM333 107q0 13 -2 22t-6 16.5t-8 13.5l-8 12l-54 6q8 -8 13.5 -15t11.5 -19q6 -11 5.5 -34.5
t-26.5 -56.5q-15 -20 -38 -33.5t-41 -20.5l22 -2q2 1 10.5 3t20 5.5t24 8t21.5 9.5q52 30 55 85zM222 239q8 14 2.5 26.5t-13.5 19.5q-8 -7 -16 -15t-9 -12q-3 -13 2.5 -22.5t15.5 -12.5q5 2 9.5 5.5t8.5 10.5zM162 221q16 -4 29 -2q-13 8 -15 19.5t0 20.5q2 8 12.5 17.5
t15.5 14.5q-5 4 -11 9t-13 9q-1 -1 -6 -5t-11.5 -10t-13 -13.5t-9.5 -15.5q-4 -9 -2.5 -16.5t5.5 -13t9.5 -9t9.5 -5.5z" />
    <glyph glyph-name="quotesingle" unicode="'" horiz-adv-x="185" 
d="M134 497q-2 -2 -10 -6.5t-23 -4.5q-39 0 -48 29q-7 23 -5.5 51.5t3.5 48.5q0 2 0.5 7.5t1.5 15.5q17 1 32.5 1.5t32.5 -1.5q9 -1 24 -9t24 -13q3 -2 3 -5zM119 629l-33 -132q3 -2 9.5 -2t13.5 0.5t12 2.5t5 4l33 107z" />
    <glyph glyph-name="quotedblleft" unicode="&#x201c;" horiz-adv-x="372" 
d="M369 379q0 -4 -1 -5l-30 -14h-2l-62 16l-93 115l36 -112q0 -4 -1 -5l-30 -14h-2l-62 16l-98 122q-2 2 0 5q10 20 32 37.5t49 14.5l62 -24q3 -2 3 -3l7 -23q10 20 32 36.5t48 13.5l62 -24q3 -2 3 -3zM208 384l-46 139l-53 22l50 -149zM360 384l-46 139l-53 22l50 -149z
M336 369l18 8l-42 10l-21 -8zM184 369l18 8l-42 10l-21 -8z" />
    <glyph glyph-name="guillemotleft" unicode="&#xab;" horiz-adv-x="468" 
d="M407 115q-2 -7 -4 -13q-3 -11 -9 -19q-11 -9 -30.5 -12.5t-48.5 -5.5q-5 0 -8 0.5t-7 5.5q-10 9 -20 23l-22 -31q-2 -2 -4 -2l-63 -11q-1 0 -3 2q-15 14 -32.5 35t-34 44.5t-31 46.5t-24.5 41q-2 2 -1 3.5t2 3.5q13 22 29 46t32.5 46.5t32 43t28.5 36.5q4 4 7 4l58 -4
q2 0 4 -2l20 -27q1 -2 0 -6q-1 -2 -8.5 -16t-20.5 -32q10 13 22 27.5t33 38.5q1 1 2 2.5t3 1.5l57 -4q5 0 6 -2l24 -34q1 -3 0 -6q0 -2 -5 -9t-12.5 -18t-17.5 -23.5t-21 -24.5q-14 -15 -29.5 -28t-23.5 -18l118 -98q2 -2 2 -5zM223 361q-29 -56 -57 -88t-45 -46h43
q13 10 29 29.5t31 40t26.5 38.5t16.5 26h-44zM213 163q-5 6 -13.5 15.5t-17 18l-15 15t-7.5 6.5h-40q19 -23 45.5 -51.5t55.5 -73.5l46 7zM337 335q-26 -32 -49.5 -60t-52.5 -52h45q7 4 22.5 17.5t32 31t30.5 35.5t19 30zM278 214h-43q11 -10 25 -23.5t29 -27.5t29.5 -28
t25.5 -26l48 9zM364 372l-49 2l22 -29l47 2zM344 100q-2 -3 -5.5 -11t-11.5 -15q18 3 36.5 6t22.5 9q3 4 5.5 10t4.5 10zM252 389l-52 4l19 -23h46zM221 83l-21 -22l50 10l17 20zM171 220q6 -6 19.5 -19t24.5 -25q-18 22 -31 47q-1 2 0 4l11 16z" />
    <glyph glyph-name="endash" unicode="&#x2013;" horiz-adv-x="550" 
d="M537 162q0 -5 -6 -5l-348 16l-138 24q-3 0 -3 4v35q0 3 3 3l357 24l123 -30q6 -2 6 -6zM522 225l-116 27v-66l121 -18zM400 179l-277 13l60 -10l273 -13z" />
    <glyph glyph-name="dagger" unicode="&#x2020;" horiz-adv-x="418" 
d="M259 315l-48 -389q0 -4 -6 -4l-44 5q-4 0 -6 2l-44 28q-2 1 -2 5l28 361l-77 5q-2 0 -3 1l-44 30q-3 1 -3 4l10 60l124 -2l9 116l75 -3l52 -26q3 -2 3 -5l-10 -84l67 -1q3 1 5 0t3 -1l47 -32q4 -2 4 -6l-1 -69q0 -5 -6 -5zM249 319l-44 28l-48 -382l45 -28zM262 419
l10 82l-43 21l-15 -102zM220 350l39 -24l115 -9l-46 26zM346 406v-61l41 -24l1 56zM137 334l2 21l-112 7l35 -24zM126 -40l34 -22l25 -3l-36 22z" />
    <glyph glyph-name="periodcentered" unicode="&#xb7;" horiz-adv-x="213" 
d="M197 287q-2 -24 -13.5 -37.5t-19.5 -18.5q-10 -5 -34.5 -1t-61.5 9q-26 5 -33.5 22.5t-7.5 32.5q0 10 2 20t8 18.5t16.5 13.5t27.5 5q7 0 20 -0.5t27 -2t26 -3.5t17 -5q9 -8 18 -19.5t8 -33.5zM187 287q1 19 -6.5 29t-15.5 17q-4 2 -16.5 3.5t-27.5 3.5q17 -14 17 -44
q0 -44 -30 -54q20 -2 33.5 -3.5t18.5 0.5q7 4 16 16t11 32z" />
    <glyph glyph-name="bullet" unicode="&#x2022;" horiz-adv-x="411" 
d="M363 291q6 -40 -13 -66.5t-44 -34.5q-10 -3 -29.5 -4t-38.5 -1h-33.5t-21.5 1t-17 4t-18 9q-20 14 -30.5 36.5t-11.5 44.5q0 32 10 50t22.5 27t25 11.5l17.5 3.5q9 2 16 1.5t12 -1.5h20t22 -0.5t19.5 -1t11.5 -1.5q6 -1 18.5 -5t25 -13t23.5 -23.5t14 -36.5zM302 197
q23 8 40 32.5t12 59.5q-3 20 -12.5 33t-21 21t-22.5 11.5t-17 5.5q-4 1 -20 2t-34 1q30 -17 42.5 -53t-0.5 -72q-11 -31 -42 -44q20 0 42 0.5t33 2.5z" />
    <glyph glyph-name="quotedblright" unicode="&#x201d;" horiz-adv-x="356" 
d="M288 519q5 -2 3 -7l-43 -141q-2 -3 -12 -9t-31 -6q-23 0 -36 8.5t-18 14.5q-5 -12 -13 -18t-22 -4q-13 2 -25.5 5t-15.5 5q-13 5 -17 16q-5 15 -7 33t-2 36q0 26 3 47t3 42q0 7 6 7h80q2 0 4 -1.5t1 -3.5q1 5 5 5h74q3 0 9 -2zM129 369q5 1 9 8.5t8 14.5q-8 29 -6.5 64.5
t4.5 60.5q0 6 0.5 11.5t0.5 8.5q-17 -62 -26 -95.5t-13.5 -48.5t-5.5 -18l-1 -3q8 -3 16.5 -4t13.5 1zM279 511l-50 25q-14 -62 -22 -94.5t-12 -48t-5.5 -18.5t-2.5 -4q9 -3 18 -3q14 0 22 3t10 5z" />
    <glyph glyph-name="guillemotright" unicode="&#xbb;" horiz-adv-x="380" 
d="M357 228q0 -2 -2 -6q-4 -8 -14.5 -27.5t-21.5 -40.5q-9 -17 -16 -30t-15 -25q-10 -13 -15.5 -20.5t-9.5 -12.5t-7 -7l-4 -2l-68 -5h-4.5t-3.5 2l-27 33q-3 3 -2 5q30 46 56.5 76.5t48.5 52.5q1 1 0 3q-6 5 -16.5 15t-24.5 26l22 -33q2 -4 0 -7l-106 -156q-1 -1 -2 -1
l-66 -3q-7 1 -13 7t-11 12.5t-8 12t-3 6.5q-2 4 0 6q9 10 21 22.5t25.5 25t26.5 25t24 22.5l18 17q-32 25 -52.5 52t-40.5 49l-13 15q-2 2 0 5l27 39q1 1 2.5 3.5t3.5 2.5h59q1 0 3 -2l26 -37q-4 9 -7 13q-2 2 0 5l27 34q3 3 8 3l59 -2q2 0 3 -2l63 -88q9 -12 17.5 -26.5
t16 -27t12 -21zM296 127q6 10 13 23.5t13.5 27t13 25t10.5 18.5h-43q-8 -15 -21 -36t-28.5 -44t-31.5 -44t-31 -36l61 5q4 5 17.5 22t26.5 39zM185 394q9 -10 23 -28t30 -40.5t32.5 -47t30.5 -48.5h45q-6 10 -20 33.5t-28 44.5q-6 8 -15 21t-18.5 26t-17 23.5t-10.5 13.5z
M123 377h-52l24 -31q20 -26 42 -53.5t48 -62.5l37 2zM220 223h-35q-11 -18 -25 -37.5t-29 -39t-30 -38t-28 -34.5l50 4z" />
    <glyph glyph-name="ellipsis" unicode="&#x2026;" horiz-adv-x="554" 
d="M359 73q-2 -18 -10.5 -30.5t-19.5 -17.5q-3 -1 -15 -1.5t-25.5 0t-25.5 1.5t-16 2q-27 4 -34.5 20.5t-7.5 31.5q0 21 7.5 31.5t16.5 15.5q11 5 24 4q5 0 17.5 -1t26.5 -2.5t26 -3.5t16 -5q9 -5 15.5 -14t4.5 -31zM351 75q2 17 -3 25t-13 12q-5 2 -17 4t-28 4
q16 -13 16 -40q0 -35 -24 -48q8 -1 15 -1h14q14 0 15 1q8 5 15.5 15.5t9.5 27.5zM525 69q-2 -18 -10.5 -30.5t-19.5 -17.5q-3 -1 -15 -1.5t-25.5 0t-25.5 1.5t-16 2q-27 4 -34.5 20.5t-7.5 31.5q0 21 7.5 31.5t16.5 15.5q11 5 24 4q5 0 17.5 -1t26.5 -2.5t26 -3.5t16 -5
q9 -5 15.5 -14t4.5 -31zM517 71q2 17 -3 25t-13 12q-5 2 -17 4t-28 4q16 -13 16 -40q0 -35 -24 -48q8 -1 15 -1h14q14 0 15 1q8 5 15.5 15.5t9.5 27.5zM197 73q-2 -18 -10.5 -30.5t-19.5 -17.5q-3 -1 -15 -1.5t-25.5 0t-25.5 1.5t-16 2q-27 4 -34.5 20.5t-7.5 31.5
q0 21 7.5 31.5t16.5 15.5q11 5 24 4q5 0 17.5 -1t26.5 -2.5t26 -3.5t16 -5q9 -5 15.5 -14t4.5 -31zM189 75q2 17 -3 25t-13 12q-5 2 -17 4t-28 4q16 -13 16 -40q0 -35 -24 -48q8 -1 15 -1h14q14 0 15 1q8 5 15.5 15.5t9.5 27.5z" />
    <glyph glyph-name="perthousand" unicode="&#x2030;" horiz-adv-x="718" 
d="M699 141q3 -10 3.5 -23.5t-2 -29.5t-9 -32t-18.5 -31q-14 -17 -34 -24.5t-38.5 -9.5t-32 -0.5t-15.5 1.5q-30 4 -50.5 19t-31.5 38q-5 -24 -21 -39.5t-40 -23.5q-24 -9 -45.5 -8.5t-41 7t-35 18t-27.5 24.5q-5 -17 -8 -27t-4.5 -14.5t-2.5 -5.5t-2 -1q-19 -6 -37 -7
t-32.5 0.5t-24 4l-9.5 2.5q-10 3 -18.5 7.5t-14.5 7.5q-4 3 -4 7l100 283q-8 -3 -22 -3.5t-28.5 0.5t-26 2t-13.5 3q-38 6 -58 32t-25 58q-3 20 0 43.5t12.5 44t25.5 34t39 13.5q1 0 16 0.5t34.5 0t39 -3t30.5 -8.5q17 -9 24.5 -24t10.5 -26l25 70q0 2 6 2l37 -8l42 -18
q4 -2 2 -5l-72 -282q15 4 43.5 9t65.5 -3q21 -7 34.5 -21.5t20.5 -28.5q8 19 24 35q11 10 20.5 15t19 7t20 2h22.5q14 0 30.5 -2t34.5 -9q25 -10 39 -27t22 -45zM254 36q-5 10 -9 20.5t-6 21.5q-11 88 53 127l74 284l-35 14q-38 -131 -64.5 -220t-43.5 -147t-26 -89
t-13.5 -45.5t-5.5 -17t-2 -3.5q13 -2 29.5 -0.5t33.5 5.5q2 6 6 20.5t9 29.5zM666 31q22 28 25 58.5t-1 49.5q-8 38 -39.5 55.5t-65.5 20.5q12 -6 24 -15t20 -24q11 -20 15.5 -45t0.5 -51q-2 -18 -16 -43t-37 -38q18 2 39 8.5t35 23.5zM465 62q-5 9 -7 24q-3 18 -2 33.5
t5 30.5q-1 5 -3 9.5t-4 9.5q-3 8 -14.5 19.5t-29.5 16.5q-10 3 -22 3.5t-24 0.5q31 -10 46 -39q11 -20 15.5 -45.5t0.5 -51.5q-1 -11 -5.5 -24t-12 -25t-18.5 -21t-24 -13q10 0 20.5 1t21.5 5q23 8 38.5 25.5t18.5 40.5zM257 432q0 2 -1 9t-4.5 16t-10 18.5t-17.5 16.5
q-10 6 -26.5 8t-34.5 2q13 -6 22.5 -14t16.5 -20q11 -20 16 -45.5t1 -51.5q-2 -11 -6.5 -23.5t-12 -24t-18.5 -20.5t-24 -13q16 -3 30.5 1t19.5 4zM138 452q-5 2 -12.5 3.5t-17.5 -1.5q-12 -4 -18.5 -12.5t-8.5 -16.5q-3 -10 -2 -21q0 -22 9 -36.5t20 -18.5q16 -7 31 0
q-2 1 -6 2.5t-8 6.5q-8 8 -11.5 24.5t-1.5 34.5q2 14 10 22t16 13zM528 56q17 -6 36 2q-9 5 -16 9.5t-11.5 11t-6 16.5t0.5 26q2 17 9.5 26.5t12.5 13.5q-10 3 -23 0q-19 -6 -25.5 -21t-6.5 -24q0 -6 1.5 -15.5t4.5 -18.5t9 -16t15 -10zM344 150q-7 -6 -12 -12t-8.5 -13.5
t-3.5 -18.5q0 -20 5.5 -28.5t10.5 -15.5q3 -3 6 -4.5t9 -1.5q7 7 12.5 21t2.5 36q-3 20 -10 27t-12 10zM311 49q16 -7 29 0q-12 8 -20.5 19.5t-8.5 37.5q0 18 9 30.5t16 17.5q-11 3 -25 0q-12 -4 -18 -12.5t-9 -17t-3 -15.5v-7q-2 -19 9 -34t21 -19zM583 121q-3 17 -9 24.5
t-11 11.5q0 -1 -10 -9.5t-12 -28.5q-2 -15 -1 -23.5t5 -14t10.5 -9t16.5 -8.5q5 8 10 22t1 35zM163 411q-2 16 -6.5 23.5t-9.5 11.5q-6 -2 -15 -9.5t-11 -19.5q-2 -18 2 -32t9 -20q5 -5 9.5 -7t7.5 -4q5 8 11.5 21.5t2.5 35.5z" />
    <glyph glyph-name="grave" unicode="`" horiz-adv-x="456" 
d="M330 485q3 -4 1 -8q-1 -1 -5.5 -5t-9.5 -8t-9.5 -7.5t-5.5 -3.5l-70 -6l-145 90q-2 2 -2 6q0 11 5 25t14 26t20.5 20t23.5 8h29t25.5 -0.5t18.5 -1.5t8 -2zM320 484l-100 127l-64 2l103 -133zM299 462l13 13l-51 -4l-19 -13z" />
    <glyph glyph-name="dieresis" unicode="&#xa8;" horiz-adv-x="394" 
d="M134 549q10 -1 22.5 -6t17.5 -18q6 -17 2 -35.5t-17 -26.5q-5 -3 -14.5 -5t-20 -3.5t-20.5 -2t-16 -0.5q-17 0 -35.5 7t-21.5 24q-6 31 7 49t33 19q31 -1 46 -1.5t17 -0.5zM101 542q10 -7 16.5 -17.5t8 -22.5t-2.5 -22.5t-14 -17.5q12 1 25.5 2t19.5 6q9 7 13.5 23
t-0.5 28q-3 7 -8 10.5t-10 5.5q-6 2 -13 3zM303 542q9 0 22 -5t18 -19q7 -17 2.5 -35.5t-17.5 -26.5q-5 -3 -14.5 -5t-20 -3.5t-20.5 -2t-16 -0.5q-17 0 -35.5 7t-21.5 24q-6 31 7 49t33 19q31 -1 46 -1.5t17 -0.5zM270 535q10 -7 16.5 -18t7.5 -22.5t-3 -22.5t-14 -18
q14 2 27 3t19 6q9 7 13.5 23t-0.5 28q-3 7 -8 10.5t-10 5.5q-6 2 -13 3z" />
    <glyph glyph-name="emdash" unicode="&#x2014;" horiz-adv-x="1000" 
d="M916 172q0 -4 -4 -4q-58 2 -95 3t-54 1q-32 1 -85 2t-122 2q-69 2 -140 3.5t-140 2.5q-34 1 -63.5 2t-58 1.5l-57 1t-61.5 0.5q-3 0 -3 4v35q0 3 3 3l757 30l123 -22q3 -1 3.5 -3t0.5 -3zM796 248q0 -10 1 -30.5t-1 -37.5l111 -2l3 49z" />
    <glyph glyph-name="mu" unicode="&#xb5;" horiz-adv-x="427" 
d="M412 49q4 -3 4 -8q0 -9 -11.5 -24t-20.5 -24q-15 -12 -32.5 -16.5t-39.5 -3.5q-23 5 -36 13t-16 11q-3 6 -10 18.5t-10 21.5q-9 -3 -23.5 -8t-32.5 -8l-20 -179q-1 -2 -4 -5l-48 -28l-60 -16l-24 504q0 1 2 3q1 1 2 1l76 28l80 -16q4 0 4 -4q-2 -36 -3 -63.5t-1 -48.5
q0 -6 0.5 -17t3.5 -23t9.5 -23t18.5 -17q9 6 12.5 18t3.5 18q2 8 4 25t3 34q4 31 5.5 41t3.5 12l50 26q2 2 6 2l52 -4q4 0 4 -4q0 -1 0.5 -20.5t1.5 -45t1.5 -50t0.5 -36.5q3 -33 16 -54t28 -30zM400 45q-12 9 -24 32t-16 56q-1 9 -2.5 29t-2.5 42t-2 42.5t-1 30.5l-44 -24
v-28q0 -14 0.5 -32t1.5 -36t2.5 -34t3.5 -26q6 -30 17.5 -50.5t14.5 -29.5zM308 285l-44 -24h36l40 20zM136 277v-56q0 -12 2 -31.5t6 -38t11 -33t17 -17.5q15 -4 25 -1t19 9q-13 6 -21 17.5t-12 25t-5.5 25.5t-1.5 20q0 10 1 26t2.5 32t3 28.5t1.5 17.5zM108 321l-60 -24
l76 -16l48 24zM156 -155l16 176q-9 0 -20.5 0.5t-23.5 3.5l-12 -200zM380 1q9 6 15 16t9 16l-52 -24q0 -3 -3 -10.5t-9 -13.5q9 0 20 5t20 11z" />
    <glyph glyph-name="trademark" unicode="&#x2122;" horiz-adv-x="548" 
d="M535 246q-16 -15 -35 -19q-5 -1 -18 -1q-15 0 -29 1.5t-16 1.5q-6 3 -7 6q-2 5 -3 32.5t-3 61.5q0 7 -1 12.5t-1 11.5l-23 -19q-1 0 -2 -1q-3 -3 -4 -1l-33 11q-5 2 -9.5 8t-12.5 20q-14 -63 -20 -95.5t-8 -37.5q-3 -5 -5 -5l-28 7q-5 0 -15.5 4t-15.5 6q-4 1 -4 6l7 190
l-34 -5l-30 -204q0 -3 -4 -4l-38 -7l-37 9q-4 0 -4 3l2 196q-9 -4 -24 1l-42 22q-5 2 -10 9t-7 15q-4 17 0 26t6 13q1 4 5 4q14 0 31 1q14 0 32 0.5t37 0.5q26 0 52 -2.5t51 -7.5q2 0 7 -1.5t9 -3.5q1 1 5 3q3 1 8 2t13 0q1 0 8 -0.5t16.5 -1.5t18.5 -2.5t14 -2.5
q5 -2 19.5 -18t26.5 -30q7 13 17.5 25.5t23 21.5t26 13.5t25.5 2.5l44 -10q4 0 4 -5zM513 505l-39 9l17 -255l34 -6zM172 454l-20 -204l26 -6l27 197zM327 387l-8 14q-3 5 -6.5 9.5t-4.5 6.5q0 -1 -1 -8t-2.5 -15.5t-2.5 -16t-1 -8.5q-7 -59 -10.5 -85t-6.5 -36l19 -4
l27 136zM375 454q-14 15 -27 29.5t-18 16.5q-4 2 -13.5 3t-17.5 2q19 -18 33 -34.5t30 -35.5zM422 364q-1 5 -1 12v24q-6 -5 -14 -13.5t-15 -17t-13 -15t-8 -7.5l22 -5zM249 463l-12 4q-18 -2 -32 -4t-24 -4l30 -9l38 6v7zM489 250q-5 -8 -22 -15q6 -1 12.5 -1.5t14.5 0.5
t15 4.5l11 5.5zM104 454q-7 0 -18.5 -1t-23.5 -1l20 -9q13 -5 22 0v11zM251 502q-5 3 -11 3v-29l9 -4zM148 242l-18 -4l15 -3l14 3z" />
    <glyph glyph-name="plusminus" unicode="&#xb1;" horiz-adv-x="450" 
d="M276 339q8 2 29 3t37 1q12 0 16 -4q8 -4 15.5 -11.5t5.5 -26.5t-12 -29t-11 -10t-1 -1l-11.5 0.5t-26.5 1t-29.5 1.5t-21.5 2l-9 -85q0 -3 -1 -4l-2 -2l-37 -1h-35q-6 0 -6 3l-9 100q-8 0 -33.5 1.5t-47.5 3.5q-4 2 -4 6l6 35q1 3 5 3l70 8l-7 90q0 2 2 4q13 7 29 9
q7 1 12 1.5t13 -0.5q12 0 29.5 -1.5t23.5 -3.5q9 -3 15.5 -10t6.5 -14q0 -5 -1.5 -14.5t-4 -20.5t-4 -20.5t-1.5 -14.5zM261 426q-8 2 -28 2q5 -1 10 -8v-2.5t-0.5 -9t-3 -24t-6.5 -47.5l32 2q2 7 4 17.5t4 20.5t3 19t1 13q0 3 -4 8.5t-12 8.5zM248 185l9 82q-8 0 -16 1
t-15 1l-4 -86zM369 302q2 16 -2.5 20.5t-11.5 9.5q-8 2 -16 2h-25q8 -8 8 -28q-1 -12 -4 -20t-6 -13l39 -4q3 3 10 11t8 22zM392 115q0 -2 -4 -6l-14 0.5t-34.5 1t-44.5 1.5t-44 1.5t-33.5 1l-13.5 0.5q-35 1 -66 2.5t-52 4.5q-4 4 -4 6v25q0 6 4 6l228 11l72 -6q4 0 4 -3z
M382 118l-1 39l-63 4l4 -41z" />
    <glyph glyph-name="degree" unicode="&#xb0;" horiz-adv-x="329" 
d="M129 384q6 2 15.5 14.5t4.5 37.5q-5 20 -17.5 26.5t-22.5 6.5l-13 -6q-8 -4 -8.5 -19.5t1.5 -22.5q3 -14 9 -21.5t12.5 -11t11.5 -4t7 -0.5zM297 430q6 -40 -13 -66.5t-44 -34.5q-10 -3 -29.5 -4t-39.5 -1q-19 0 -33 0.5t-21 -0.5q-7 0 -17.5 5t-18.5 9q-19 14 -30 36.5
t-12 44.5q1 33 12 51.5t25 28t27 12t18 2.5h5.5t12.5 -1q9 0 21 -0.5t23.5 -1t20.5 -1t12 -1.5q6 -1 18 -5t25 -13t24 -23.5t14 -36.5zM236 337q22 8 39 32t12 60q-3 19 -12.5 32.5t-21 21.5t-22.5 11.5t-17 3.5q-5 2 -20.5 3t-32.5 1q17 -8 31 -29q11 -17 15 -44t-4 -52
q-11 -31 -42 -44q19 0 41.5 0.5t33.5 3.5z" />
    <glyph glyph-name="registered" unicode="&#xae;" horiz-adv-x="536" 
d="M547 366q13 -43 10 -91.5t-21 -94.5q-18 -48 -49.5 -81t-59.5 -46q-22 -10 -49 -14.5t-54 -5.5t-51.5 0.5t-40.5 4.5q-44 5 -78.5 22.5t-60 43t-41.5 56.5t-22 64q-27 162 70 241q17 13 34.5 21.5t33 13.5t27 7t17.5 4q16 1 46 2.5t65.5 0t71.5 -8t64 -22.5
q21 -11 46 -37t42 -80zM527 182q18 45 20.5 92.5t-9.5 89.5q-8 28 -20 47.5t-24.5 32t-23.5 19.5t-17 11q-30 17 -72 24t-81 7q36 -9 66.5 -30t49.5 -52q26 -43 35.5 -96t1.5 -110q-3 -20 -13.5 -47t-28.5 -52.5t-43.5 -46.5t-57.5 -29q30 0 60.5 3.5t53.5 14.5
q13 6 27.5 18t29 28t26.5 35.5t20 40.5zM87 279q0 -51 18 -88.5t41 -60.5v96q-8 4 -10 20.5t-0.5 35t4.5 34.5t6 20v85q-23 -19 -35 -43.5t-17.5 -46t-6 -36.5t-0.5 -16zM396 353q-3 18 -15.5 36t-32.5 26q-13 5 -29 7t-33 4q28 -11 42 -24q35 -32 26 -88
q-4 -22 -15.5 -36.5t-19.5 -22.5l42 6q4 3 19 18q9 10 15 28t1 46zM354 117q5 5 7 8t8 11l-22.5 -7.5t-11 -3.5t-5 -1h-3.5q-1 0 -10.5 13t-21.5 29t-22.5 30.5t-14.5 18.5t-6.5 5.5t-8.5 1.5q0 -30 -0.5 -51t-2.5 -26q-2 -3 -2 -6t-2 -5q3 -2 14 -7.5t27 -9.5
q20 -5 38.5 -4.5t38.5 4.5zM383 152q5 7 8.5 14.5t8.5 16.5l-44 69l-41 -6zM196 97q33 -11 69 -11q42 0 74 20q-15 -3 -30.5 -2t-33.5 4q-16 5 -27 10.5t-16 7.5q-2 -4 -5 -7t-10 -3.5t-14 0t-12.5 1l-5.5 0.5q-6 0 -14.5 1t-13.5 3q10 -8 19.5 -14.5t19.5 -9.5zM210 279
q5 2 12.5 3.5l17.5 3.5l5 86l-29 20zM404 194q8 24 10.5 53t-5.5 65q0 5 -2 9q-2 -17 -7.5 -28.5t-12.5 -18.5q-7 -8 -12.5 -13t-9.5 -8zM203 167q-3 -34 -7 -42h16q8 0 9 1q5 3 6.5 8t3.5 13q1 4 2 27.5t1 45.5q-7 -2 -15 -4.5t-12 -4.5q0 -5 -1 -17.5t-3 -26.5zM284 334
q3 10 2 17t-4 13q-7 4 -15.5 4.5t-13.5 0.5l-4 -79q1 1 6.5 4t11 8t10.5 13t7 19zM201 452q-11 -3 -20.5 -8t-18.5 -10q13 2 32 2.5t37 0.5h16q13 8 27 11.5t26 3.5q-20 5 -46.5 6.5t-52.5 -6.5zM358 423q-17 10 -30 20q-1 0 -7.5 0.5t-15.5 0.5q-8 0 -18.5 -1.5t-20.5 -5.5
q19 -1 43 -3t41 -10q2 0 3.5 -0.5t4.5 -0.5zM264 384q-11 6 -21.5 8t-18.5 3l25 -17h14t10 -1q-3 1 -5 3zM146 301q-4 -13 -3.5 -27.5t3.5 -21.5v49z" />
    <glyph glyph-name="copyright" unicode="&#xa9;" horiz-adv-x="538" 
d="M375 202q1 -4 -5.5 -16.5t-16.5 -26t-22 -25t-22 -13.5l59 3q12 14 22.5 32.5t15.5 43.5zM401 332q-6 20 -14 35t-16 26l-35 5q5 -12 3 -31t-15 -29zM301 332q-14 2 -29 3t-29 -2t-26.5 -10.5t-21.5 -21.5q-13 -19 -13.5 -45t9.5 -42q6 -9 15 -18t20.5 -14.5t25 -5
t27.5 10.5q-15 4 -25.5 14.5t-15.5 24.5t-4 30t10 32q11 20 28.5 30t28.5 14zM408 209q0 3 1 4.5t1 4.5l-67 3l30 -10zM412 225q3 22 -0.5 48t-8.5 50l-87 6q-1 0 -8.5 -2.5t-17.5 -8t-20 -14t-16 -20.5q-10 -19 -10 -34q0 -27 15.5 -39.5t29.5 -18.5q12 10 17.5 16.5
t7.5 10.5l3 6t3 4zM325 433q-19 10 -53 14.5t-72 -6.5q-37 -12 -60 -32t-35.5 -45.5t-17 -54t-4.5 -56.5q1 -38 16.5 -70t40 -56t56.5 -37.5t66 -13.5q39 0 65 13q14 7 33 26l-105 -7q-21 1 -47 7t-48 28q-14 14 -22.5 31t-13.5 34t-6.5 33t-1.5 27q1 38 18 71t46 52
q14 9 29.5 14t36.5 6.5t49.5 -0.5t68.5 -7q-10 10 -19.5 17t-19.5 12zM554 316q3 -30 -1 -63.5t-13.5 -65t-23.5 -58.5t-31 -45q-20 -17 -43.5 -29t-47.5 -19.5t-47 -10.5t-43 -3q-48 0 -94 10.5t-84 34t-64 60t-35 87.5q-11 69 1.5 124t44.5 92.5t83 56.5t118 16
q15 0 37 -1t44.5 -2.5t42.5 -5t32 -7.5q19 -7 40 -22t38.5 -37t30 -50.5t15.5 -61.5zM478 91q17 17 30.5 43t22.5 56.5t12.5 62.5t0.5 61q-5 48 -27.5 85.5t-51.5 57.5q-21 14 -38 21q-19 7 -52.5 9.5t-63.5 4.5q36 -11 62.5 -33.5t44 -52t26.5 -64.5t10 -72q1 -34 -6 -70.5
t-25 -69.5t-46.5 -59.5t-69.5 -38.5q22 2 46 5.5t46.5 10t43 17t35.5 26.5z" />
    <glyph glyph-name="Euro" unicode="&#x20ac;" horiz-adv-x="451" 
d="M189 187q43 -51 63 -62q18 -9 32.5 -12t15.5 -3q14 16 19.5 30t5.5 15q0 3 6 5l68 33q1 1 5 -1l39 -21q4 -3 2 -8q-6 -22 -13 -43q-7 -18 -16 -37t-21 -33q-23 -27 -45 -45t-45.5 -27.5t-51 -10.5t-62.5 6q-36 7 -62 31t-43.5 57.5t-28 73t-16.5 79.5l-74 25
q-8 9 -12.5 15.5t-4.5 15.5q0 3 4 6.5t16 9.5l74 -11l1 25l-75 29q-7 8 -12 15t-5 15q0 3 4 7t16 10l82 -13q31 112 43 128q36 48 90 69t109 21q49 0 78.5 -12t28.5 -49q0 -20 -4.5 -35t-9.5 -25.5t-9.5 -16t-5.5 -5.5q-3 -2 -15 -7t-27 -11t-30 -12.5t-24 -10.5
q-5 -2 -13 -8t-17 -14.5t-18.5 -17.5t-16.5 -17q27 0 108 -3q-2 -29 0 -58l-67 -16q-20 5 -36 8.5t-29 5.5l-9 -13l135 -21l3 -54l-67 -16zM112 199q3 -4 7.5 -16.5t11 -28t15.5 -32.5t20 -30q15 -15 32.5 -22t38.5 -4q15 2 28.5 11t28.5 22q-17 2 -32 6q-8 3 -15.5 6.5
t-18 12t-26 23.5t-38.5 41zM395 520q-2 15 -7.5 24t-10.5 12l-2 -1q-2 0 -9.5 -2t-17 -5l-19 -6t-15.5 -5q4 -7 4.5 -24.5t-2.5 -37t-9.5 -37t-16.5 -24.5q10 4 23.5 9t25 10.5t20 9.5t10.5 6q3 3 14.5 21.5t11.5 49.5zM373 124q0 -8 -6 -30.5t-23 -49.5q-24 -36 -52 -49
t-48 -19q44 -4 80.5 21.5t63.5 60.5q9 11 16 24.5t12.5 27t10 25.5t7.5 21zM198 341q59 60 76 68q-15 7 -36 5q-19 -2 -30 -5.5t-20.5 -11.5t-20 -21t-28.5 -32zM258 272l56 15l-2 40l-51 -13zM255 182l56 15l-2 40l-51 -13zM428 166l-27 14l-61 -29l29 -17zM292 240
l-120 13l-57 -2l136 -20zM360 564q-7 2 -22 3.5t-33.5 1.5t-38.5 -2.5t-38 -7.5q29 0 50.5 -5t26.5 -7q4 2 22 7.5t33 9.5zM174 281l-57 10l-2 -31l49 5zM300 331l-164 2l75 -10l42 -3zM0 368l52 -16l2 6zM-3 276l45 -15l1 6z" />
    <glyph glyph-name="sfthyphen" unicode="&#xad;" 
d="M372 203q0 -3 -4 -3q-1 0 -13 -1.5t-32.5 -3t-48 -2t-60.5 0.5q-52 2 -72 6.5t-22 4.5l-78 37q-3 1 -3 4v33q0 5 3 5l220 11q7 0 9 -1l95 -30q4 -1 4 -6zM215 203q42 -1 75.5 0t53.5 4l-77 24q-23 -1 -48.5 -1t-51.5 0.5t-50.5 2t-44.5 3.5l34 -15q9 -3 17.5 -6
t20.5 -5.5t29 -4t42 -2.5zM271 238l92 -27l-2 46l-90 27v-46z" />
    <glyph glyph-name="macron" unicode="&#xaf;" horiz-adv-x="383" 
d="M321 447q0 -3 -3 -3q-2 0 -40 -2t-95 0q-45 2 -62.5 4.5t-22.5 4.5l-68 40v33q0 5 3 5q73 4 112.5 6.5t58.5 3.5t22.5 1h4.5l85 -31q3 -2 3 -7zM184 451q37 -1 66 -2t47 2l-68 24q-20 -1 -42 -1t-44.5 0.5t-43.5 2t-38 3.5l40 -22q8 -2 23.5 -3.5t59.5 -3.5zM233 482
l80 -27l-2 46l-78 28v-47z" />
    <glyph glyph-name="acute" unicode="&#xb4;" horiz-adv-x="224" 
d="M124 635q45 -22 48 -27l52 -75q-52 -33 -80 -51.5t-41.5 -27t-16.5 -10.5l-3 -2q-3 -1 -7 1l-39 24l-27 22zM82 450l131 84l-37 20l-132 -83zM165 605l-37 18l45 -60l37 -21z" />
    <glyph glyph-name="cedilla" unicode="&#xb8;" horiz-adv-x="309" 
d="M69 49l100 -43l-8 -25q11 -4 27.5 -11.5t33.5 -21.5q4 -3 6.5 -10.5t4.5 -15.5q4 -24 -6 -46.5t-24.5 -39.5t-28 -27.5t-14.5 -11.5q-2 -1 -5 -1q-43 16 -68.5 28t-30.5 17q-4 4 -2 6q1 1 8 10.5t15 22t15 27.5t8 27q-3 2 -6.5 4t-10 5.5t-18 11t-31.5 21.5
q-1 1 -1.5 2.5t1.5 5.5l7 12zM223 -80q-4 16 -12 25l-21 10.5t-22 9.5l6 -17q6 -23 -4.5 -44t-25.5 -38q-18 -20 -41 -38q12 -5 25.5 -10.5t27.5 -10.5q5 3 18 14t25.5 26.5t20.5 34.5t3 38zM99 3q8 -1 17 -4q8 -2 17 -5.5t18 -8.5l5 14l-50 22zM99 -54q-5 16 -21 23t-29 9z
" />
    <glyph glyph-name="afii10023" unicode="&#x401;" horiz-adv-x="485" 
d="M483 63q0 -3 -3 -6q-38 -12 -66 -20.5t-62 -16.5q-26 -6 -55 -10t-58 -5.5t-57 -0.5t-51 3q-6 1 -10.5 1t-5.5 5l-19 155l-59 13q-5 1 -5 5l-11 82q0 4 3 5l57 11q-6 66 -10.5 107.5t-7.5 53.5q-1 3 -1 6t5 5q28 9 50 16.5t40.5 13t35.5 9t35 6.5q22 3 48.5 4t62.5 2
l70 -12q5 -2 7 -18t0 -32q-3 -22 -40 -29l-140 -32l7 -66q5 0 29 4.5t50 6.5l74 -15q4 -4 4 -6l3 -74q3 -3 -3 -3l-138 -35l5 -78q8 0 20.5 2t26.5 5l44 10t34 9l83 -13q4 -3 4 -6zM352 634q9 0 22 -5t18 -19q7 -17 2.5 -35.5t-17.5 -26.5q-5 -3 -14.5 -5t-20 -3.5t-20.5 -2
t-16 -0.5q-17 0 -35.5 7t-21.5 24q-6 31 7 49t33 19q31 -1 46 -1.5t17 -0.5zM183 641q10 -1 22.5 -6t17.5 -18q6 -17 2 -35.5t-17 -26.5q-5 -3 -14.5 -5t-20 -3.5t-20.5 -2t-16 -0.5q-17 0 -35.5 7t-21.5 24q-6 31 7 49t33 19q31 -1 46 -1.5t17 -0.5zM192 114q22 0 39 1
t27 1l-5 78l-70 9zM227 384l-61 8l7 -85l61 11zM288 18q26 3 54.5 9.5t54 13.5t46 13.5t29.5 9.5l-74 9q-40 -21 -83 -33q-36 -11 -71 -16.5t-67 -9.5q23 -2 52.5 -1t58.5 5zM324 251l68 -9l-1 63l-69 15zM473 73l-3 49l-74 11q2 -12 2 -23.5t2 -26.5zM319 627
q10 -7 16.5 -18t7.5 -22.5t-3 -22.5t-14 -18q14 2 27 3t19 6q9 7 13.5 23t-0.5 28q-3 7 -8 10.5t-10 5.5q-6 2 -13 3zM409 447q2 10 -1 22t-5 17l-60 11q11 -44 1 -59l55 -3q7 4 10 12zM150 634q10 -7 16.5 -17.5t8 -22.5t-2.5 -22.5t-14 -17.5q12 1 25.5 2t19.5 6
q9 7 13.5 23t-0.5 28q-3 7 -8 10.5t-10 5.5q-6 2 -13 3zM321 242q-11 -3 -28.5 -8t-36 -9.5t-35 -9t-25.5 -5.5l60 -7l120 31zM385 428l-54 3q-23 -5 -60 -11.5t-88 -20.5l47 -5l144 31zM56 186l38 -7l-2 13z" />
    <glyph glyph-name="afii10052" unicode="&#x403;" horiz-adv-x="400" 
d="M416 501q9 -20 6.5 -32t-13.5 -21q-11 -8 -38 -13t-57.5 -8t-58 -5t-38.5 -4q1 -11 6.5 -44t11.5 -72t11.5 -77t7.5 -59q2 -25 0 -51t-7 -51q-1 -7 -9.5 -12t-19 -8.5t-21.5 -5.5t-18 -4q-11 0 -16 0.5t-10 1.5l-19 2q-24 3 -36.5 12.5t-12.5 13.5l-15 196
q-3 39 -5.5 77.5t-5 71.5t-4.5 57.5t-4 34.5q0 2 -0.5 4t3.5 3l15 3q14 4 40.5 8.5t46.5 6.5q21 3 33.5 4t24.5 1q9 1 23 1t31 -1t35 -3t34 -5q28 -6 44 -10t24 -7t9.5 -4zM168 42q29 2 49 9t22 13q3 17 4.5 41t-0.5 61q-1 15 -3.5 39t-6.5 51t-8.5 55t-8.5 51.5t-7 39.5
t-4 20l-64 19q6 -31 10.5 -59t8.5 -50q5 -22 6 -34q2 -12 8 -47.5t10 -80.5q5 -43 5.5 -66.5t-1.5 -31.5q0 -9 -3 -15.5t-17 -14.5zM227 752q18 -9 27.5 -14t14 -7.5t5.5 -3.5t1 -2l52 -75q-52 -33 -80.5 -51.5t-42.5 -27.5t-17 -11l-3 -2q-5 -2 -5 2l-39 24l-27 22z
M185 567l131 84l-37 20l-132 -83zM209 429q16 0 40 1.5t50.5 4t50.5 6t40 7.5l-57 15q-3 -1 -12.5 -3t-22.5 -4t-27.5 -4t-27.5 -4q-19 0 -30.5 -1t-19.5 -1.5t-15.5 -1t-17.5 -0.5zM401 456q8 5 10.5 14.5t-2.5 26.5q-3 0 -22 5t-42 10q0 -17 -2 -26.5t-2 -14.5zM268 722
l-37 18l45 -60l37 -21z" />
    <glyph glyph-name="afii10053" unicode="&#x404;" horiz-adv-x="441" 
d="M297 103q22 -19 45 -31.5t43 -20t33.5 -11t15.5 -3.5l-10 -49q-4 0 -29.5 -0.5t-61.5 1.5t-76.5 9.5t-73.5 22.5q-5 2 -9.5 5t-9.5 6q-24 10 -46.5 26t-41.5 39.5t-33.5 55t-21.5 73.5q-9 52 -1.5 91.5t23 68.5t36.5 48.5t39 31.5q14 9 36.5 16t46 11.5t43.5 8t29 5.5
q8 -1 21.5 -3.5t26.5 -5.5t23.5 -6t12.5 -3l11 -81q-2 -1 -23.5 -6t-47.5 -18t-49.5 -34.5t-29.5 -55.5q20 3 31.5 5t16.5 3t6.5 1h2.5l82 -16q4 0 4 -3l17 -70q0 -6 -4 -6l-123 -33q-1 0 -3 0.5t-13 2.5q13 -26 26.5 -40.5t35.5 -34.5zM208 293q4 30 21 51.5t39 35.5
t43.5 22.5t35.5 11.5l-69 11q-11 -2 -34.5 -9.5t-47.5 -23t-43 -39.5t-20 -59q-1 -39 5.5 -67t18 -48t26.5 -35t32 -30q21 -18 43 -30.5t40.5 -20t32 -11t17.5 -4.5l29 -5q-20 8 -42.5 20.5t-44.5 31.5q-12 10 -21.5 19t-17.5 19t-15 21.5t-14 27.5l-51 13l-30 87zM348 480
q-5 1 -14.5 3.5t-20.5 5t-21.5 5t-16.5 3.5l1 -8q1 -6 2 -19t5 -36l73 -11zM278 292l14 -55l73 -13l-13 54zM360 215l-70 11l-100 -26l59 -15zM421 25l-74 13l-4 -23l73 -14zM332 7q-8 -1 -23 -1.5t-35 0.5q28 -5 54.5 -6.5t46.5 -1.5q-16 3 -24.5 5t-12.5 2.5t-5 1z" />
    <glyph glyph-name="afii10054" unicode="&#x405;" horiz-adv-x="450" 
d="M443 464l-5 -3l-93 -34q-4 -2 -7 -0.5t-5 3.5q-3 2 -7 4t-13 5q-4 -3 -14 -13.5t-10 -25.5q1 -8 13.5 -25.5t28.5 -38t33 -40.5t27 -32q8 -9 19 -23t22 -33.5t20.5 -44t13.5 -52.5q1 -8 2 -24.5t-2.5 -38t-15 -45t-35.5 -45.5q-37 -34 -87.5 -46.5t-96.5 -13t-79 4.5
t-36 6q-28 8 -55.5 17.5t-51.5 19t-42.5 19t-28.5 17.5q-7 6 -9 16.5t-0.5 23t6 25t10.5 20.5q14 20 34 27.5t34 5.5l113 7q5 -3 15.5 -10.5t23.5 -13.5t26.5 -9t24.5 2q13 13 17 32t1.5 38.5t-9.5 36.5t-15 27q-24 28 -53.5 67t-50.5 81t-27 85t17 80q16 26 37 37.5
t42 19.5q1 1 18 5t41.5 8t54 5t56.5 -5t51.5 -14.5t43.5 -16.5t30.5 -14.5t13.5 -7.5q4 -2 2 -6zM457 109q-5 33 -14.5 56.5t-20 41t-21 29.5t-18.5 22q-19 23 -37 45.5t-32 41t-23.5 33t-10.5 22.5q0 15 8.5 26t15.5 16q-12 4 -27 7.5t-29 4.5t-27 -0.5t-22 -7.5
q-15 -11 -15.5 -29t8.5 -40t25 -46t33 -46.5t33 -41.5t25 -31t19 -31.5t16.5 -43t8 -50t-6.5 -51.5q-17 -57 -62 -88.5t-111 -37.5q12 -1 25.5 -1.5t29.5 -0.5q45 0 95 12t87 46q35 34 45 68t3 75zM472 538q-16 7 -51 22t-78 24q-31 6 -65 4t-60 -8q42 -3 87 -18t86 -51z
M208 67q-9 -2 -21.5 1t-24.5 8t-22 11t-14 11l-102 -7q9 -7 21.5 -16t27.5 -17t31.5 -13.5t32.5 -5.5q22 0 39.5 7.5t31.5 20.5zM392 503q-17 -26 -26.5 -40.5t-15.5 -22.5l85 30l37 59z" />
    <glyph glyph-name="afii10055" unicode="&#x406;" 
d="M386 439q9 -23 4.5 -40t-17.5 -26.5t-32 -12.5t-40 2l-33 -212q5 0 14.5 -0.5t19.5 -1.5t19 -2t13 -2q8 -2 17 -5.5t14 -9.5q8 -10 12 -22.5t1 -26.5q-6 -24 -10.5 -31.5t-6.5 -9.5q-2 0 -90 -6q-119 17 -175 26t-66 11q-5 1 -4 1t1 5t1.5 18t3.5 43q1 5 1 8t5 4
q28 4 46 6t42 4l24 228q-42 5 -58.5 7.5t-15.5 3.5q-1 0 -1 4q0 12 1.5 26t3.5 37q0 3 4 3q78 0 120.5 -0.5t62.5 -0.5t24 -0.5t6 -0.5l82 -20q2 0 4 -2.5t3 -4.5zM199 141l58 9l35 216l-54 12zM369 82q4 24 -10 43l-75 -3q5 -8 6.5 -20.5t-0.5 -23.5q0 -2 -2 -13.5
t-7 -19.5l75 3q4 6 7.5 14.5t5.5 19.5zM301 455q10 -23 2 -46q-6 -22 -26 -30l39 -9q15 -4 30 -0.5t24.5 13t12.5 23.5t-5 31zM349 132q-10 3 -27.5 4t-57.5 6l-49 -7q17 -1 36 -2t26 -3zM125 150q-4 0 -22 -1.5t-38 -4.5q13 -1 25.5 -1h33.5z" />
    <glyph glyph-name="afii10056" unicode="&#x407;" 
d="M386 439q9 -23 4.5 -40t-17.5 -26.5t-32 -12.5t-40 2l-33 -212q5 0 14.5 -0.5t19.5 -1.5t19 -2t13 -2q8 -2 17 -5.5t14 -9.5q8 -10 12 -22.5t1 -26.5q-6 -24 -10.5 -31.5t-6.5 -9.5q-2 0 -90 -6q-119 17 -175 26t-66 11q-5 1 -4 1t1 5t1.5 18t3.5 43q1 5 1 8t5 4
q28 4 46 6t42 4l24 228q-42 5 -58.5 7.5t-15.5 3.5q-1 0 -1 4q0 12 1.5 26t3.5 37q0 3 4 3q78 0 120.5 -0.5t62.5 -0.5t24 -0.5t6 -0.5l82 -20q2 0 4 -2.5t3 -4.5zM199 141l58 9l35 216l-54 12zM358 592q9 0 22 -5t18 -19q7 -17 2.5 -35.5t-17.5 -26.5q-5 -3 -14.5 -5
t-20 -3.5t-20.5 -2t-16 -0.5q-17 0 -35.5 7t-21.5 24q-6 31 7 49t33 19q31 -1 46 -1.5t17 -0.5zM189 599q10 -1 22.5 -6t17.5 -18q6 -17 2 -35.5t-17 -26.5q-5 -3 -14.5 -5t-20 -3.5t-20.5 -2t-16 -0.5q-17 0 -35.5 7t-21.5 24q-6 31 7 49t33 19q31 -1 46 -1.5t17 -0.5z
M369 82q4 24 -10 43l-75 -3q5 -8 6.5 -20.5t-0.5 -23.5q0 -2 -2 -13.5t-7 -19.5l75 3q4 6 7.5 14.5t5.5 19.5zM301 455q10 -23 2 -46q-6 -22 -26 -30l39 -9q15 -4 30 -0.5t24.5 13t12.5 23.5t-5 31zM325 585q10 -7 16.5 -18t7.5 -22.5t-3 -22.5t-14 -18q14 2 27 3t19 6
q9 7 13.5 23t-0.5 28q-3 7 -8 10.5t-10 5.5q-6 2 -13 3zM156 592q10 -7 16.5 -17.5t8 -22.5t-2.5 -22.5t-14 -17.5q12 1 25.5 2t19.5 6q9 7 13.5 23t-0.5 28q-3 7 -8 10.5t-10 5.5q-6 2 -13 3zM349 132q-10 3 -27.5 4t-57.5 6l-49 -7q17 -1 36 -2t26 -3zM125 150
q-4 0 -22 -1.5t-38 -4.5q13 -1 25.5 -1h33.5z" />
    <glyph glyph-name="afii10057" unicode="&#x408;" horiz-adv-x="472" 
d="M504 373q-2 -23 -10 -39t-8 -18h-10q-24 -1 -49 -0.5t-50 0.5q0 -10 -1.5 -38.5t-4.5 -65t-7.5 -75t-10.5 -67.5q-18 -94 -62.5 -138t-132.5 -38q-33 2 -59 6.5t-51.5 15.5t-52.5 31t-61 55q0 5 1 15t6 22t15 23.5t27 18.5q5 2 8 -2q18 -30 39 -44.5t41 -19.5t36 -3.5
t23 4.5q6 3 16 10.5t21 25t22.5 47t20.5 75.5q6 32 11 73.5t7 94.5q-27 3 -52.5 6t-45 5.5t-31.5 4.5t-14 2q-5 1 -3 6q5 17 7 35t4 26q1 4 6 4q17 1 54.5 2.5t78 3t75 3t46.5 1.5l131 -16l4.5 -4.5t7.5 -10t6.5 -16t1.5 -21.5zM344 72q6 30 10.5 69t7.5 75.5t4.5 64.5
t1.5 36l-60 13q-4 -37 -8 -88.5t-12 -104.5q-8 -56 -23 -105t-41 -78q-15 -17 -39 -31t-53 -19q8 -1 16.5 -1.5t18.5 -0.5q40 0 69 8.5t49.5 28.5t34.5 52.5t24 80.5zM495 373q2 19 -5 29.5t-10 13.5l-114 17q12 -19 10.5 -44t-10.5 -45l114 -20q3 5 8 18.5t7 30.5zM323 335
l50 -10h46l-59 10h-37z" />
    <glyph glyph-name="afii10058" unicode="&#x409;" horiz-adv-x="775" 
d="M607 366q26 -3 57.5 -14t60.5 -40q19 -19 28.5 -41.5t12.5 -43.5t2.5 -36.5t-1.5 -21.5q-16 -111 -106 -154q-38 -17 -70.5 -18.5t-52.5 1.5l1 -20q0 -6 -4 -6l-62 -12q-4 0 -6 1l-73 28l-16 409h-18q-1 -8 -1 -24t-1 -33q-1 -19 -2 -41q0 -2 -2 -24.5t-6 -53.5
t-11.5 -64t-19.5 -55q-47 -92 -121 -115q-18 -5 -47 -2.5t-56 7.5t-47.5 10.5t-22.5 5.5q-4 2 -5 4l-5 119q29 -5 57 4q24 7 49.5 27.5t44.5 64.5q16 40 26 85t15 86t7 72t2 43l233 8q9 0 11 -1l64 -30q3 -2 3 -4l6 -117q16 3 26 3h9q8 -1 18.5 -2t22.5 -5zM308 108
q11 22 18.5 54.5t11.5 63t5.5 52.5t1.5 23l5 99l-55 29q-2 -38 -6.5 -84.5t-12.5 -92t-19.5 -86t-28.5 -65.5q-18 -27 -41.5 -44t-48 -26.5t-47.5 -13t-40 -4.5q14 -4 33 -8t39 -7t38.5 -3.5t31.5 3.5q69 21 115 110zM756 170q2 15 2 32.5t-4.5 35.5t-13 35t-22.5 31
q-18 18 -37.5 28.5t-38.5 15.5q16 -11 28 -30.5t17 -51.5q7 -54 -8.5 -106t-56.5 -89q-17 -15 -38 -26q-18 -10 -43.5 -16.5t-57.5 -4.5q16 -5 26.5 -8.5t23.5 -5.5q7 -2 19.5 -3.5t29 -0.5t35.5 5t40 14q84 40 99 145zM469 350q15 7 28 11t24 7l-6 115l-52 24zM522 224
q-18 9 -28.5 14.5t-16 8t-7 3.5l-1.5 1l1 -140q17 -3 31.5 -0.5t23.5 5.5zM536 120q1 1 2 1t2 1q1 0 1 1q14 8 30 28.5t19 48.5l-8 8t-9 6q-12 6 -23 7.5t-17 0.5zM580 245q-5 8 -13 13t-17 7.5t-17.5 4t-12.5 1.5q-6 0 -13 -1q-6 -1 -13.5 -3.5t-16.5 -6.5l51 -28
q5 1 19 0.5t31 -8.5l12 -9q-3 17 -10 30zM471 -30l42 8q-21 7 -32 10.5t-16.5 5.5t-7 2.5l-1.5 0.5l-40 -5zM378 408l-1 23h-20l-50 3l50 -26h21zM528 0q-2 0 -4.5 1t-8.5 2.5t-17 4.5t-30 9l-2 -13l62 -20v16z" />
    <glyph glyph-name="afii10059" unicode="&#x40a;" horiz-adv-x="643" 
d="M412 326q7 0 29 -1.5t49 -7t54.5 -17t46.5 -31.5q47 -50 39 -129q-2 -16 -7.5 -37.5t-16 -43t-27.5 -40t-41 -28.5q-29 -12 -55 -16t-46.5 -3.5t-33.5 3.5t-14 3l-117 37q-2 2 -2 4v4l-6 175h-28q-2 -14 -3.5 -23t-3.5 -20q-11 -55 -28.5 -91.5t-43.5 -60.5
q-15 -12 -35.5 -14t-39.5 1t-33 8t-15 6q-16 4 -23 18q17 21 31 48q12 23 22.5 57.5t12.5 80.5q2 31 2.5 79t1.5 93q1 53 1 110q19 8 48 6.5t52 -12.5l61 -36q2 -2 2 -4l-1 -128q4 1 7.5 1.5t8.5 0.5q1 36 1 65v49q0 24 -1 42q-1 0 5.5 3.5t19 7t30.5 5t40 -2.5l56 -30
q3 -2 3 -4zM453 128q10 26 7 45q-4 5 -11.5 9t-15.5 6t-15 3t-10 1v-99q14 4 26 12t19 23zM345 89q8 0 22 -0.5t31 2.5v103l-50 29zM433 212q-10 7 -29 10t-41 4l41 -24q5 0 19 -1t30 -9q-4 5 -8.5 10t-11.5 10zM355 476l-4 -151q13 2 25.5 2t24.5 -1l2 124zM184 472v-167
q13 3 24.5 5t25.5 4l1 127zM150 11q26 23 42 57.5t27 88.5q2 11 3.5 20t3.5 22l-47 27q-4 -40 -16 -83t-25 -69q-14 -26 -36 -46t-38 -23q20 -5 45 -6.5t41 12.5zM264 208v21q-23 1 -37.5 0.5t-32.5 -0.5l37 -21h33zM620 141q8 75 -37 121q-19 20 -47.5 31t-56.5 16
q16 -8 30.5 -19.5t25.5 -28t16.5 -38t4.5 -49.5q-4 -72 -43.5 -113.5t-105.5 -46.5q-11 -1 -24.5 -1t-27.5 1t-28 1.5t-25 1.5q13 -5 28.5 -9.5t29.5 -9.5l32 -10q20 -5 44 -6q20 -1 45.5 2.5t52.5 15.5q22 10 38 28t26 38t15 40.5t7 34.5z" />
    <glyph glyph-name="afii10060" unicode="&#x40b;" horiz-adv-x="502" 
d="M438 -71q-3 -2 -6 0q-23 9 -35.5 14t-18 7t-7 3l-1.5 1l-22 18q-9 8 -18 17t-14 17q-2 2 -7 11t-9.5 26t-6 42.5t3.5 61.5q3 17 4 32.5t-3 29.5q-5 8 -14 11.5t-18.5 4t-17 -1t-8.5 -2.5l-27 -228q0 -3 -3 -4q-1 0 -19 -6.5t-43 -1.5q-14 3 -26 9.5t-21 13.5t-14.5 12.5
t-5.5 6.5q-2 2 -2 8q14 125 22 224.5t15 168.5l-39 5q-2 -1 -8 3q-6 2 -17.5 8t-31.5 17q-2 1 -2 6l-5 61q119 -8 184 -12t95 -5l40 -2l131 -47q3 0 3 -5l-4 -60q0 -5 -6 -5l-198 19l-4 -36q14 2 23 2.5t21 0.5q1 0 16 -1t35.5 -5.5t43.5 -15.5t41 -30q15 -17 21.5 -38.5
t8.5 -42t1 -36.5t-2 -22l-6 -28q-5 -21 -9.5 -45.5t-3.5 -38.5q0 -16 3.5 -34t8 -34t8.5 -28.5t6 -16.5q2 -5 -3 -9zM340 359q14 -8 24 -22q15 -17 22.5 -40t9.5 -48t-0.5 -51t-8.5 -50t-9 -43.5t-1.5 -38.5t8.5 -38.5t21 -42.5l7 -3q5 -2 15 -6.5t29 -12.5q-5 17 -14 48.5
t-10 59.5q0 14 4.5 39t9.5 47l6 28q1 5 2 20.5t-1 34.5t-8 39.5t-20 35.5q-17 20 -41.5 29.5t-44.5 14.5zM229 222l-6 3q-5 2 -14.5 7.5t-27.5 14.5l-27 -226l50 -18zM331 495l-5 -55l126 -39l3 49zM188 353q17 6 31 10t25 6l4 42l-52 29zM216 440l43 -23l153 -15l-90 29z
M236 232q1 0 17.5 2.5t33.5 -4.5q-9 12 -22 20q-9 3 -20 5q-10 2 -23 1.5t-29 -3.5zM150 -9q14 -3 26 -1t20 5l-51 20q-14 -2 -24.5 -1t-18.5 3q9 -8 21.5 -15.5t26.5 -10.5zM403 -24q-5 -4 -11 -8l-12 -8l55 -20l20 13zM117 435l2 16l-79 8l39 -20z" />
    <glyph glyph-name="afii10061" unicode="&#x40c;" horiz-adv-x="496" 
d="M497 122q4 -6 2 -10t-9 -18.5t-35 -32.5q-14 -9 -32.5 -12.5t-35 -4.5t-29 0t-14.5 1q-7 0 -12 5q-3 3 -9 10t-16.5 19.5t-26.5 32t-38 47.5q0 -44 -1 -68t-2.5 -35t-2.5 -13.5t-2 -3.5q-34 -8 -67 -9.5t-71 4.5q-3 0 -4 4l-47 485q0 8 4 9q17 7 34.5 12t25.5 7
q7 1 21.5 1t32 -1t37 -3t37.5 -6q8 -1 8 -7l-3 -80q31 40 75 93l85 -2l1.5 -1t9 -6.5t23.5 -17t45 -32.5q4 -4 1 -7l-150 -162zM298 769q18 -9 27.5 -14t14 -7.5t5.5 -3.5t1 -2l52 -75q-52 -33 -80.5 -51.5t-42.5 -27.5t-17 -11l-3 -2q-5 -2 -5 2l-39 24l-27 22zM488 119
l-165 198l-72 -4q3 -5 12 -16.5t28.5 -34t51 -58t79.5 -87.5zM325 326l141 153h-73q-14 -15 -35 -37t-42 -44.5t-39.5 -42.5t-27.5 -33zM229 48q2 4 3 32.5t1 88.5q-14 20 -28.5 37.5t-32.5 39.5q2 -76 3 -116.5t1.5 -59t0 -22.5t-0.5 -7q14 0 28 1.5t25 5.5zM234 533
q-17 5 -36 6.5t-33 2.5q1 -20 2.5 -45.5t2.5 -49t2 -41t2 -21.5q1 -5 4.5 -3.5t8.5 6.5q3 4 10 12.5t14.5 17.5t13.5 16t8 9zM256 584l131 84l-37 20l-132 -83zM400 537l-68 2q33 -26 46 -37t15 -13h71zM450 69q18 11 28 23t12 19l-66 -2q-7 -13 -12.5 -21.5t-12 -14.5
t-14.5 -10t-20 -9q20 0 44 2t41 13zM339 739l-37 18l45 -60l37 -21z" />
    <glyph glyph-name="afii10145" unicode="&#x40f;" horiz-adv-x="459" 
d="M422 458q3 -2 3 -4q0 -4 2.5 -30.5t5.5 -66t7 -85t7 -86.5t5.5 -71.5t2.5 -39.5q1 -35 -11.5 -51t-25.5 -24q-5 -3 -21 -5.5t-35.5 -4.5t-38 -3.5t-27.5 -2.5q-2 -12 -4 -33t-13 -41q-14 -26 -28.5 -40t-15.5 -15t-5 -1q-24 5 -37.5 7.5t-20 4t-8 2l-1.5 0.5l-21 23
q5 8 10 17q4 8 8.5 18t6.5 22q2 7 2.5 13t1.5 12q-8 -1 -16 -1.5t-18 1.5q-23 2 -40 9t-29 15t-18 14.5t-7 7.5q-5 5 -10.5 11.5t-10.5 14.5q-3 5 -4.5 26.5t-2.5 52t-1.5 68.5t-0.5 76q0 90 2 201q5 -1 9 -2t9 -2.5t11 -3.5q3 -1 16 -4.5t28 -9.5t29 -12.5t19 -13.5
q10 -14 12.5 -30t2.5 -17q2 -32 5 -75.5t6 -83t5 -68t3 -31.5q1 -7 3 -10t11 -6l79 22q0 82 4 152q1 29 3 58.5t5 54t6 43t8 25.5q8 13 18 19t19 8.5t16 2t9 -0.5l1.5 -0.5t8.5 -3l21 -7.5t40 -15zM141 373q-1 7 -3 14l-4.5 13.5t-6.5 13.5q-4 5 -15 11t-25 11
q0 -1 0.5 -2.5t1 -11t1 -29t2 -55.5t3.5 -91.5t5 -135.5q1 -6 3 -10t3.5 -8t5.5 -6q7 -4 20.5 -1t36.5 10q-8 6 -10 18q0 2 -1.5 21.5t-3.5 47.5t-4.5 60.5t-4 60.5t-3 47t-1.5 22zM270 -85q8 15 11.5 28.5t4 24.5t0 19t-0.5 11l-47 13q2 -11 1 -29.5t-10 -41.5
q-10 -26 -25.5 -41t-26.5 -23l53 -11q5 4 17 17t23 33zM413 9q4 3 9.5 7t11 11.5t8.5 19t3 28.5q0 8 -2 37t-5.5 67.5t-7 82.5t-6.5 83t-5.5 67.5t-3.5 37.5l-62 23l17 -342q2 -15 2 -27q0 -11 -1 -22t-5 -19q-6 -11 -14 -16t-15 -7q-9 -3 -17 -3l-224 -30q-5 -1 -9 0
q-4 0 -9.5 1t-10.5 3q11 -8 28.5 -17t42.5 -11q20 -2 34 0q0 5 0.5 8.5t0.5 6.5v6q23 6 36 9.5t19.5 5t8 1.5h1.5l53 -13q2 -1 3 -2.5t2 -9.5q16 1 35 2.5t36 3.5t30 4t16 4z" />
    <glyph glyph-name="afii10017" unicode="&#x410;" horiz-adv-x="536" 
d="M291 431q-3 -2 -8 -7.5t-12 -16t-16 -28t-21 -43.5l57 8l13 23q-5 32 -8 45.5t-5 18.5zM291 334l-51 -5l74 -21q-1 2 -1.5 8t-1.5 11zM298 340l12 -4q-1 3 -1.5 7.5t-2.5 9.5zM530 40q-1 -2 -3 -4l-79 -8l-70 3q-6 20 -12.5 45.5t-12.5 52t-11.5 51t-8.5 42.5
q-3 1 -11 3.5t-18.5 5.5t-21.5 5.5t-20 4.5l-115 -202q-2 -2 -4 -2l-72 2l-32 28q-9 18 -12 42l152 309l74 150q2 2 3 2q1 1 109 -2l76 -10q4 0 4 -4zM141 46l112 197q-12 3 -25.5 5.5t-27.5 4.5q-2 -4 -10.5 -18.5t-20.5 -35t-26 -44t-27 -45t-22.5 -38.5t-13.5 -24z
M369 558l83 -520l68 6l-85 505z" />
    <glyph glyph-name="afii10018" unicode="&#x411;" horiz-adv-x="448" 
d="M357 307q77 -47 77 -133q0 -35 -8 -61t-21 -45.5t-28 -33t-29 -22.5q-19 -12 -45 -18.5t-55 -9t-57.5 -1.5t-52 3t-38.5 4.5t-17 2.5q-8 1 -16.5 3.5t-16.5 4.5l-32 483q54 12 102 18t84 8q42 3 79 1l76 -32q3 -2 3 -4l4 -48q0 -6 -5 -6l-199 -27l7 -61q17 2 29 2h22h26
t35 -3t38.5 -9t37.5 -16zM342 20q13 9 27.5 22t26.5 31t19.5 43t7.5 58q0 81 -72 124q-20 12 -42.5 17.5t-43.5 7.5q14 -6 29 -16.5t28 -27.5t22.5 -41.5t12.5 -58.5q3 -24 -5 -51t-23.5 -51.5t-39 -44t-51.5 -29.5q-6 -1 -14 -3q-7 -2 -16 -3.5t-21 -2.5q42 -2 85.5 3.5
t69.5 22.5zM172 210l-60 27l12 -144q16 0 29 0.5t27 2.5zM259 188q-2 12 -6 21q-9 4 -20.5 5t-22 0.5t-18.5 -1.5t-10 -2l8 -113q8 2 15 4t15 6q12 6 20.5 16t13.5 21.5t6 23t-1 19.5zM283 450l-175 -24l49 -22l180 24zM102 322l27 4.5t29 4.5l-7 64l-58 26zM284 499l4 -41
q3 -1 12 -4.5t20 -7.5t21 -8t14 -5l-3 38zM197 251q-11 1 -23 1q-11 0 -26 -1t-32 -4l61 -28q2 2 22 5.5t45 -1.5q-16 20 -47 28z" />
    <glyph glyph-name="afii10019" unicode="&#x412;" horiz-adv-x="475" 
d="M458 205q5 -57 -11 -95.5t-54 -67.5q-25 -20 -55.5 -29.5t-61.5 -13t-60 -2t-51 3.5q-13 1 -46 6t-75 23q-5 2 -6 5t-1 6l51 514q0 3 5 3q24 2 44 2.5t39 -2.5q1 0 17 1t38 0.5t46.5 -3t42.5 -9.5q65 -23 82 -90q5 -19 5 -42t-5 -45q-4 -18 -11 -32.5t-18 -21.5
q24 -9 40 -22t25.5 -28t14 -30.5t5.5 -30.5zM388 50q35 28 50 64.5t10 90.5q-6 78 -81 104l-5 2l-72 4q15 -7 31 -22t29 -36t21 -46.5t7 -53.5q-2 -21 -12 -44t-26.5 -43.5t-38.5 -36.5t-48 -24q33 2 70.5 11t64.5 30zM319 369q-10 -25 -30 -46l72 -4l1 1q11 5 20 21.5
t14 40.5q6 34 -3 73q-7 29 -27 50.5t-50 32.5q-18 6 -45.5 9.5t-52.5 3.5q40 -8 65 -26.5t37 -44.5q8 -13 10.5 -28.5t1.5 -30.5q-2 -28 -13 -52zM200 140q21 -7 35 -4t26 8q16 23 12.5 47.5t-20.5 42.5q-19 19 -46 25zM134 126l56 14l7 121q-11 2 -21.5 3.5t-28.5 3.5z
M152 359q20 0 28.5 0.5t13.5 2.5q4 5 6.5 33.5t6.5 87.5q-2 2 -13.5 6t-32.5 7zM209 373q10 7 16 21t7.5 29.5t-2.5 29.5t-13 22zM217 114q11 2 19 7t14 10q-15 -5 -27.5 -4t-26.5 6l-59 -16q18 -3 32.5 -3.5t25.5 -0.5q12 0 22 1z" />
    <glyph glyph-name="afii10020" unicode="&#x413;" horiz-adv-x="400" 
d="M416 501q9 -20 6.5 -32t-13.5 -21q-11 -8 -38 -13t-57.5 -8t-58 -5t-38.5 -4q1 -11 6.5 -44t11.5 -72t11.5 -77t7.5 -59q2 -25 0 -51t-7 -51q-1 -7 -9.5 -12t-19 -8.5t-21.5 -5.5t-18 -4q-11 0 -16 0.5t-10 1.5l-19 2q-24 3 -36.5 12.5t-12.5 13.5l-15 196
q-3 39 -5.5 77.5t-5 71.5t-4.5 57.5t-4 34.5q0 2 -0.5 4t3.5 3l15 3q14 4 40.5 8.5t46.5 6.5q21 3 33.5 4t24.5 1q9 1 23 1t31 -1t35 -3t34 -5q28 -6 44 -10t24 -7t9.5 -4zM168 42q29 2 49 9t22 13q3 17 4.5 41t-0.5 61q-1 15 -3.5 39t-6.5 51t-8.5 55t-8.5 51.5t-7 39.5
t-4 20l-64 19q6 -31 10.5 -59t8.5 -50q5 -22 6 -34q2 -12 8 -47.5t10 -80.5q5 -43 5.5 -66.5t-1.5 -31.5q0 -9 -3 -15.5t-17 -14.5zM209 429q16 0 40 1.5t50.5 4t50.5 6t40 7.5l-57 15q-3 -1 -12.5 -3t-22.5 -4t-27.5 -4t-27.5 -4q-19 0 -30.5 -1t-19.5 -1.5t-15.5 -1
t-17.5 -0.5zM401 456q8 5 10.5 14.5t-2.5 26.5q-3 0 -22 5t-42 10q0 -17 -2 -26.5t-2 -14.5z" />
    <glyph glyph-name="afii10021" unicode="&#x414;" horiz-adv-x="565" 
d="M172 -5v-48q-2 -6 -7 -6q-24 -1 -36.5 -1.5t-18.5 -0.5h-7.5h-1.5l-82 35q-3 1 -3 5l-1 108q14 8 25 16q10 7 19.5 14.5t14.5 14.5t13.5 19t19 33.5t21 53.5t19.5 78q8 39 10.5 72.5t2.5 59.5q0 30 -2 55l223 28q5 2 7 0l83 -43q3 -2 3 -4q6 -95 10.5 -161t7 -108.5
t3.5 -66t2 -34.5t1 -13.5t1 -2.5l63 -28q3 -3 2 -5l-3 -123q0 -4 -3.5 -4.5t-5.5 -1.5l-60 -3h-2q-1 0 -1 1l-81 35q-3 0 -3 3l-1 21zM385 521l17 -410l72 -2l14 -6l-24 377zM217 293q-6 -38 -20.5 -71.5t-28.5 -59.5q-17 -31 -36 -57l84 3q10 13 29 46t37 85q6 17 10 37.5
t6.5 41t4 39.5t2.5 33l-2 25l-69 21q0 -13 -3.5 -48t-13.5 -95zM471 -19l80 -31l3 112l-80 36zM404 3l-2 34l-302 3l68 -34zM310 322q-3 -23 -7.5 -45t-10.5 -41q-17 -48 -34 -79.5t-28 -47.5l94 4zM162 -45l-1 43l-81 40l2 -52zM104 -51l41 1l-71 31l-42 -1zM493 -56l40 1
l-68 27h-38zM301 452l-57 -8l59 -18z" />
    <glyph glyph-name="afii10022" unicode="&#x415;" horiz-adv-x="485" 
d="M483 63q0 -3 -3 -6q-38 -12 -66 -20.5t-62 -16.5q-26 -6 -55 -10t-58 -5.5t-57 -0.5t-51 3q-6 1 -10.5 1t-5.5 5l-19 155l-59 13q-5 1 -5 5l-11 82q0 4 3 5l57 11q-6 66 -10.5 107.5t-7.5 53.5q-1 3 -1 6t5 5q28 9 50 16.5t40.5 13t35.5 9t35 6.5q22 3 48.5 4t62.5 2
l70 -12q5 -2 7 -18t0 -32q-3 -22 -40 -29l-140 -32l7 -66q5 0 29 4.5t50 6.5l74 -15q4 -4 4 -6l3 -74q3 -3 -3 -3l-138 -35l5 -78q8 0 20.5 2t26.5 5l44 10t34 9l83 -13q4 -3 4 -6zM192 114q22 0 39 1t27 1l-5 78l-70 9zM227 384l-61 8l7 -85l61 11zM288 18q26 3 54.5 9.5
t54 13.5t46 13.5t29.5 9.5l-74 9q-40 -21 -83 -33q-36 -11 -71 -16.5t-67 -9.5q23 -2 52.5 -1t58.5 5zM324 251l68 -9l-1 63l-69 15zM473 73l-3 49l-74 11q2 -12 2 -23.5t2 -26.5zM409 447q2 10 -1 22t-5 17l-60 11q11 -44 1 -59l55 -3q7 4 10 12zM321 242q-11 -3 -28.5 -8
t-36 -9.5t-35 -9t-25.5 -5.5l60 -7l120 31zM385 428l-54 3q-23 -5 -60 -11.5t-88 -20.5l47 -5l144 31zM56 186l38 -7l-2 13z" />
    <glyph glyph-name="afii10024" unicode="&#x416;" horiz-adv-x="698" 
d="M99 36q-10 2 -26.5 8t-33.5 21q-7 6 -12 13q-5 5 -8.5 12t-3.5 12q39 35 72 61.5t59 46.5t45 34.5t30 25.5q-4 6 -23 26.5t-43.5 46.5t-49.5 52t-42 43q-14 16 -16.5 18.5t-0.5 6.5q4 5 23.5 19t53.5 40q13 2 34.5 0.5t37.5 -5.5l81 -107l2 104q0 8 4 9q12 6 20.5 11
t18.5 8.5t22 5t31 -0.5q11 -2 26.5 -4.5t38.5 -7.5q8 -1 8 -7l-34 -146q8 10 21 22.5t27.5 25.5t29 27t25.5 27h67q1 0 17.5 -11.5t53.5 -45.5q4 -4 1 -7l-12.5 -12t-35 -33t-53.5 -50.5t-68 -65.5l198 -204q4 -6 2 -10t-9 -15.5t-35 -29.5q-14 -9 -34 -15t-38.5 -10
t-32.5 -5.5t-16 -1.5q-7 0 -12 5q-6 7 -28 39.5t-67 89.5q0 -44 -1 -68t-2.5 -35t-2.5 -13.5t-2 -3.5q-17 -4 -38 -7.5t-41.5 -5t-39.5 0.5t-31 10q-1 1 -2 1.5t-2 2.5l9 154l-89 -87q-5 -6 -14.5 -9.5t-20 -4.5t-21 -1h-17.5zM675 52l-198 204l-68 -6q3 -5 17 -17
t38.5 -35.5t60.5 -59.5t84 -88zM479 265l160 152l-62 -2q-14 -15 -39 -36.5t-51 -44t-48.5 -42.5t-31.5 -33zM401 -9q2 4 3 32.5t1 88.5q-14 20 -26.5 35t-30.5 37q2 -76 2.5 -115.5t0 -57.5t-1.5 -21t-1 -6q14 0 28 1.5t25 5.5zM436 526q-17 5 -31 6.5t-28 2.5
q1 -20 -2 -51.5t-7 -62.5t-7.5 -55t-2.5 -28q1 -5 4.5 -3.5t8.5 6.5q7 8 19 19t15 14zM260 336q5 -5 9 -3.5t5 9.5l1 60l-87 108q-7 2 -22 3l-30 2q30 -41 51 -71.5t35.5 -52t23 -35t14.5 -20.5zM108 45q12 0 28 1.5t24 6.5l102 97l1 45q-40 -39 -66.5 -65t-44 -43
t-28 -26.5t-16.5 -15.5zM637 8q35 22 40 36l-63 -2q-14 -26 -33.5 -40.5t-43.5 -24.5q10 0 23.5 2.5t28 7t27 10t21.5 11.5zM637 427q-13 14 -26 25.5t-30 22.5h-54q33 -26 40.5 -37t9.5 -13z" />
    <glyph glyph-name="afii10025" unicode="&#x417;" horiz-adv-x="437" 
d="M417 192q5 -18 3.5 -52t-19.5 -66q-29 -51 -88 -67q-1 0 -11 -2.5t-26.5 -4t-39 -0.5t-47.5 7q-26 6 -43 11.5t-29.5 10t-23 9.5t-23.5 11q-6 4 -12 7.5t-11 8.5q-2 2 -2 6q-1 7 1.5 19.5t6.5 24.5t9 20.5t9 8.5q16 -12 35.5 -16.5t36.5 -5.5q20 -1 40 1q20 3 33.5 10
t22 15t12 17t4.5 16q0 13 -2 20t-4 13l-105 39l-24 71q12 0 24 3q21 3 41.5 14t31.5 29q-9 4 -19 4.5t-18 -1.5q-10 -2 -19 -5h-3l-109 38h-1l-28 57q41 29 75 40.5t72 12.5q5 0 14.5 -0.5t6.5 -0.5q16 0 38 -3.5t45 -11.5t44 -23t36 -39q7 -12 10 -32t1 -42t-8.5 -43
t-18.5 -35q25 -13 48 -35.5t34 -58.5zM192 17q24 -6 45 -7t38 1q18 2 35 6q57 17 82 62q8 15 12.5 31.5t5.5 31t0 27t-3 20.5q-8 28 -25 47.5t-36.5 31.5t-37.5 18.5t-29 9.5q16 -8 21.5 -14t13.5 -14q5 -5 8 -10.5t6 -10.5q10 -17 15 -49.5t-6 -66t-44 -63t-98 -40.5
q-8 -2 -16.5 -2t-16.5 -1zM342 432q-18 30 -46.5 45t-57.5 21q7 -5 14 -11t13 -13q3 -3 6 -7.5t5 -9.5l9 -21q6 -16 7 -33.5t-2 -34t-10 -30.5t-17 -22l-7 -6l13 -1q1 0 17 -3.5t39 -14.5q11 13 17.5 33t9 40.5t0 38.5t-9.5 29zM159 378q4 2 24 5t39 -1q0 5 1 7.5t0 7.5
q-1 4 -4.5 10t-6.5 8q-8 8 -23.5 12.5t-26.5 4.5q-6 0 -13 -0.5t-13 -0.5q-11 -1 -21.5 -4t-21.5 -5q-9 0 -16.5 -4.5t-15.5 -6.5zM240 228q-3 3 -4 5.5t-9 7.5q-16 13 -36 13q-5 0 -11.5 0.5t-11.5 -1.5z" />
    <glyph glyph-name="afii10026" unicode="&#x418;" horiz-adv-x="466" 
d="M395 449q14 -11 17 -22t3 -12l-20 -401q0 -1 -1.5 -6.5t-5.5 -12t-12.5 -13t-21.5 -9.5q-14 -3 -28 -1t-25.5 6.5t-18.5 10t-8 7.5l-12 220l-36 -29q-12 -9 -28.5 -25t-31 -31t-24.5 -27t-10 -14l-12 -84q0 -1 -1.5 -6.5t-5.5 -12.5t-12 -13.5t-21 -9.5q-14 -3 -27.5 1
t-24.5 10t-19 12t-9 6q6 89 10 157t7.5 118.5t5.5 86t4 58.5q4 55 4 64q0 3 6.5 4t15.5 1t19.5 -1t19.5 -2q4 -1 14.5 -3.5t22.5 -5.5t23 -6t15 -6q13 -11 14 -19.5t0 -10.5l-15 -107q21 23 45 48.5t47 47t42.5 35.5t31.5 15q4 1 9 1q1 -1 8.5 -3t16.5 -4.5t17 -5.5t12 -6z
M405 415q0 2 -2.5 9.5t-13.5 15.5q-4 3 -14.5 6.5t-21.5 7.5q0 -1 0.5 -3.5t0 -14.5t-1 -37.5t-2.5 -71t-4.5 -115.5t-6.5 -172q0 -13 -5 -21t-11 -13q-7 -6 -16 -9q-1 0 -4 -1q-6 -2 -10 -2q11 -5 27 -10t31 -1q10 3 16.5 8t10.5 10t5 9t1 5zM219 195q12 10 23.5 19
t19.5 15l-4 79q-6 -7 -18.5 -19.5t-28.5 -28t-33.5 -32.5t-33.5 -33q-23 -23 -40.5 -43t-23.5 -31l46 -17l12 12l25.5 25.5l29.5 29.5t26 24zM171 431q0 2 -1 5q-2 6 -10 13q-3 3 -15.5 6.5t-26.5 7.5q4 -11 2 -23.5t-3 -21.5q-2 -32 -6 -63q-3 -26 -6.5 -54t-5.5 -47
q5 3 19.5 17.5t34.5 36.5q7 46 10.5 70.5t5 36t2 14zM122 92l-0.5 0.5t-5 2.5t-13.5 5.5t-26 10.5q-2 -14 -3.5 -25.5t-3.5 -20.5l-5 -20q-2 -12 -5 -26.5t-20 -23.5q-2 -1 -5 -2q-2 -1 -6 -1h-9q11 -7 27 -14.5t30 -3.5q11 3 17.5 8t9.5 10.5t4.5 10l1.5 4.5z" />
    <glyph glyph-name="afii10027" unicode="&#x419;" horiz-adv-x="466" 
d="M395 449q14 -11 17 -22t3 -12l-20 -401q0 -1 -1.5 -6.5t-5.5 -12t-12.5 -13t-21.5 -9.5q-14 -3 -28 -1t-25.5 6.5t-18.5 10t-8 7.5l-12 220l-36 -29q-12 -9 -28.5 -25t-31 -31t-24.5 -27t-10 -14l-12 -84q0 -1 -1.5 -6.5t-5.5 -12.5t-12 -13.5t-21 -9.5q-14 -3 -27.5 1
t-24.5 10t-19 12t-9 6q6 89 10 157t7.5 118.5t5.5 86t4 58.5q4 55 4 64q0 3 6.5 4t15.5 1t19.5 -1t19.5 -2q4 -1 14.5 -3.5t22.5 -5.5t23 -6t15 -6q13 -11 14 -19.5t0 -10.5l-15 -107q21 23 45 48.5t47 47t42.5 35.5t31.5 15q4 1 9 1q1 -1 8.5 -3t16.5 -4.5t17 -5.5t12 -6z
M442 556q0 -5 -3 -6q-2 -1 -40.5 -11t-111.5 -16q-38 -3 -64 -1.5t-42.5 4.5t-24.5 6t-9 4q-19 3 -31.5 9.5t-21 15t-14 18t-9.5 18.5q-2 3 2 13.5t9.5 22.5t11 23.5t8.5 16.5q2 4 3 4t4 -1l90 -35q3 -3 3 -4t2.5 -6t9.5 -11t19 -11t32 -6q16 2 31 5t26 5q13 3 24 6l89 -31
q4 0 4 -4zM405 415q0 2 -2.5 9.5t-13.5 15.5q-4 3 -14.5 6.5t-21.5 7.5q0 -1 0.5 -3.5t0 -14.5t-1 -37.5t-2.5 -71t-4.5 -115.5t-6.5 -172q0 -13 -5 -21t-11 -13q-7 -6 -16 -9q-1 0 -4 -1q-6 -2 -10 -2q11 -5 27 -10t31 -1q10 3 16.5 8t10.5 10t5 9t1 5zM219 195
q12 10 23.5 19t19.5 15l-4 79q-6 -7 -18.5 -19.5t-28.5 -28t-33.5 -32.5t-33.5 -33q-23 -23 -40.5 -43t-23.5 -31l46 -17l12 12l25.5 25.5l29.5 29.5t26 24zM171 431q0 2 -1 5q-2 6 -10 13q-3 3 -15.5 6.5t-26.5 7.5q4 -11 2 -23.5t-3 -21.5q-2 -32 -6 -63q-3 -26 -6.5 -54
t-5.5 -47q5 3 19.5 17.5t34.5 36.5q7 46 10.5 70.5t5 36t2 14zM122 92l-0.5 0.5t-5 2.5t-13.5 5.5t-26 10.5q-2 -14 -3.5 -25.5t-3.5 -20.5l-5 -20q-2 -12 -5 -26.5t-20 -23.5q-2 -1 -5 -2q-2 -1 -6 -1h-9q11 -7 27 -14.5t30 -3.5q11 3 17.5 8t9.5 10.5t4.5 10l1.5 4.5z
M286 533q50 5 83.5 11t50.5 11l-72 23q-7 -3 -22 -9.5t-36 -13.5t-46.5 -12.5t-53.5 -7.5q16 -2 40 -3t56 1zM113 663q11 -14 33 -34t53 -26q6 -1 13 -1.5t15 -0.5q-18 7 -25 16.5t-9 14.5zM349 607l4 -19l78 -25l-2 17z" />
    <glyph glyph-name="afii10028" unicode="&#x41a;" horiz-adv-x="496" 
d="M497 122q4 -6 2 -10t-9 -18.5t-35 -32.5q-14 -9 -32.5 -12.5t-35 -4.5t-29 0t-14.5 1q-7 0 -12 5q-3 3 -9 10t-16.5 19.5t-26.5 32t-38 47.5q0 -44 -1 -68t-2.5 -35t-2.5 -13.5t-2 -3.5q-34 -8 -67 -9.5t-71 4.5q-3 0 -4 4l-47 485q0 8 4 9q17 7 34.5 12t25.5 7
q7 1 21.5 1t32 -1t37 -3t37.5 -6q8 -1 8 -7l-3 -80q31 40 75 93l85 -2l1.5 -1t9 -6.5t23.5 -17t45 -32.5q4 -4 1 -7l-150 -162zM488 119l-165 198l-72 -4q3 -5 12 -16.5t28.5 -34t51 -58t79.5 -87.5zM325 326l141 153h-73q-14 -15 -35 -37t-42 -44.5t-39.5 -42.5t-27.5 -33z
M229 48q2 4 3 32.5t1 88.5q-14 20 -28.5 37.5t-32.5 39.5q2 -76 3 -116.5t1.5 -59t0 -22.5t-0.5 -7q14 0 28 1.5t25 5.5zM234 533q-17 5 -36 6.5t-33 2.5q1 -20 2.5 -45.5t2.5 -49t2 -41t2 -21.5q1 -5 4.5 -3.5t8.5 6.5q3 4 10 12.5t14.5 17.5t13.5 16t8 9zM400 537l-68 2
q33 -26 46 -37t15 -13h71zM450 69q18 11 28 23t12 19l-66 -2q-7 -13 -12.5 -21.5t-12 -14.5t-14.5 -10t-20 -9q20 0 44 2t41 13z" />
    <glyph glyph-name="afii10029" unicode="&#x41b;" horiz-adv-x="529" 
d="M346 310q-5 -27 -10.5 -56.5t-13 -58t-17 -54.5t-21.5 -45q-26 -44 -60 -73.5t-67 -40.5q-18 -6 -37 -2t-34 10.5t-25 13.5t-11 7q-4 3 -8 5q-9 5 -14.5 10t-8.5 9q-4 4 -5 8q30 24 57 56q23 26 47.5 63t41.5 82q14 40 24 82.5t16 77.5q7 41 10 80l230 20q3 0 4 -1
l63 -38q3 -2 3 -4l9 -457q0 -5 -5 -5l-75 -11q-4 0 -5 1l-70 28q-6 2 -4 7zM437 -1l59 8l-52 25l-66 -10zM440 493l9 -452l59 -29l-9 446zM275 101q14 24 25 57.5t19.5 70t14.5 71.5t10 61l-3 53l-56 7q-4 -35 -9 -72q-5 -32 -12 -69.5t-15 -71.5q-15 -58 -38 -96.5
t-45 -61.5q-26 -27 -53 -42q-5 -1 -11 -1q-5 0 -12 -0.5t-14 0.5q15 -8 36.5 -14.5t41.5 -0.5q32 10 63.5 38.5t57.5 70.5z" />
    <glyph glyph-name="afii10030" unicode="&#x41c;" horiz-adv-x="570" 
d="M542 -3q-9 -26 -30.5 -35.5t-46.5 -11t-47 2t-32 5.5q-7 1 -7 8q0 29 -2 63.5t-4 71.5t-4 73.5t-3 69.5l-42 -30q-6 -2 -9 -1l-67 14q-4 1 -5 4q-4 6 -9 16.5t-14 33.5l-70 -230q-1 -4 -5 -5l-34.5 -7.5t-17.5 -4t-7.5 -1.5t-3.5 1q-10 4 -23 9.5t-25 13.5q-5 3 -3 6
l92 451q0 5 4 8t8 4q3 1 27.5 2.5t62.5 2.5q13 0 28 -14.5t28.5 -34.5t24.5 -40t16 -30q10 10 22 22.5t28 23t37.5 16.5t52.5 4l70 -9q5 -1 6 -4.5t1 -5.5zM530 462l-57 7l3 -490q-3 -5 -8.5 -10.5t-15.5 -8.5q12 -2 24 0t23.5 7.5t20 13t13.5 16.5zM185 362
q-13 -42 -28.5 -95t-29.5 -101t-24 -82.5t-13 -39.5l51 11l73 236zM162 517q13 -3 24 -12.5t20.5 -21.5t17 -25.5t13.5 -25.5l37 -70l42 44q-5 10 -14.5 27.5t-21.5 36t-26.5 33t-29.5 18.5zM318 221l48 34l-4 50l-25 -20t-29.5 -23.5t-26.5 -20.5t-15 -10z" />
    <glyph glyph-name="afii10031" unicode="&#x41d;" horiz-adv-x="436" 
d="M385 50q0 -4 -5 -7l-57 -25q-12 -5 -30 -4.5t-34 4.5t-27.5 10t-11.5 11v53t0.5 55.5t1 52t1.5 42.5l-35 8l-9 -190q0 -6 -4 -7l-50 -23q-4 -2 -9 0l-62 29q-2 0 -2 4l-22 480q0 6 5 7q11 1 25 4q12 2 29 4.5t38 5.5q20 -2 42 -8t32 -19q2 -4 2 -8t-0.5 -22.5t-1.5 -41.5
t-1.5 -44.5t-0.5 -30.5l26 -5l6 158q0 6 5 9l83 16q12 0 27.5 -1.5t30.5 -5t27 -8.5t18 -11zM269 549q22 -2 37 -8t31 -14l68 15q-6 4 -18 7t-25 5.5t-24.5 3.5t-16.5 1zM225 349v26l-31 6l-50 -15zM135 516q0 -2 0.5 -9.5t0.5 -23.5t-0.5 -42t-2.5 -68l57 17q0 13 0.5 33
t1.5 40t1.5 37t0.5 25zM63 547q32 -5 46.5 -10.5t19.5 -11.5l63 9q-14 11 -30.5 15t-33.5 6zM170 61l9 192l-51 11l-4 -225zM376 52l37 482l-72 -14l-15 -491z" />
    <glyph glyph-name="afii10032" unicode="&#x41e;" horiz-adv-x="456" 
d="M290 292q-5 25 -17.5 48t-28.5 28q-11 -6 -25 -21t-16 -47t9 -59t21 -37q11 -10 20 -11.5t16 -1.5q5 0 7 1.5t4 4.5q10 17 13 39.5t-3 55.5zM194 165q21 -10 44 -4t34 23q-10 -1 -21 0.5t-24 13.5q-12 12 -23.5 41t-9.5 61t16.5 49t23.5 22q-21 8 -46 -1q-17 -6 -28 -19
t-18 -38q-3 -10 -3.5 -24t1 -28t4.5 -27.5t8 -22.5q8 -17 20 -29t22 -17zM446 357q13 -51 8.5 -102t-23.5 -93q-10 -23 -24.5 -39.5t-28 -27.5t-24 -16.5t-13.5 -6.5q-16 -7 -38 -11t-42 -6q-23 -2 -44 -2.5t-41 3.5t-40 15t-40 33q-22 23 -35.5 53t-19.5 62q-24 135 48 215
q8 8 19 15q9 6 21 12.5t26 11.5q3 1 18 5t37.5 8t49 5.5t52.5 -2.5q20 -3 41 -13.5t39 -27.5t32.5 -40t21.5 -51zM424 165q18 39 21.5 90t-8.5 100q-7 27 -20.5 48.5t-30.5 37.5t-36.5 26t-37.5 13q-29 5 -59 2.5t-54 -8.5q34 -1 68 -18.5t56 -56.5q20 -35 28.5 -82t4.5 -98
q-1 -19 -7.5 -41.5t-17.5 -44.5t-27 -40.5t-36 -28.5q17 3 36 6.5t33 10.5q2 1 12 6.5t23.5 15.5t27.5 25.5t24 36.5z" />
    <glyph glyph-name="afii10033" unicode="&#x41f;" horiz-adv-x="591" 
d="M611 373q0 -1 -2 -3q-1 -1 -2 -1l-128 -8q2 -42 2.5 -76.5t4.5 -70.5q2 -24 5.5 -52t7.5 -55t7.5 -50.5t5.5 -38.5q4 -20 4 -23q0 -2 -2 -2q-1 -1 -88 -16q-17 -3 -31 9t-25 29q-7 15 -12.5 28t-10.5 26.5t-9.5 29t-9.5 36.5q-5 23 -10 64.5t-5 101.5q0 17 0.5 31.5
t3.5 28.5h-23q-1 -11 -4.5 -45.5t-9 -76.5t-12.5 -84t-15 -69q-4 -14 -12.5 -27t-19 -24t-21.5 -19t-19 -12q-9 -4 -18.5 -5.5t-18.5 -1.5t-16.5 1t-10.5 2q-9 0 -22 4q12 100 19.5 168.5t12.5 112.5t7.5 68t3.5 35t1.5 13.5t0.5 4.5q-18 4 -32 7t-24 8q-26 6 -32 13t-6 18
l7 30q1 3 8 3q86 -9 148 -12t91 -3h21l173 -3l102 -19q3 -2 3 -4zM505 0q-1 8 -4 31.5t-7 54t-8 64.5t-7 64q-2 21 -4 44.5t-3.5 44.5t-2.5 36.5t-1 21.5l-57 12q2 -25 3.5 -52t2.5 -49.5t1.5 -37.5t0.5 -16q13 -119 33 -226zM245 90q9 25 16 67t12 84t7.5 76t2.5 44l-53 19
q-2 -12 -4.5 -36.5t-6 -55t-8 -64.5t-9.5 -65.5t-11 -57.5t-13 -41l-2.5 -6t-8 -14.5t-13.5 -17.5t-18 -15q9 -2 20 -0.5t22 4.5q17 8 37 29t30 50zM599 380l-11 60l-90 19l15 -68zM479 369l86 7l-56 8q-20 -3 -40.5 -3.5t-34.5 -0.5zM291 369h26v11q-21 1 -34 2t-20 1.5
t-10 0.5h-4z" />
    <glyph glyph-name="afii10034" unicode="&#x420;" horiz-adv-x="473" 
d="M406 470q5 -14 9 -37t2.5 -51t-10 -59t-27.5 -61q-17 -26 -40 -42.5t-46 -25.5t-42.5 -12.5t-27.5 -3.5l3 -137q-29 -35 -41.5 -50.5t-16.5 -17.5l-68 4q-4 0 -4 4l-83 546q-1 2 3.5 7.5t18.5 13.5q10 6 24 13.5t28.5 14.5t26.5 12.5t19 6.5q29 5 74.5 6t96.5 -19
q35 -14 61 -43t40 -69zM397 468q-29 76 -96 105q-23 10 -46.5 14t-45 4.5t-41 -1.5t-33.5 -4q-6 -1 -18 -7t-26 -13.5t-29.5 -15.5t-27.5 -14q36 8 56.5 10.5t22.5 2.5q80 6 133 -20q81 -39 94 -151q5 -42 -2.5 -73t-21 -53.5t-30 -37t-29.5 -22.5q27 6 59.5 24t54.5 52
q18 29 26.5 58.5t10 56t-2 49t-8.5 36.5zM215 178q-20 -6 -54 -6l11 -184l46 55zM253 315q10 37 2 67t-18 42q-7 8 -15.5 13t-16.5 7l10 -139q8 0 20.5 2.5t17.5 7.5zM196 448q-17 4 -33 2.5t-26 -7.5l17 -184l53 42zM246 301q-8 -3 -18.5 -4.5t-14.5 -1.5l-54 -44
q12 1 25.5 4.5t26 9.5t22 15t13.5 21z" />
    <glyph glyph-name="afii10035" unicode="&#x421;" horiz-adv-x="447" 
d="M474 192q6 -2 4 -7q-1 -2 -5.5 -14.5t-14 -29.5t-24 -36.5t-35.5 -35.5q-29 -22 -68.5 -27.5t-96.5 -1.5q-51 -1 -89 14t-64 41q-38 36 -50.5 84.5t-13.5 96.5q-1 57 24 108.5t69 80.5q50 32 115 39.5t129 -1.5q53 -9 59 -55q3 -20 -3.5 -39.5t-16.5 -29.5q-5 -5 -9.5 -6
t-6.5 -1q-13 2 -29.5 3t-46.5 1q-1 0 -16 -3.5t-34 -12.5t-36 -24t-22 -38q-8 -34 -3 -56t17 -36t29.5 -21.5t35.5 -12.5q8 8 16 18.5t15 24.5q0 2 3 2q2 1 28.5 1t80.5 -2zM413 207l-79 2l48 -17h66zM183 300q4 18 17.5 32.5t30.5 25t34.5 17t29.5 9.5q-5 1 -14 2.5
t-19.5 3t-20.5 2t-16 0.5q-38 -1 -62.5 -14.5t-43.5 -41.5q-21 -32 -20.5 -71t18.5 -70q11 -19 27 -33t35.5 -19.5t41 -0.5t43.5 23q-16 4 -33.5 12t-30.5 23t-19 39.5t2 60.5zM406 448q-2 11 -8 21t-20 18q-16 7 -40 9.5t-42 3.5q22 -6 33 -20.5t12 -32t-8 -34.5t-25 -28
q10 0 30 -0.5t40 -3.5q4 0 10 6q8 7 14 25t4 36zM393 76q17 13 30 29t22 31t14.5 27.5t7.5 19.5h-83q-10 -33 -22.5 -55.5t-28.5 -37.5t-37 -24.5t-49 -17.5q62 -1 95 7t51 21z" />
    <glyph glyph-name="afii10036" unicode="&#x422;" horiz-adv-x="470" 
d="M506 431q4 -1 4 -7q-2 -17 -6.5 -28t-9.5 -17t-9 -8.5t-5 -2.5l-153 -25v-358q0 -3 -2 -5l-54 -21q-4 -2 -7 0l-64 17q-3 1 -3 4l-28 352q-1 0 -9 -0.5t-17.5 -1.5t-18.5 -1.5t-12 -0.5q-7 0 -25.5 4.5t-46.5 13.5q-14 5 -21 23t-9 37.5t1 35t9 15.5q105 4 173.5 6.5
t110.5 4t63.5 2t33.5 0.5zM318 -12v355l-53 25l7 -399zM405 459q2 -11 -1.5 -26.5t-6.5 -25.5l87 -26q4 3 9 11t7 32zM392 400q-3 -1 -10.5 -3t-21 -5t-35 -7t-53.5 -10l51 -25l146 26zM167 363q-40 -7 -63.5 -10t-37.5 -5q17 -4 30 -7.5t16 -3.5q5 0 24 1t33 3z" />
    <glyph glyph-name="afii10037" unicode="&#x423;" horiz-adv-x="431" 
d="M20 69q8 0 32.5 3t61.5 28q10 7 21 17q9 8 20 20t22 27q-33 7 -47.5 18.5t-30.5 24.5q-17 12 -32.5 35t-23.5 52q-7 30 -11.5 82.5t2.5 145.5q1 6 9 10t20 5.5t26 1.5t27 -1q10 0 22.5 -3t24.5 -7.5t23 -9.5t17 -9q11 -7 11 -15q-9 -81 -6 -127.5t7 -66.5l6 -21
q11 10 21 29q9 17 19.5 53t19.5 71q11 41 22 89l47 1q5 0 9 -2l57 -27q3 -1 3 -5q-10 -59 -22.5 -116t-32 -112.5t-47.5 -108.5t-69 -103q-25 -30 -50.5 -47t-48 -26t-40 -11.5t-25.5 -1.5l-55 35q-2 2 -2 6zM240 55q40 49 68 101t46.5 106t31 110.5t22.5 113.5l-51 24
q-2 -12 -8.5 -41t-14.5 -64q-20 -89 -53.5 -169.5t-94.5 -153.5q-19 -23 -39 -38.5t-38.5 -25t-34.5 -14.5t-28 -6l41 -25q7 -1 23 1.5t37 11t45 25t48 44.5zM203 495q0 3 -15.5 10.5t-36.5 15.5q-8 -73 -6 -120t7 -71q6 -25 15.5 -38.5t29.5 -18.5q1 -1 4 -1h4.5t6.5 2
q-2 5 -3.5 11t-3.5 13q-5 20 -8 67t6 130zM140 190q8 -5 19 -9.5t25 -7.5l9 16q-15 -4 -28.5 -3t-24.5 4z" />
    <glyph glyph-name="afii10038" unicode="&#x424;" horiz-adv-x="536" 
d="M331 221q14 34 19 73.5t-3 84.5q-2 -9 -7.5 -29t-8.5 -46q-3 -49 0 -83zM305 409q-10 -6 -16 -32t-9 -60t-4 -71.5t-1 -65.5v-30q25 13 46 54q0 2 -0.5 8t-0.5 12q0 13 1 35.5t3 44.5q3 34 11 56.5t4 33.5q-3 6 -6.5 11t-8.5 8q-3 2 -6.5 1t-6.5 -2zM501 436
q13 -19 22 -47t10 -62t-7 -70.5t-29 -72.5q-20 -36 -45.5 -59.5t-49 -37.5t-42 -20t-25.5 -8l4 -163q0 -5 -4 -6l-64 -23q-23 -5 -41.5 -1t-29.5 13q-3 2 -5.5 5.5t-2.5 9.5q-3 29 -5.5 61.5t-2.5 64.5v15.5t1 12.5q-33 7 -56.5 24t-39.5 38t-24.5 42.5t-11.5 38.5
q-1 3 -5 28t-4 61q0 37 7 79.5t28 80.5l4 7l64 19l52 -8q4 -1 4 -4q-8 -35 -13 -67t-5 -64q0 -17 1.5 -31.5t1.5 -25.5q3 27 7 54.5t9.5 52.5t13.5 46.5t19 35.5q9 11 15 16.5t12 9t13.5 6.5t19.5 9q3 0 26.5 7.5t60.5 3.5q25 -2 45 -11t35 -20.5t24 -22.5t13 -17zM185 240
q-4 22 -6 42.5t-2 40.5q0 15 2 34t4.5 36.5t5 32t3.5 21.5l-53 -15q-2 -8 -4 -15t-3 -15q-4 -23 -6 -48.5t-2 -45.5v-21.5t2.5 -32.5t7 -36.5t13.5 -33.5q10 -31 38 -42q0 29 -1 52t1 46zM147 458l-49 -15q5 -1 9 -1.5t9 -0.5h10t10 -1l41 15zM328 59l-57 -15q3 -42 4 -67.5
t4 -48.5v-49l52 18zM489 191q20 34 28 68.5t7 66.5t-9.5 59.5t-21.5 46.5q-4 6 -12.5 16.5t-22 20.5t-32 18t-42.5 9q-8 1 -17 0.5t-17 -0.5q10 -3 23 -8.5t26 -16t25 -26t20 -39.5l4 -12q5 -14 6 -31t2 -33v-37q-3 -32 -18.5 -75t-57.5 -95q-15 -19 -35.5 -36t-43.5 -28
l30 8q23 7 43.5 16t39.5 23t37.5 34.5t37.5 50.5z" />
    <glyph glyph-name="afii10039" unicode="&#x425;" horiz-adv-x="466" 
d="M350 281l102 -204q2 -5 0 -9q-2 -3 -13 -18t-43 -36q-15 -10 -34 -14t-35.5 -4.5t-28.5 0.5t-13 1q-5 2 -6 3.5l-3 4.5q-15 45 -26.5 78t-19.5 56l-63 -92q-2 -4 -7 -4l-80 -11q-4 0 -5 1q-3 3 -11.5 11t-18 17t-18.5 18l-14 14q-3 3 -1 7t6 10l12 18q12 18 41 58.5
t87 118.5l-84 172q-2 2 2 6q26 20 40.5 22t16.5 2q4 1 15 2t23 1t22.5 -1t14.5 -4q10 -7 18.5 -19t15.5 -24.5t12.5 -24t8.5 -18.5q26 28 37.5 40t19.5 17q12 8 22.5 13t23 8t28 3.5t35.5 0.5q15 0 29 -3.5t25 -7t17.5 -7t7.5 -4.5q2 -2 1.5 -4t-1.5 -3zM341 277h-70
q3 -6 9.5 -19.5t18 -37t28.5 -59.5t41 -88l74 3zM427 466l-42 -46q-15 -16 -33.5 -36t-35.5 -39t-29.5 -35t-16.5 -24h71l154 184zM208 201q-2 2 -4 1t-7 -8l-108 -151l69 9l69 96zM258 411q-2 5 -7.5 16.5t-13 25t-16.5 26t-18 19.5q-4 2 -12 2.5t-17 0.5t-17.5 -1
t-11.5 -1q10 -10 28 -37.5t50 -88.5q19 22 35 38zM366 63q-7 -14 -18 -25l-12 -12t-11.5 -8.5t-24.5 -12.5q17 -2 43.5 0t46.5 16q21 14 33 26.5t17 19.5zM486 479q-19 8 -46 12t-52 -2q6 -2 15.5 -5t23.5 -8z" />
    <glyph glyph-name="afii10040" unicode="&#x426;" horiz-adv-x="455" 
d="M403 104q6 -3 15 -7t17.5 -10t16 -13.5t10.5 -16.5q4 -11 0.5 -32t-9 -42t-11.5 -37.5t-7 -20.5q-2 -5 -7 -3q-21 8 -32.5 12t-16.5 6t-6.5 2.5l-1.5 0.5l-43 12v19q-5 3 -11.5 6t-11.5 5q-6 2 -12.5 4t-16.5 3.5t-25 2t-39 -0.5q-38 -1 -59 -1.5t-31 -1t-12 -0.5h-2
q-21 9 -32 13.5t-16.5 7t-7 3.5l-1.5 1q-6 6 -11 15q-5 8 -9.5 18.5t-7.5 26.5q-2 6 -2.5 26.5t-1.5 50t-1 65.5v73q0 86 1 192h12q5 -1 12 -2t15 -3q4 -1 14.5 -3t22.5 -5.5t23 -8t15 -9.5q11 -16 14 -28q2 -7 2 -13l30 -309l46 9l46 355l57 5l53 -36q3 -2 3 -5l-11 -315
q21 -3 30 -11zM138 410q0 6 -2 12q-2 5 -4 11t-7 13q-4 5 -17 9t-28 8q2 -2 2 -4t1 -4q0 -2 1 -3l22 -330q0 -6 2 -10q2 -9 8 -14q3 -2 7.5 -3t8.5 -1t10 1q19 5 23 5.5t3 0.5zM315 119h15q7 0 15.5 -0.5t17.5 -1.5l10 311l-45 30zM427 -66q4 11 9 28.5t9.5 35t7 33
t-0.5 23.5q-4 12 -18.5 21.5t-26.5 15.5q-1 -13 -4.5 -33t-8 -40t-8.5 -38.5t-7 -28.5zM327 -13l-3 29q-2 5 -13 8.5t-25.5 5t-29.5 1.5h-24q-8 0 -28 -1.5t-44.5 -3.5t-48.5 -4.5t-40 -3.5l40 -17l100 4q24 1 40 0t27 -2.5t18 -3.5t12 -4z" />
    <glyph glyph-name="afii10041" unicode="&#x427;" horiz-adv-x="398" 
d="M185 457q2 -1 2 -5l-2.5 -19.5t-4 -46t0 -53.5t9.5 -43q11 -23 28 -28q3 0 4 1l-5 221q24 11 37 16.5t19 7.5l7 3q4 2 6 1l57 -20q3 -2 3 -5l39 -483q0 -5 -3 -6q-1 0 -19 -4.5t-41 -0.5q-17 2 -30.5 9t-21.5 12q-12 7 -17 12q-10 9 -15.5 21.5t-8.5 23.5q-4 13 -4 27
l-1 65q-22 -5 -48 -5t-45 6t-32.5 12.5t-21 12.5t-9.5 8q-10 7 -18 15t-13 22q-14 34 -16 78.5t1 84.5q4 47 12 95h96q3 0 4 -1zM285 502l38 -483l52 -9l-39 473zM130 481q-2 -14 -5 -42t-4 -59t0.5 -58.5t8.5 -40.5q11 -18 32 -21t40 -1q-11 7 -22 27q-8 16 -9.5 41
t-0.5 50t3.5 45.5t3.5 27.5zM176 168q15 0 26.5 2t21.5 4l-1 45q-6 -6 -18.5 -15.5t-26.5 -13.5q-9 -2 -28.5 -5t-41.5 -1q13 -6 30 -10.5t38 -5.5zM324 3q15 -2 29 0q-17 2 -25 4t-11 4q-6 -3 -11 -3q5 -2 9 -3t9 -2z" />
    <glyph glyph-name="afii10042" unicode="&#x428;" horiz-adv-x="551" 
d="M85 -8q-17 2 -26 5t-13 9t-5.5 15t-2.5 22q-1 6 -2 28t-1.5 54t-0.5 70.5v78.5v207q-1 1 10.5 -0.5t21.5 -1.5l17.5 -3.5t26.5 -8t26 -13t15 -17.5q1 -6 2.5 -12t3 -18.5t3.5 -34.5t4.5 -58.5t6 -91.5t8.5 -133l21 1l16 326l60 18l49 -31q3 -2 3 -4l5 -303l21 1
q14 95 25 173l10 66t10 60.5t9.5 47t7.5 26.5q4 8 13 11t19 3q11 0 24 -2l58 -45q2 -1 2 -5t-2 -30.5t-5.5 -65t-7 -83t-6.5 -83.5t-5.5 -66.5t-2.5 -31.5q-2 -23 -7.5 -46t-16.5 -31q-3 -2 -36 -7t-77.5 -10t-91 -10.5t-77.5 -8.5h-2zM428 57q-4 -12 -10 -18l60 -29
q8 12 10.5 32.5t4.5 31.5q0 4 2.5 30t5.5 62.5t6 79.5t6 81.5t5 66.5t3 36l-51 40l-32 -354q0 -10 -2 -21q-2 -9 -4 -19.5t-4 -18.5zM140 437q-2 7 -15 13t-30 11q2 -2 2 -4t1 -4q0 -2 1 -3l22 -335q0 -6 2 -10q2 -9 8 -14q3 -2 7.5 -3t8.5 -1t10 1l12 1q-5 78 -8.5 132.5
t-6 91t-4.5 58t-3.5 34t-3 19t-3.5 13.5zM276 421l3 -328l44 3l-6 300zM114 -6l83 -24q37 4 80 8.5t82 9.5t69 9t41 6q-23 10 -35 16t-17.5 9t-6.5 4t-2 1z" />
    <glyph glyph-name="afii10043" unicode="&#x429;" horiz-adv-x="597" 
d="M519 130q1 0 10.5 -4t21 -10.5t22 -15.5t13.5 -20q4 -11 -1.5 -37t-14 -53t-17 -50t-10.5 -28l-2 -2l-1 -1q-18 -5 -28 -7.5t-14.5 -3.5t-5.5 -1h-2l-56 21q-4 1 -4 6q2 11 4 23q2 11 3 23l2 24l-18 3q-15 5 -122 2q-27 -1 -54.5 -3t-50 -4.5t-37.5 -4t-16 -1.5l-56 21
q-1 1 -7 6.5t-13.5 13.5t-14 18.5t-7.5 20.5q-1 6 -2.5 27t-3.5 51.5t-4.5 67.5t-4.5 75q-5 88 -12 197q-1 1 9.5 0t19.5 -1q5 -1 17.5 -3t27 -6t26.5 -10.5t16 -16.5l4 -12t4.5 -18t6 -33.5t9 -58t13 -90.5t18.5 -132q2 0 3 0.5t2 0.5t2 1l17 344l56 -4l48 -24q3 -3 3 -5
l10 -291l20 5q9 82 17 150q3 29 7 57.5t7.5 52.5t7.5 41.5t7 24.5q2 5 11.5 8.5t19.5 5.5q11 2 26 3l53 -40q2 -2 2 -4q-2 -55 -4 -96.5t-3 -72.5t-2 -52t-1 -35l-1 -37q6 -2 12.5 -3.5t11.5 -2.5zM76 467q2 -2 2.5 -4.5t1.5 -4.5q1 -3 1 -4l46 -330q0 -7 1 -13q2 -12 8 -17
q4 -3 16.5 -1t23.5 8q-11 78 -18.5 132t-13 90.5t-9 57.5l-5.5 33t-4 17.5t-4 11.5q-3 9 -16 14.5t-30 9.5zM437 139h15q7 0 15.5 -0.5t17.5 -1.5l10 289l-45 33zM267 432l6 -318l44 9l-10 290zM536 -79q7 20 15.5 44t14.5 46.5t9.5 40t0.5 24.5q-4 12 -17 21.5t-25 15.5
q0 -16 -6 -41.5t-13.5 -51.5t-14.5 -49t-10 -33zM299 9q48 2 81.5 1.5t43.5 -2.5q3 -1 6.5 -2t8.5 -2q0 16 -4 23q-2 4 -12.5 6.5t-26.5 3t-36.5 0t-42.5 -1.5q-18 -1 -47.5 -3.5t-61.5 -6t-61.5 -7t-47.5 -5.5l45 -17q4 0 19.5 2t37.5 4t48 4t50 3zM492 -92l29 7l-41 16
l-37 -5z" />
    <glyph glyph-name="afii10044" unicode="&#x42a;" horiz-adv-x="507" 
d="M122 408l-48 5l-61 27q-3 1 -3 6l5 63q46 4 81 4t58 -2q27 -2 46 -6l55 -42q2 -1 2 -5l-5 -119q16 -1 30.5 -2t22.5 -3q9 0 29 -2.5t43 -10t46 -20t39 -31.5q13 -15 21 -37t10.5 -46.5t-0.5 -49.5t-12 -46q-33 -71 -111 -96q-38 -12 -77.5 -11.5t-72 6t-54 13t-23.5 9.5
q-11 2 -23 5.5t-25 7.5zM454 264q-20 23 -49 35.5t-55 17.5q13 -8 27 -20t24.5 -31t17 -44.5t5.5 -60.5q-1 -25 -12 -50.5t-30 -47.5t-45 -38t-56 -22q-7 -1 -16 -2q-8 -1 -18 -1.5t-24 0.5q32 -5 70 -6t73 10q76 25 105 91q9 19 11.5 42.5t0.5 47t-9.5 44t-19.5 35.5z
M245 103q14 1 33 6q26 7 38 30t12 41q-2 20 -14 30.5t-25 15.5q-14 5 -26 5h-15zM181 107q15 -2 28 -3.5t25 -1.5l3 133l-48 19zM190 337q11 1 24 1.5t27 0.5l6 117l-48 36zM123 418l1 19l-96 7l49 -22zM315 223q-13 20 -40 31q-10 1 -21 3q-10 2 -23.5 3t-30.5 1
q17 -7 26.5 -10.5t14 -5.5t5.5 -2.5l1 -0.5q3 0 12 -0.5t19.5 -2.5t21 -6t15.5 -10z" />
    <glyph glyph-name="afii10045" unicode="&#x42b;" horiz-adv-x="615" 
d="M496 448q2 2 8 0q9 -5 13 -12t15 -12q4 -2 5 -4t1 -4q-1 -14 -3 -38.5t-5 -54.5t-5 -62t-2.5 -61t2.5 -51.5t10 -33.5q6 -10 14 -15t15.5 -7.5t14.5 -4t12 -4.5q1 -1 3.5 -3t0.5 -12q-3 -14 -12.5 -27.5t-22 -23t-27 -14t-27.5 1.5q-10 0 -23.5 2.5t-28 8.5t-28 16
t-23.5 25q-11 -15 -23 -25q-43 -40 -138 -45q-10 0 -24.5 1t-30.5 3l-32 4t-28 4q-36 0 -81 9l-29 410l-5 71q19 12 41.5 12t33.5 -2l65 -30q3 -3 3 -4l9 -125q16 2 30.5 3.5t26.5 -0.5q1 0 15.5 -0.5t34.5 -2.5t41.5 -6t35.5 -11q25 -13 43 -32q5 32 10.5 61t10.5 52
q5 26 11 49zM373 41q7 6 13 12.5t11 13.5q-3 7 -5.5 14.5t-4.5 15.5q-8 35 -6 83.5t9 97.5q-10 11 -21.5 20.5t-25.5 16.5t-34 10.5t-40 5.5q14 -6 28.5 -17t26.5 -27.5t21.5 -40.5t12.5 -57q3 -24 -4.5 -51t-23.5 -51.5t-39 -44t-52 -29.5q-6 -2 -14 -4q-7 -2 -17 -3.5
t-23 -3.5q17 -2 31.5 -3t24.5 0q90 3 132 42zM486 111q4 -15 13 -25t19 -17t18.5 -10t11.5 -4q10 5 19 11.5t21 8.5q-5 4 -13 6t-17 4.5t-17.5 8t-13.5 16.5q-12 24 -13.5 64.5t1.5 85t8 86.5t6 69q-11 5 -16 11.5t-13 12.5q-1 -11 -4 -36t-5.5 -56.5t-5 -67.5t-4 -68.5
t-0.5 -59t5 -40.5zM112 250l13 -148q16 0 29 0.5t26 2.5l-11 121zM145 462l-56 26l13 -157l52 9zM260 198q-4 11 -15 17t-23.5 8.5t-24.5 2.5t-18 -1l11 -118q8 2 15.5 4.5t15.5 5.5q13 6 21.5 16t13 21.5t5.5 23t-1 20.5zM198 261q-10 1 -21 1q-10 0 -23.5 -1.5t-30.5 -3.5
l51 -22q3 0 12 1t20 0t23 -3.5t22 -8.5q-8 12 -20.5 21.5t-32.5 15.5zM544 43q-5 -8 -11 -17t-14 -14q12 -1 22.5 4t19 13t14.5 17.5t9 17.5q-11 -3 -20 -9.5t-20 -11.5z" />
    <glyph glyph-name="afii10046" unicode="&#x42c;" horiz-adv-x="456" 
d="M348 320q24 -12 42 -30.5t29 -40.5t16 -45t4 -43q-2 -32 -13 -66t-46 -66q-43 -40 -138 -45q-10 0 -24.5 1t-30.5 3l-32 4t-28 4q-36 0 -81 9l-29 410l-5 71q19 12 41.5 12t33.5 -2l65 -30q3 -3 3 -4l9 -125q16 2 30.5 3.5t26.5 -0.5q1 0 15.5 -0.5t34.5 -2.5t41.5 -6
t35.5 -11zM373 37q32 29 43 59t13 66q1 19 -3.5 40.5t-15.5 42t-27.5 38t-39.5 28.5q-14 7 -34 10.5t-40 5.5q14 -6 28.5 -17t26.5 -27.5t21.5 -40.5t12.5 -57q3 -24 -4.5 -51t-23.5 -51.5t-39 -44t-52 -29.5q-6 -2 -14 -4q-7 -2 -17 -3.5t-23 -3.5q17 -2 31.5 -3t24.5 0
q90 3 132 42zM112 246l13 -148q16 0 29 0.5t26 2.5l-11 121zM145 458l-56 26l13 -157l52 9zM260 194q-4 11 -15 17t-23.5 8.5t-24.5 2.5t-18 -1l11 -118q8 2 15.5 4.5t15.5 5.5q13 6 21.5 16t13 21.5t5.5 23t-1 20.5zM198 257q-10 1 -21 1q-10 0 -23.5 -1.5t-30.5 -3.5
l51 -22q3 0 12 1t20 0t23 -3.5t22 -8.5q-8 12 -20.5 21.5t-32.5 15.5z" />
    <glyph glyph-name="afii10047" unicode="&#x42d;" horiz-adv-x="484" 
d="M463 257q0 -13 -1.5 -40t-11.5 -59t-31 -65.5t-59 -60.5q-26 -18 -53.5 -29.5t-50 -18t-37.5 -8.5t-16 -2h-1.5t-8 1t-20.5 2.5t-40 4.5q-3 0 -4 3l-21 35q20 12 38 28q16 14 34 33.5t32 45.5l16 30t13 32q-17 -2 -26 -2.5t-14 -0.5h-6l-95 21l-7 79l133 24h1l8 -2
q-2 4 -3 7.5t-3 8.5q-5 14 -12.5 24t-16.5 18q-24 6 -42.5 7t-20.5 1l-89 19q-5 2 -6 7l-31 81l58 8q25 3 52 4.5t48 -0.5q9 0 31 -0.5t51 -5.5t61 -15.5t59 -30.5q22 -16 39 -38.5t28 -47.5t17.5 -50.5t7.5 -47.5zM354 41q36 25 56.5 57t30 63t11 57t0.5 38q-1 22 -7 47
t-17 49t-27 45t-36 36q-34 24 -75 34.5t-73 13.5q20 -8 42 -21.5t41.5 -35.5t35 -53t22.5 -74q9 -54 2 -96.5t-25 -75t-43 -56t-51.5 -39.5t-50.5 -25.5t-40 -14.5l52 -6q2 0 16.5 2.5t36.5 9t48 17.5t51 28zM244 200l2 11l-26 6l-87 -7l63 -14zM226 299l1 -73l20 -4
q2 16 0 34t-9 41zM139 384q2 0 13 -0.5t26 -2.5q-15 8 -31 12.5t-31.5 6.5t-29.5 2t-24 -1z" />
    <glyph glyph-name="afii10048" unicode="&#x42e;" horiz-adv-x="654" 
d="M361 436q27 1 58.5 -0.5t62 -11.5t59 -30.5t50.5 -57.5q16 -26 23.5 -51t9.5 -50t-1.5 -51.5t-10.5 -54.5q-8 -35 -30 -63t-51 -46.5t-62.5 -28t-64.5 -8.5q-45 1 -81 20q-38 8 -67 31.5t-48 55t-27 68t-3 70.5l-16 3l-18 -264l-69 21l-64 30v488q12 -2 22 -4t18 -4
q40 -2 64.5 -7.5t38.5 -11.5t19 -11t6 -7v-6t-0.5 -19.5t-2 -42t-4.5 -73.5l25 -4q13 37 33 61t42.5 37t45.5 17.5t43 4.5zM325 109q13 -7 27 -9.5t27 -0.5q-18 15 -31.5 47.5t-7.5 70.5q1 27 9 46t19 31t22.5 18.5t17.5 8.5q-11 7 -26.5 10t-31.5 -1q-19 -6 -34 -19
q-13 -11 -23.5 -31t-11.5 -52q-3 -21 0 -40.5t10 -35t16 -27t18 -16.5zM448 231q-2 36 -11 55t-21 27q-1 0 -11 -4t-21.5 -14.5t-21.5 -29.5t-11 -49q-3 -20 0 -38t9 -33t14.5 -26t16.5 -16q9 0 19.5 9.5t19.5 26.5t14 40.5t4 51.5zM169 457q-2 2 -17 11t-57 16q9 -6 12 -9
q2 -2 2 -4q1 -4 0 -21q-1 -14 -2.5 -43t-5.5 -80l60 -8q3 41 4.5 67t2.5 41.5t1 21.5v8zM152 239l-60 10l-15 -230l1 -21l57 -17zM602 132q7 28 10 53t1.5 49t-9 47.5t-22.5 49.5q-16 27 -36 44.5t-42 28t-45 15.5t-45 7q29 -11 56 -32.5t43 -55.5q13 -29 18.5 -53.5t6 -48
t-3.5 -47t-9 -49.5q-6 -30 -22 -55t-37.5 -43.5t-48 -30t-54.5 -12.5q19 -4 41 -6q30 -1 61.5 8.5t59.5 28t48.5 44.5t28.5 58z" />
    <glyph glyph-name="afii10049" unicode="&#x42f;" horiz-adv-x="459" 
d="M386 531q4 -2 4 -5l65 -521q0 -5 -3 -6q-18 -7 -28 -10.5t-15 -5t-6.5 -2l-1.5 -0.5l-68 17q-3 0 -4 3q-2 3 -6 10.5t-9.5 24t-12 44.5t-14.5 72q-6 1 -13.5 -0.5t-10.5 -8.5l-88 -174q-2 -3 -9 -3q-22 5 -34 8t-17.5 4.5t-7 2l-1.5 0.5q-1 0 -5 1t-13 3.5t-25 7.5
t-41 13l92 200q-25 11 -41 28.5t-26 33.5q-11 18 -18 38q-14 51 -8 88.5t26 66.5q15 21 48.5 45t78.5 34q-1 0 10 2t30.5 4.5t47 5t59.5 3.5zM320 544l67 -519l57 -14l-64 511zM240 423q-10 -3 -22 -10t-19 -21q-8 -15 -9.5 -29.5t1.5 -27t9 -23t13 -16.5q14 -13 29 -19.5
t26 -9.5zM144 455q-17 -17 -26 -39.5t2 -62.5q6 -26 20.5 -43.5t45.5 -29.5q6 -3 14 -5q7 -2 15.5 -3.5t19.5 -3.5q-7 4 -14 8.5t-15 11.5q-9 8 -15.5 20.5t-9.5 27t-1 30.5t10 31q8 17 22.5 25t25.5 11l-10 53q-20 0 -35 -4.5t-26 -10.5q-13 -7 -23 -16zM253 148
q5 8 11.5 11t13.5 3q-14 3 -24 4.5t-17 2.5q-8 1 -13 2q-16 2 -21.5 -2.5t-10.5 -13.5q-3 -4 -13 -25.5t-23 -48t-25 -52.5t-19 -39l55 -14zM433 3l-48 12q-10 -4 -18 -6.5t-14 -4.5l49 -13z" />
    <glyph glyph-name="afii10065" unicode="&#x430;" horiz-adv-x="437" 
d="M369 -13q-9 0 -19.5 0.5t-20 2t-16.5 3t-9 2.5l-8 26q-28 -6 -54 -8t-47.5 -2t-37.5 2t-23 4q-53 17 -68.5 55t-4.5 89q0 2 7.5 15.5t25.5 30.5t48.5 33.5t76.5 23.5q-3 12 -7.5 23.5t-6.5 13.5q-3 4 -13 5.5t-28 -9.5q-3 -2 -11.5 -7t-17.5 -11t-16 -10.5l-7 -4.5
q-70 -4 -83 3q-7 4 -18 12.5t-28 24.5q-4 4 0 8q32 30 57 51.5t48 35t46.5 20t53.5 7.5q27 0 54 0.5t51 -5t42.5 -18.5t28.5 -40q15 -42 25 -86t17 -88.5t12.5 -89t13.5 -88.5zM421 21q-8 46 -13.5 88.5t-12 83.5t-16 81t-24.5 82q-11 33 -44.5 45.5t-84.5 13.5q11 -3 22 -9
t22 -17q2 -2 12 -16t24.5 -52.5t31 -108.5t32.5 -184zM248 172q-13 -1 -28 -5.5t-28.5 -12.5t-22.5 -18.5t-9 -22.5q0 -11 7.5 -20t36.5 -9l-4 7q-6 10 -0.5 19t16 16.5t22 12t18.5 4.5zM197 315q-8 6 -19.5 9.5t-28.5 -1.5q-8 -3 -20.5 -9.5t-25.5 -14t-25.5 -15
t-20.5 -13.5l51 4q9 3 20.5 10t23.5 14t23.5 12t21.5 4zM267 113q-7 13 -10 22q-9 0 -21 -5.5t-21 -12.5q-4 -3 -8 -11.5t4 -18.5q11 3 25 9t31 17zM366 21l-44 -18l48 -8l40 19zM285 54q-33 -23 -66 -33q17 0 37 3t35 7z" />
    <glyph glyph-name="afii10068" unicode="&#x433;" horiz-adv-x="419" 
d="M398 91l1 -1t1 -4l-3 -7.5t-9.5 -17.5t-17.5 -21.5t-27 -19.5q-22 -12 -50 -18t-59 -6q-15 0 -32.5 2.5t-32.5 5.5t-25.5 6t-11.5 3q-21 6 -36 22q-12 14 -15.5 29t-1.5 26q7 36 32.5 63t54.5 52q8 5 14 11t12 11h1q0 1 2.5 2.5t5.5 4.5q-2 2 -8 4q-17 6 -36 2.5
t-28 -6.5q-3 -1 -6 -1h-1l-56 20l1 1q0 1 -0.5 1t-0.5 2l-12 45q0 4 3 6q1 0 12.5 5t29 11.5t39.5 13t45 10.5q21 3 40.5 3t31.5 -1q25 -2 45.5 -8.5t30.5 -15.5q16 -14 21.5 -40.5t-8.5 -55.5q-8 -17 -22 -33.5t-29.5 -30.5t-29.5 -24.5t-21 -16.5q-2 -1 -3 -2t-2 -1
q-3 -3 -6.5 -8t-1.5 -10q0 -4 8 -8q15 6 29.5 14.5t25.5 16.5t18.5 14.5l7.5 6.5q1 1 4 1l-1 1l56 -18l21 -40v-1zM335 234q12 26 7.5 49.5t-18.5 34.5q-13 13 -44 19q25 -13 30 -34q5 -23 -0.5 -42.5t-17 -35.5t-26.5 -29t-30 -25q-13 -11 -24.5 -20.5t-18.5 -19.5
q-10 -14 -11 -21.5t1 -10.5q2 -5 8 -7t12 -2h10.5t10.5 2q-2 2 -3.5 4.5t-1.5 4.5q-3 8 2 16.5t10 12.5l5 4q7 5 20.5 15.5t28.5 24t28.5 29t21.5 31.5zM339 29q23 12 34 29.5t15 25.5l-41 11q-3 -7 -11.5 -20t-25.5 -26t-44 -24.5t-66 -15.5q8 -1 17 -2t17 -1q61 0 105 23z
M196 248q6 -1 11 -6q7 12 1 22q-3 4 -11 6.5t-19 3t-24 -0.5t-26 -3q-8 -2 -21 -6t-23 -7l40 -13h3q9 3 29.5 7t39.5 -3zM369 125l-37 11l17 -30l1 -1l36 -9z" />
    <glyph glyph-name="afii10070" unicode="&#x435;" horiz-adv-x="373" 
d="M336 87q-9 -12 -26 -23t-38.5 -19t-45 -12t-45.5 -2q-35 3 -67 11t-57 28q-17 14 -29 34.5t-17 51.5q-4 22 -1.5 44.5t10.5 43.5q14 39 46 67.5t81 31.5q18 2 44.5 2.5t54 -5.5t51 -20.5t34.5 -42.5q9 -23 6.5 -51t-21.5 -48q-12 -13 -30.5 -20t-40 -10t-43 -2t-39.5 3
q-3 -7 4.5 -17t12.5 -10q11 0 20 5.5t20 13.5l91 9l27 -54q1 -2 0 -5t-2 -4zM320 273q-9 22 -24.5 34.5t-34 18.5t-38 7.5t-36.5 2.5q35 -10 58.5 -39.5t27.5 -67.5q2 -22 -6 -43.5t-32 -29.5q22 2 42.5 8t31.5 17q17 19 18 45.5t-7 46.5zM305 141l-77 -8l22 -45l77 9z
M250 78q-20 -20 -42 -27t-43 -10q18 -2 40 0t44 7.5t41 14.5t33 23zM169 119q-8 5 -13 15t-3 17q-11 3 -25.5 9.5t-28.5 17.5q-2 -13 3 -24.5t15 -20t23.5 -12.5t28.5 -2zM195 214q8 10 2.5 21t-10.5 16q-17 -4 -21.5 -18.5t3.5 -25.5q8 0 16 2t10 5zM182 256
q-13 15 -32.5 11.5t-28.5 -16.5q-7 -10 -4.5 -17.5t9.5 -12.5t17 -8.5t18 -5.5q-9 15 -2 29.5t23 19.5z" />
    <glyph glyph-name="afii10072" unicode="&#x436;" horiz-adv-x="640" 
d="M19 356h3h4.5t5.5 1h2q1 0 17 0.5t37.5 -0.5t46 -3.5t42.5 -7.5q39 -11 61.5 -30.5t33.5 -38.5l11 130l51 -11l5 -3l33 -26q2 -2 2 -4v-100q14 32 35.5 49.5t41.5 27.5q16 8 35 11.5t37.5 5t34 1t23.5 -0.5q5 0 8 -2l35 -16q3 -2 3 -6l-7 -49q-2 -5 -5 -5l-17.5 -2.5
t-40 -10t-44.5 -21t-31 -34.5t-4 -41t16 -37t24.5 -30t21.5 -20t21 -17t25.5 -19.5t22 -16l9.5 -6.5q4 -4 2 -7l-12 -24q-2 -5 -6 -3l-44 14q-10 1 -34 5t-52 16.5t-55 35t-42 59.5v-45q0 -10 1 -17v-11.5t-0.5 -15.5t-1.5 -15.5t-4 -10.5q-9 -13 -22 -19.5t-24.5 -9.5
t-19.5 -3.5t-9 -0.5q-14 0 -22.5 6t-13.5 13.5t-7 14.5t-1 8l6 73q-6 -11 -16.5 -24.5t-28.5 -29.5q-19 -17 -41.5 -27t-42 -15t-33 -6.5t-15.5 -1.5l-38 19l-9 45q16 5 34 13q14 7 31.5 17t32.5 24q9 7 17 19.5t13.5 28.5t6.5 34.5t-5 39.5q-8 27 -29.5 42.5t-44.5 23.5
q-27 9 -59 11zM449 224q-11 -31 -7 -56t16 -45t30.5 -35t36.5 -25.5t33 -16.5t21 -7q-12 9 -24.5 18.5t-21.5 17.5q-8 7 -22 21t-26 32.5t-17 40.5t4 45q7 19 23 32t34.5 21t36.5 13t31 7q-19 8 -22 10t-4 3q-9 -1 -25.5 -3.5t-35.5 -10.5t-35.5 -23t-25.5 -39zM205 41
q34 31 43.5 52t9.5 22t0.5 4.5t2.5 20.5l-21 15q-10 -40 -33.5 -67t-50.5 -44t-53.5 -26t-42.5 -13l23 -12q4 0 17.5 2t31.5 7.5t37.5 14.5t35.5 24zM362 12q2 3 3 17.5t0 28.5v80l-29 20l-2 -146l-2 -8q-2 -9 -8 -17q10 3 20 8.5t18 16.5zM339 380l-2 -150h27l-1 130z
M271 259q-9 18 -31 41.5t-65 35.5l-32 6l6 -2q16 -6 31.5 -15t28 -21.5t22 -29.5t13.5 -41l25 -1zM587 345l-8 -39l32 -14l5 39zM567 12l34 -11l6 14l-33 15zM364 159q0 4 -1 6l-19 -1l20 -13v8zM263 162h-14l13 -10z" />
    <glyph glyph-name="afii10073" unicode="&#x437;" horiz-adv-x="390" 
d="M143 120q33 2 46 15t13 24q0 9 -5 17.5t-13 14.5q-5 3 -12.5 4t-16 3.5t-16.5 7t-13 13.5l-13 47q14 -1 25 -0.5t19 1.5l-4 8q-6 9 -20.5 9.5t-22.5 0.5l-54 32q-3 1 -3 4l-17 73q33 7 57.5 9.5t41.5 3.5q19 1 33 -1q16 -2 31 -7.5t29 -15.5q10 -6 21.5 -13.5t22 -17.5
t18.5 -20.5t11 -22.5q9 -43 -17 -78q-6 -8 -10 -11q6 -2 14.5 -6.5t17.5 -10.5t17 -14.5t12 -18.5q22 -53 -12 -102q-18 -27 -48.5 -38t-62 -12.5t-59.5 3t-41 7.5q-27 3 -46.5 14t-34.5 24q-3 3 0.5 15.5t9.5 26t12.5 24t10.5 9.5q12 -11 25.5 -15t25.5 -6q14 -2 28 0z
M288 191q6 -14 6 -38t-12 -49t-39 -46t-75 -28q19 -2 40 -1.5t40.5 5t37 14t28.5 26.5q31 45 12 92q-6 14 -21 24.5t-27 16.5q5 -7 10 -16zM291 306q-3 13 -13.5 24.5t-23.5 21.5q5 -8 8 -19q7 -26 -3 -49t-29 -34q-7 -4 -6 -6t6 -4t14 -5.5t18 -10.5q3 2 6.5 5.5t7.5 8.5
q24 31 15 68zM187 281q2 3 3 7q1 3 1.5 6.5t-1.5 5.5q-6 9 -16.5 14t-20.5 7q-11 3 -24 4q-9 0 -19 -1q-8 -1 -18 -1.5t-21 -2.5l43 -25q3 0 9.5 0.5t13.5 -1t13.5 -4.5t10.5 -9t6 -11q6 2 10 3.5t6 3.5q3 2 4 4z" />
    <glyph glyph-name="afii10074" unicode="&#x438;" horiz-adv-x="459" 
d="M500 93q2 -2 0 -7q-9 -23 -35.5 -39t-59 -23t-65 -3t-53.5 20q-29 -17 -63 -20.5t-68 6.5t-64.5 31.5t-51.5 53.5q-3 5 -9 17.5t-12 35.5t-9.5 57.5t-2.5 84.5q0 7 7 7l156 -4q4 0 5 -2.5t1 -4.5v-8.5t1 -20.5t2.5 -24.5t3.5 -20.5q7 -21 20 -33t17 -15q1 3 1 10
q0 15 -2.5 31.5t-6 32t-7 30t-6.5 24.5q-1 2 -0.5 5t5.5 4l75 7h3t10 -0.5t24.5 -1.5t45.5 -2q9 0 10 -8q0 -9 3 -22t6.5 -27t8 -27t7.5 -22q10 -25 34 -59.5t69 -62.5zM287 314q10 -45 21.5 -78.5t24.5 -59.5t28.5 -47.5t35.5 -42.5l88 7q-32 24 -53 49t-34.5 52t-21 55.5
t-12.5 60.5zM175 226q-2 7 -4 17.5t-3.5 21.5t-2 20.5t-0.5 13.5l-52 1q0 -27 1.5 -52t7 -45.5t16 -35t27.5 -19.5q23 -7 36 -0.5t17 23.5q-10 5 -23.5 20t-19.5 35zM246 108q-15 -25 -34 -38t-36 -18t-29.5 -5.5t-14.5 -0.5q16 -6 35.5 -10.5t39 -4.5t38.5 4.5t35 15.5
q-7 8 -15 21t-19 36zM401 75q-14 -15 -28.5 -24t-45.5 -17q18 -4 41 -3t46.5 6.5t43.5 16.5t31 28z" />
    <glyph glyph-name="afii10075" unicode="&#x439;" horiz-adv-x="459" 
d="M500 61q2 -2 0 -7q-9 -23 -35.5 -39t-59 -23t-65 -3t-53.5 20q-29 -17 -63 -20.5t-68 6.5t-64.5 31.5t-51.5 53.5q-3 5 -9 17.5t-12 35.5t-9.5 57.5t-2.5 84.5q0 7 7 7l156 -4q4 0 5 -2.5t1 -4.5v-8.5t1 -20.5t2.5 -24.5t3.5 -20.5q7 -21 20 -33t17 -15q1 3 1 10
q0 15 -2.5 31.5t-6 32t-7 30t-6.5 24.5q-1 2 -0.5 5t5.5 4l75 7h3t10 -0.5t24.5 -1.5t45.5 -2q9 0 10 -8q0 -9 3 -22t6.5 -27t8 -27t7.5 -22q10 -25 34 -59.5t69 -62.5zM364 388q-38 -25 -84 -38.5t-92 -10t-86.5 25.5t-67.5 69q-1 7 4.5 22t12.5 30q8 18 18 37
q11 -17 26 -32q13 -13 30 -24.5t39 -16.5q21 -5 46.5 -2.5t48.5 6.5q26 4 53 12l58 -40zM287 282q10 -45 21.5 -78.5t24.5 -59.5t28.5 -47.5t35.5 -42.5l88 7q-32 24 -53 49t-34.5 52t-21 55.5t-12.5 60.5zM175 194q-2 7 -4 17.5t-3.5 21.5t-2 20.5t-0.5 13.5l-52 1
q0 -27 1.5 -52t7 -45.5t16 -35t27.5 -19.5q23 -7 36 -0.5t17 23.5q-10 5 -23.5 20t-19.5 35zM304 420q-11 -6 -36.5 -15t-56.5 -15.5t-63.5 -7.5t-57.5 8q31 -22 64.5 -30.5t67 -7t66 12t60.5 25.5zM246 76q-15 -25 -34 -38t-36 -18t-29.5 -5.5t-14.5 -0.5q16 -6 35.5 -10.5
t39 -4.5t38.5 4.5t35 15.5q-7 8 -15 21t-19 36zM401 43q-14 -15 -28.5 -24t-45.5 -17q18 -4 41 -3t46.5 6.5t43.5 16.5t31 28zM355 399l4 21l-44 34l-3 -26z" />
    <glyph glyph-name="afii10076" unicode="&#x43a;" horiz-adv-x="436" 
d="M435 121q7 -3 7.5 -14.5t-7.5 -16.5q-3 -3 -9 -7.5t-12.5 -9.5t-12 -8.5t-6.5 -3.5l-98 -30q-11 3 -25 12t-27.5 19t-24.5 18.5t-17 11.5l1 -59q-24 -11 -38 -16.5t-22 -8.5t-11.5 -4.5t-5.5 -2.5q-12 -3 -23 2t-13 10q-5 37 -13 81t-16 89t-16 88.5t-13 81.5q2 0 9 2.5
t16 5.5t18.5 6.5t16.5 5.5q19 7 46 9q14 2 26.5 3.5t13.5 -0.5q3 0 8 -6t8 -18q0 -6 2 -14t2 -14l32 44q6 2 17.5 4.5l23 5t21 4.5t10.5 2t3.5 -0.5t8 -3.5t15 -9.5t25.5 -18.5q6 -4 2 -11l-74 -129l19.5 -13t30 -19.5t34 -22t32.5 -21t25 -16.5t11 -8zM427 117q-3 1 -24 14
t-47.5 29t-50.5 31.5t-32 21.5l-63 -11l145 -105zM210 210l63 11l70 128l-56 -16zM175 377q-3 0 -17 -0.5t-35 -3.5q5 -3 8 -8q2 -3 4 -14.5t4 -26.5t3 -31t1 -28l48 60q-3 3 -4 15t-4 21q0 5 -1 7.5t-3 4.5zM195 101q-6 6 -12 10.5t-20 13.5l-4 -100l36 16v60zM279 341
l64 20q-12 6 -24.5 13t-15.5 7t-22.5 -4.5t-37.5 -7.5zM391 69q3 3 16.5 12.5t19.5 15.5q3 3 3 5q2 4 -67 -13l-48 -44z" />
    <glyph glyph-name="afii10077" unicode="&#x43b;" horiz-adv-x="498" 
d="M25 99q26 -4 51 1q21 5 44.5 19.5t41.5 46.5q16 29 28.5 63t22 64.5t14.5 54t6 32.5l177 -3q3 0 7 -2l53 -38q2 -2 2 -4l16 -314q0 -2 -1.5 -8t-6 -13t-13.5 -13.5t-24 -9.5q-14 -3 -28.5 1t-25.5 10t-18.5 11.5t-8.5 5.5q-4 4 -7.5 9.5t-6.5 10.5t-4.5 8t-0.5 3l-5 187
q-4 -22 -11 -48.5t-17.5 -52.5t-24.5 -50.5t-32 -41.5q-31 -28 -56 -42t-43 -20t-28 -5.5t-11 0.5q2 0 -1.5 1l-14 4t-30 9.5t-49.5 17.5zM417 362l10 -347q-4 -5 -9 -9t-10.5 -7t-12.5 -4q11 -5 22.5 -8.5t23.5 -1.5q23 5 29.5 18.5t6.5 15.5l-15 311zM336 311l-31 4
l31 -20v16zM198 68q-17 -20 -37 -33t-40.5 -21.5t-40 -13t-33.5 -6.5l69 -23q1 0 11 0.5t27 6t40.5 19t51.5 39.5q18 17 32 41.5t24 51.5t16.5 53.5t10.5 48.5t5.5 36t1.5 15l-50 33q-3 -28 -11 -63t-20 -69.5t-26.5 -65t-30.5 -49.5z" />
    <glyph glyph-name="afii10079" unicode="&#x43d;" horiz-adv-x="391" 
d="M287 312q4 -3 11.5 -9.5t22.5 -17.5q2 -2 2 -5l-1 -14.5t-2.5 -33.5t-2.5 -38.5t-1 -31.5q1 -24 10.5 -51.5t20.5 -47.5q2 -4 7.5 -12.5t11.5 -17.5t11 -16t5 -8q2 -5 -2 -8q-2 -1 -16.5 -8t-36.5 -9q-20 -1 -35 5t-24 8q-12 3 -28 14t-27 31q-11 18 -17 43.5t-8 54.5
l-46 -2l-8 -146q0 -5 -4 -5l-38 -6h-2l-52 10q-3 0 -4 6l-18 324q44 -2 61 -7t21 -8l51 -32q2 -2 2 -5l-3 -49l39 -1l9 93q8 6 19.5 8.5t23.5 2.5t23 -2t20 -5zM280 303q-2 -10 -4 -26.5t-3.5 -36t-2.5 -40t0 -38.5q1 -30 8 -53.5t15.5 -41t17 -29t12.5 -15.5l43 -9
q-7 10 -16 24.5t-12 19.5q-11 19 -21 48t-11 56q0 11 0.5 28.5t1.5 35t2.5 32t1.5 20.5zM132 139l-35 16l-7 -145l35 -9zM138 220l3 47l-40 24q1 -14 0 -70zM187 151v14l-75 -6l26 -11zM326 -6q11 1 20 4t16 6l-42 9q-9 -9 -24 -14q15 -5 30 -5zM91 -9l19 3l-23 6l-24 -3z
" />
    <glyph glyph-name="afii10080" unicode="&#x43e;" horiz-adv-x="382" 
d="M171 112q9 0 17 8.5t12 17.5q-5 2 -17.5 14.5t-15.5 40.5q0 25 6.5 37.5t11.5 17.5q-10 11 -26 16t-25 3q-18 -5 -27.5 -16.5t-13 -25t-2.5 -27t4 -22.5q3 -11 10.5 -22t17.5 -20.5t22 -15.5t26 -6zM204 145q3 6 5 19t1.5 27.5t-5 28t-15.5 21.5q-3 -3 -10 -15t-4 -34
t12.5 -33t15.5 -14zM384 241q5 -17 6 -39.5t-2.5 -45.5t-11 -44.5t-18.5 -36.5q-21 -29 -50.5 -43.5t-59.5 -18.5q-48 -7 -92.5 2t-79.5 33q-29 20 -46.5 51.5t-17.5 75.5q0 43 12 72t30 47t37.5 26.5t34.5 12.5q3 3 31 11t67 8q55 0 98.5 -25.5t61.5 -85.5zM351 83
q11 16 17.5 36t9.5 41t2.5 41t-4.5 35q-11 39 -34 62t-52.5 34t-62.5 11.5t-64 -6.5q31 0 61.5 -17t52.5 -53q9 -14 15.5 -33t9.5 -41t2 -44.5t-8 -43.5q-10 -30 -32.5 -52.5t-48.5 -30.5q10 -2 27.5 -0.5t37 8.5t38.5 19.5t33 33.5z" />
    <glyph glyph-name="afii10081" unicode="&#x43f;" horiz-adv-x="428" 
d="M404 192q2 -29 3 -61t1 -58q0 -3 -4 -6l-55 -26l-84 -3q-14 69 -25 104q-14 41 -31 55q-9 1 -16 -13.5t-8 -30.5q-1 -10 -2 -30.5t-2.5 -41.5t-3.5 -38t-4 -20l-63 -26l-52 4q-3 0 -3 4l-37 305q1 4 4 4l84 33l63 3q7 1 7 -3l11 -37q6 3 37.5 10t76.5 5q17 -1 34 -7
t31.5 -21t24.5 -40t13 -65zM397 74q1 6 1 25.5v40t-0.5 36.5l-0.5 16q-3 37 -12.5 61t-23 38t-29.5 19.5t-31 6.5q-39 2 -62 -3q32 -12 48.5 -30t25.5 -58q6 -26 9 -64t6 -92zM187 203q-9 0 -20 -3.5t-20.5 -9t-16.5 -12t-9 -12.5q-1 -5 -2 -22.5t-2.5 -40.5t-2 -48.5
t-0.5 -45.5l51 21q4 12 5 35t2.5 47.5t4 46.5t10.5 33q2 4 4.5 7t-4.5 4zM169 339l-55 -3l11 -63q28 22 51 33zM349 52l30 11l-56 -3l-29 -11z" />
    <glyph glyph-name="afii10082" unicode="&#x440;" horiz-adv-x="425" 
d="M268 171q3 4 4.5 12.5t1.5 18t-2 19t-8 16.5q-5 -5 -11 -15.5t-3 -24.5q2 -8 8.5 -15.5t9.5 -10.5zM257 245q-5 8 -16 12t-25 2q-22 -4 -31 -25.5t-5 -47.5q5 -21 22.5 -33.5t39.5 -7.5q6 2 13 6t9 9l-5 5t-8 9t-7.5 11.5t-3.5 13.5q0 17 6 28.5t11 17.5zM419 226
q7 -67 -30 -121q-14 -20 -35.5 -33t-47 -20t-52 -8.5t-49.5 2.5l-40 -224q0 -3 -4 -4l-65 -11l-60 -4q-7 0 -7 5q0 1 3 138t8 413q0 7 7 7q51 -2 73 -2.5t26 -0.5q2 0 22.5 -1t58.5 -3q4 0 4 -4l4 -26q14 3 42 4t54 -7q35 -11 59 -38.5t29 -61.5zM150 351l-3 -47
q12 9 25 14.5t24 7.5t18.5 2.5t9.5 0.5v22h-74zM158 -175l36 225q-22 2 -35 6t-24 12l-36 -254zM382 109q17 26 25 56.5t4 60.5q-5 31 -28 56t-56 36q-17 5 -37 6t-37 -2q21 -7 37 -22t26 -33.5t14.5 -39t3.5 -38.5q0 -24 -8 -47t-22 -41.5t-34.5 -31t-45.5 -16.5
q21 -3 44 -1t44.5 9.5t40 19t29.5 28.5z" />
    <glyph glyph-name="afii10083" unicode="&#x441;" horiz-adv-x="364" 
d="M364 139q4 -5 0 -10q-5 -9 -19 -29.5t-48 -40.5q-56 -33 -114 -33q-8 0 -21.5 0.5t-28 2.5t-28 5.5t-21.5 8.5q-35 23 -53.5 57t-16.5 88q1 25 11 47.5t25.5 39.5t36 28.5t41.5 15.5q7 1 38.5 5t79.5 -4q23 -4 43.5 -14t21.5 -11q4 -2 1 -8l-22 -55q0 -2 -3 -3t-5 -1
l-80 -3q-8 5 -16.5 9t-16.5 4q-5 -5 -10 -14.5t-5 -20.5q0 -18 8.5 -29t20 -17.5t23 -9t18.5 -3.5q5 5 10 8.5t13 8.5l11 5l80 4l18 -21t8 -10zM213 136q-14 2 -28.5 6.5t-25.5 15.5q-8 7 -11.5 18t-3 22.5t4.5 22.5t12 19q-23 1 -40 -7.5t-22 -22.5q-8 -23 1.5 -45
t27.5 -36q9 -5 16 -8t15.5 -3t20.5 4.5t33 13.5zM286 129q-16 -29 -32.5 -46t-31.5 -27t-28 -14.5t-22 -8.5q36 0 65 8.5t57 25.5q27 17 42 37.5t20 28.5zM227 284l-22 -52l78 4l18 48h-74zM334 162l-74 -3l23 -23l69 4zM294 291q-25 15 -58 21t-57 5q11 -3 24 -8.5
t24 -13.5z" />
    <glyph glyph-name="afii10084" unicode="&#x442;" horiz-adv-x="572" 
d="M310 89q-3 -1 -7 -2t-8 -1l-54 -6q-4 1 -4 3q-5 39 -8.5 64t-6.5 36q-7 -10 -8.5 -30.5t-1 -45t3 -49.5t3.5 -43q0 -6 -4 -8l-6 -3q-7 -3 -19.5 -6t-27.5 -6t-32 -5.5t-32 -5.5q-10 0 -12 7q-2 6 -5 22t-10 53.5t-19.5 101.5t-31.5 165q3 12 41 16q22 2 46 7.5t45 2.5
q11 -2 19.5 -9.5t10.5 -12.5q8 3 21 6t27.5 4.5t28 2t22.5 -1.5q17 -3 27.5 -12t13.5 -14q23 14 52 18t57.5 -1.5t52 -19t36.5 -34.5q22 -36 29.5 -79.5t3.5 -104.5q-2 -26 -4 -37t-3 -14t-4 -4q-2 -1 -3 -1l-66 -25h-70q-4 0 -4 5q0 72 -12 118t-18 57q-2 -2 -3 -7.5
t-1 -7.5q0 -5 -0.5 -17t-0.5 -23q-1 -14 -1 -29q0 -7 -6 -8zM277 337q-11 2 -28 1t-25 -6q17 -6 31 -19t19 -27q7 7 14.5 14t25.5 15q-2 3 -11 11.5t-26 10.5zM152 345q-8 2 -25 0t-34 -5q7 -2 11.5 -7.5t8 -13t6.5 -15.5t8 -15q5 11 16 22t28 19q0 8 -19 15zM204 161
q2 17 7 25.5t8 10.5q-7 15 -13.5 20.5t-16.5 5.5q-17 0 -26 -9.5t-13 -25t-4 -34.5t2 -37.5t4.5 -34t3.5 -24.5q2 -23 3 -35.5t1 -20.5l49 13q-2 8 -3 29t-2 45t-1 44.5t1 27.5zM351 113q3 5 3.5 24.5t0.5 45.5q0 5 2 12t5 10q-6 8 -16 11t-20 0.5t-18 -10.5t-8 -20l1 -89z
M546 102q4 58 -4.5 98.5t-28.5 74.5q-9 15 -23.5 26.5t-32 18t-36.5 8t-37 -1.5q12 -2 23.5 -11t20.5 -20.5t15.5 -24t10.5 -21.5q3 -8 8 -23t9 -41.5t6 -64.5t-1 -92l63 22q0 3 2.5 16t4.5 36z" />
    <glyph glyph-name="afii10085" unicode="&#x443;" horiz-adv-x="376" 
d="M342 302l36 -22q0 -1 -9.5 -33.5t-24.5 -78.5t-34 -98t-38 -92q-65 -134 -151 -169q-39 -15 -74 -15.5t-61 11t-41.5 32t-15.5 46.5q0 22 2 34t6 25q2 5 7 3q39 -18 69.5 -20t56 11t48 41.5t47.5 70.5q-67 2 -97.5 30.5t-35.5 87.5q-1 10 -1.5 21.5t-1.5 29t-2 41.5
t-2 59q0 4 8.5 8t19.5 6.5t20 3.5t11 0q35 9 64 5t54 -12q3 -2 4 -3t1 -6q-1 -9 -3 -29.5t-2 -49.5q0 -8 2 -17q2 -8 4.5 -16t7.5 -15l45 110h81zM264 -18q13 24 25.5 56t24 65t21 65t17 57t11.5 39.5l4 14.5l-66 -2q-24 -92 -54 -177.5t-82 -165.5q-20 -31 -44 -52
t-48 -34.5t-45 -20.5t-36 -10q6 -5 18.5 -8.5t30 -4.5t37 2t39.5 11q42 19 78.5 58.5t68.5 106.5zM176 155q1 0 5 -0.5t9 1.5t11 7.5t12 17.5q-8 8 -11.5 18.5t-5.5 19.5q-2 11 -2 21q0 20 1.5 43.5t2.5 34.5l-52 -1q-5 -90 4 -126t26 -36zM349 288l-11 7h-52l15 -8z
M124 332q5 -3 10 -4t10 -3h37q-14 3 -28 5t-29 2z" />
    <glyph glyph-name="afii10086" unicode="&#x444;" horiz-adv-x="572" 
d="M104 83q-24 5 -40.5 21t-26 35.5t-13 39t-2.5 31.5q1 13 7 33.5t19.5 41t36.5 36.5t59 21q16 1 34 -2q15 -2 33.5 -9.5t37.5 -22.5l12 79l57 17q3 2 7 0l35 -17q3 -2 3 -5l-6 -54q16 4 29 4h12q5 0 15 -2q1 0 14.5 -1t32 -6.5t38 -16.5t33.5 -31q21 -31 23.5 -66
t-4.5 -61q-10 -35 -34.5 -58.5t-48.5 -32.5q-23 -8 -44 -9.5t-40 1.5t-34.5 9t-25.5 11l-18 -134l59 -19q1 0 1.5 -0.5t3.5 -4.5t8.5 -11.5t16.5 -20.5q3 -3 1 -7q-1 -1 -13 -21t-38 -39q-26 -18 -48.5 -22.5t-35.5 -3.5q-8 0 -19.5 3t-22 6.5t-18.5 6.5t-9 3
q-10 4 -14.5 13.5t-6 21t-1 21t1.5 13.5q5 30 10 55t10 52t11 59t14 76q-2 -10 -12 -18t-26 -12.5t-35.5 -5.5t-38.5 3zM522 269q-13 19 -32.5 29t-37.5 15q20 -14 32 -35t14 -50q2 -46 -13 -81.5t-51 -61.5q-15 -11 -35.5 -15t-39.5 -4q21 -6 48 -8t56 9q22 8 45 30t32 54
q7 24 4.5 56.5t-22.5 61.5zM329 -110q-39 -49 -66.5 -65.5t-41.5 -18.5q23 -8 39 -10q12 0 33.5 4t44.5 21q20 14 31 29.5t14 22.5zM279 97q-8 -48 -14 -92.5t-11 -77.5l40 5l19 143q-11 6 -17.5 10t-16.5 12zM124 220q-10 -26 -1.5 -43t21.5 -23q8 -3 19.5 -1.5t22.5 9.5
q-9 6 -13 14q-10 16 1 42q8 16 18 22t19 8q-3 7 -8 12t-16 8t-28 -4q-22 -8 -35 -44zM390 253q-24 6 -44 -7.5t-27 -44.5q-4 -16 1 -26t12 -15q8 -7 19 -10q11 -1 21 2q-8 6 -13 18.5t1 32.5q8 23 24 28.5t28 3.5q-3 7 -8 11.5t-14 6.5zM370 200q-6 -19 0.5 -29.5
t12.5 -14.5q11 5 16.5 13t9.5 16q3 7 5.5 18t0.5 22q-1 0 -6.5 1t-12.5 -0.5t-14.5 -7t-11.5 -18.5zM320 395q-2 -17 -4 -40t-6 -49q17 13 36 18l6 55zM209 192q10 28 5 47q-7 -2 -15.5 -7t-14.5 -19q-9 -20 -2 -33q2 -5 5.5 -7t6.5 -4q10 9 15 23zM359 -94l-48 16l19 -22h1
t5.5 -1.5t13 -4.5t25.5 -8z" />
    <glyph glyph-name="afii10087" unicode="&#x445;" horiz-adv-x="406" 
d="M413 104q2 -3 0 -5.5t-4 -4.5l-48 -40q-6 -6 -17 -6l-75 -3q-14 3 -22 11t-19 20t-25 28q-11 -12 -24.5 -27.5t-26 -29.5t-21.5 -24t-12 -11h-81q-6 0 -11.5 3t-9 8t-4.5 10.5t3 11.5q18 26 27 39.5t17.5 25.5t21 27.5t36.5 46.5q3 3 -1 7l-76 97q-3 4 -3 14t14 19l41 33
l66 2q1 0 3.5 -0.5t4.5 -2.5l55 -58q17 17 30 28t25 16q4 1 12 4t19 5t24.5 2.5t28.5 -3.5q14 -4 22 -13t8 -13l-88 -103zM402 104l-110 110h-56q8 -11 20.5 -25.5t27 -29.5t28.5 -29.5t24 -25.5h66zM314 317q-25 -28 -44.5 -50t-33.5 -42h59l81 92h-62zM115 23
q3 2 11.5 11.5t20.5 22t25 27.5t24 27l-26 30l-110 -118h55zM163 347h-55l80 -89l29 31zM350 58q3 0 8.5 4t11.5 9.5t12.5 11.5t12.5 10h-59q-20 -14 -32 -24t-20 -13zM361 339q-19 3 -35 1t-27 -4q12 -2 18 -11l60 1q0 3 -5 7t-11 6z" />
    <glyph glyph-name="afii10088" unicode="&#x446;" horiz-adv-x="487" 
d="M61 47q-13 12 -21 29t-12.5 36.5t-6.5 41t-2 42.5q0 48 8 102q31 6 47 9.5t23 5t8.5 1.5h3.5l44 -19q3 0 3 -5l-0.5 -17t-0.5 -40t1.5 -46.5t6.5 -36.5q1 -8 7 -12q14 17 24.5 45.5t16.5 55.5q7 32 11 65l101 4l48 -28q3 -2 3 -5q0 -1 -4 -21t-8 -46.5t-5.5 -53.5
t1.5 -42q3 -14 10 -21t15.5 -9.5t18.5 -2.5h19l54 -18q5 -3 3 -7l-53 -129q-3 -3 -5 -3l-61 -6h-3l-45 15q-6 2 -3 7l10 26l10 31q-24 6 -37 10t-19 5.5t-7.5 2.5l-1.5 1q-8 -5 -25 -11t-38 -8q-27 -2 -52 6t-44 17.5t-30.5 18.5t-12.5 10zM321 296q-2 -15 -6 -47t-6 -65
t-1.5 -60.5t7.5 -34.5q8 -7 23 -10t32 -3q-18 11 -22 33q-3 14 -2 38.5t4.5 50t7 46.5t5.5 29zM106 304v-45.5t2.5 -61t8.5 -54t17 -24.5q14 -1 29 12q-7 5 -10 16q-4 13 -6 34t-2.5 42t0 39t0.5 25zM377 -53l40 -13l49 119l-47 16zM217 43q-5 -3 -13 -8t-19.5 -9t-26 -6
t-31.5 0q16 -7 34.5 -11.5t38.5 -3.5q17 2 31.5 7t22.5 9zM359 -74l36 4q-17 6 -20.5 7.5t-4.5 2.5l-43 -3zM222 52l19 -11l-6 19q-4 15 -4 23v6zM330 5q1 4 2 7t1 5v4q-4 -1 -8 -3q-9 -3 -24 -5z" />
    <glyph glyph-name="afii10089" unicode="&#x447;" horiz-adv-x="366" 
d="M42 128q-8 4 -15 10t-11 14q-13 25 -13.5 58.5t3.5 63.5q4 35 14 71l96 2l43 -20q3 -2 3 -6q-2 -11 -4.5 -28.5t-5 -36.5t-3 -35.5t2.5 -24.5q4 -10 18.5 -12t28.5 0l2 160l67 24q1 0 2 -0.5t5.5 -2t13.5 -5.5t27 -10q3 -2 3 -5l25 -343q1 -1 0 -3.5t-4 -4.5l-5.5 -1
t-13 -1.5t-15.5 -1t-14 0.5q-37 4 -52 14.5t-17 12.5q-9 6 -14.5 15.5t-7.5 17.5q-3 10 -3 20l1 35q-8 -2 -18.5 -3t-23.5 -2q-26 -2 -47 2t-36 9t-23 10t-9 5v1zM269 356l24 -339l40 -8l-24 332zM114 336l-5.5 -33t-5.5 -42.5t-1 -41t7 -28.5q8 -11 23.5 -14t32.5 -2
q-18 5 -23 18q-3 9 -3 27.5t2.5 38t5 36.5t4.5 24zM154 125q-8 -2 -26 -5t-38 -2q14 -4 30 -6t36 -1q26 1 43 6v30q-6 -5 -18.5 -12t-26.5 -10zM293 1q5 -1 11 -0.5t12 1.5q-22 5 -25.5 6t-4.5 1q-9 -3 -19 -3q13 -4 26 -5z" />
    <glyph glyph-name="afii10090" unicode="&#x448;" horiz-adv-x="626" 
d="M125 340q3 0 5 -2l34 -23q4 -2 2 -6l-3.5 -14t-6.5 -34t-4 -42.5t3 -40.5q8 -29 16 -42.5t21 -17.5q7 -2 13.5 -0.5t11.5 3.5q-5 36 -1 75t11 71q8 38 20 74l68 -2l1.5 -1.5t3.5 -2.5t10 -7t21 -14q2 -2 2 -5l-2 -20.5t-4.5 -46.5t-3.5 -50.5t1 -34.5q6 -30 25 -33
q19 21 31 56.5t19 70.5q8 40 12 85l82 9l1.5 -0.5t6.5 -3.5t16.5 -9t31.5 -16q4 -3 3 -6q-5 -27 -9.5 -59t-8 -61.5t-5 -51.5t1.5 -28q5 -11 8 -13t7 -4q1 -1 2.5 -1t7.5 -2t20 -6.5t40 -13.5q5 -2 3 -7q-8 -22 -13 -34t-7 -18t-3 -7.5l-1 -1.5q0 -1 -4 -4.5t-12.5 -7
t-21.5 -5.5t-31 1q-11 2 -25.5 6t-27.5 8.5t-23 8t-13 5.5q-10 -9 -30.5 -20t-48.5 -6q-13 2 -27 5t-25 6.5t-19 6.5t-9 4q-17 7 -30 16q-3 -4 -10.5 -10t-18.5 -11.5t-24.5 -8.5t-29.5 0q-15 2 -33 6.5t-31 8.5q-16 2 -30.5 7.5t-24.5 13.5q-14 12 -28.5 33.5t-20.5 59
t0.5 94t35.5 138.5zM511 334q-3 -16 -9 -50.5t-9 -71.5t-0.5 -69t15.5 -44q11 -10 24 -11.5t22 -0.5q-5 4 -12 18q-4 9 -2.5 37.5t6 61.5t9 63t6.5 41zM125 329q-16 -64 -18 -106.5t3 -68.5t15.5 -39t20.5 -17q11 -5 28 -4t40 15q-12 -5 -25 -1q-16 5 -26 20.5t-18 47.5
q-4 16 -3.5 36.5t3 40t5.5 34.5t5 21zM313 328q-3 -12 -6.5 -33t-6.5 -46t-4 -50.5t1 -46.5t8.5 -35t19.5 -14q17 0 35 13q-20 8 -26 39q-2 10 -1 32t2.5 46t3.5 45t3 29zM628 61q-23 7 -36 11.5t-19 7t-7.5 2.5h-1.5l-15 -46l60 -22zM260 32q-15 12 -24 28
q-8 -12 -18.5 -21t-21 -15t-19.5 -9t-13 -4q6 -2 12 -3t11 -2q13 -2 25 0.5t21.5 7t16.5 10t10 8.5zM380 -2q23 -4 41 5t27 17l-8 4q-30 9 -30 11q-5 -5 -22 -15.5t-42 -13.5q8 -2 17 -4t17 -4zM547 -3q24 -5 37.5 -0.5t18.5 8.5l-59 22q-5 -3 -18.5 -8.5t-29.5 -7.5
q13 -5 26.5 -8.5t24.5 -5.5zM418 65l-5 -22q1 0 2.5 -0.5t10.5 -2.5l-6 16z" />
    <glyph glyph-name="afii10091" unicode="&#x449;" horiz-adv-x="651" 
d="M67 63q-8 7 -20.5 24t-20 50.5t-5.5 88t23 137.5q27 -4 42.5 -6.5t23 -3.5t9.5 -1h2l38 -28q3 -3 2 -6l-3.5 -14t-6.5 -34t-4.5 -42.5t3.5 -40.5q8 -30 16.5 -38.5t20.5 -12.5l8 -2q4 2 10 4q-5 32 -1.5 69t10.5 68q7 36 19 72l69 -4l37 -28q4 -2 2 -5l-3 -16.5t-6 -37.5
t-5 -42t0 -31q6 -33 28 -34q18 18 30 50.5t20 64.5q9 37 14 79l74 7h4t4 -1l51 -26q3 -2 3 -5q-5 -24 -10.5 -53.5t-9 -56.5t-5.5 -47.5t1 -26.5q3 -8 9 -12t13 -5.5t14 -2t11 -0.5l8 4q4 2 6 1l47 -23q3 -2 3 -6l-40 -146q-1 -2 -2 -4.5t-4 -2.5h-47q-25 14 -34 19.5
t-8 4.5l6 65q-14 2 -26.5 6t-22.5 7q-15 3 -30 11q-5 -4 -12.5 -9.5t-17.5 -10t-22.5 -6.5t-26.5 0q-37 9 -57 14.5t-36 13.5q-5 -4 -13 -9.5t-18 -9.5t-22 -6t-25 0q-15 3 -32.5 7t-30.5 8q-16 2 -30.5 7.5t-23.5 13.5zM498 340q-2 -11 -5 -30.5t-6 -43t-5 -48.5t-2 -47
t2.5 -39t9.5 -23q8 -8 25 -7.5t34 5.5q-9 2 -17 7t-13 16q-2 6 -1.5 20t2.5 32.5t5 39t6.5 39t6 33.5t4.5 22zM117 342q-15 -73 -13.5 -114.5t9.5 -63t19 -28t15 -7.5q5 -2 12 -2.5t18 2.5q-13 5 -21.5 16.5t-15.5 39.5q-4 16 -3.5 36.5t3 40t5.5 35t5 21.5zM300 331
q-4 -16 -9.5 -48t-7 -64t5 -57.5t27.5 -28.5q16 -1 30 8q-11 2 -18.5 12.5t-11.5 27.5q-2 10 -0.5 28.5t4.5 38.5t6 37t5 23zM587 110l-27 -141l4 -2q3 -2 10 -5t19 -9l38 135zM251 57q-13 7 -24 21q-17 -18 -36.5 -26t-26.5 -10q6 -2 11 -2.5t10 -2.5q22 -4 39 4t27 16z
M357 34q23 -4 41.5 5.5t27.5 17.5l-29 9q-5 -3 -22 -13t-44 -13zM550 -52h31q-19 9 -21 10.5t-4 2.5h-28zM412 80q-3 11 -4 17.5t-1 9.5l-7 -31l15 -5q-1 2 -2 4.5t-1 4.5zM500 40q6 -2 14 -4l1 10q-1 0 -4 -2t-11 -4z" />
    <glyph glyph-name="afii10092" unicode="&#x44a;" horiz-adv-x="480" 
d="M317 276q15 -1 34 -5.5t38.5 -14t37 -25t27.5 -37.5q7 -16 8.5 -33.5t0 -34t-5.5 -30t-7 -21.5q-9 -18 -19 -30t-20.5 -20t-21 -12.5t-19.5 -7.5q-19 -7 -46 -8t-51 0l-1 -26q0 -3 -1 -3.5l-3 -1.5l-52 -6h-2l-47 15q-3 1 -3 3l-26 310q-12 -1 -26.5 -1.5t-25.5 1.5
q-23 5 -37.5 15.5t-18.5 12.5l-15 73q9 -2 21 -4q11 -2 26.5 -3.5t36.5 -2.5q36 -2 69 0.5t42 4.5h4l53 -33q3 -2 3 -5v-71q8 2 14.5 2h11.5h9q2 0 5 -0.5t7 -0.5zM440 80q3 7 7 19.5t5.5 27.5t0 31.5t-8.5 31.5q-11 26 -32.5 41.5t-44.5 23.5q14 -11 24.5 -27t14.5 -40
q6 -42 -5.5 -81t-46.5 -67q-9 -7 -20 -13q-10 -5 -24 -10.5t-31 -8.5q23 -2 46.5 -0.5t40.5 7.5t37.5 18t36.5 47zM260 191q-5 -1 -16 -3t-24 -7v-111q11 -2 21.5 -1t18.5 3v119zM311 172q-6 10 -18.5 13.5t-22.5 5.5v-116q6 1 9 3q2 1 3 1q9 4 18 13.5t15 22t6 27.5t-10 30
zM213 372l6 -112q25 9 41 12l-1 71zM88 298q10 -2 24 -1.5t25 2.5l-2 19l-26 -3q-18 -2 -32.5 -2t-24.5 1q7 -5 16 -9.5t20 -6.5zM263 -2q-18 2 -30 2.5t-14 2.5l-2 -11l45 -14zM216 -29l26 2q-23 7 -27 8.5t-5 3.5l-26 -4z" />
    <glyph glyph-name="afii10093" unicode="&#x44b;" horiz-adv-x="515" 
d="M518 60q2 -2 3.5 -4.5t-0.5 -4.5q-1 -1 -8 -10t-13 -15q-4 -4 -15.5 -5.5t-24 -1.5t-24 1t-16.5 2q-9 1 -21.5 4t-25 9t-23.5 16.5t-17 27.5q-12 -32 -35 -52q-19 -17 -41 -24.5t-44 -9.5t-42.5 1t-36.5 7l-6 -24q-2 -4 -5 -4l-46 -2q-2 0 -3 1q-15 8 -23.5 13t-12.5 7
t-5 3l-1 1l22 401q17 -2 31.5 -3t26.5 -2q13 -1 26 -1l2 -2l5.5 -5.5t14 -13.5t27.5 -25q2 -2 2 -4l-8 -67h13.5t10.5 -1t9 -1l10 -3q10 -1 24.5 -6t29 -13t28 -19.5t22.5 -24.5q3 28 7 54t9 46q4 24 10 44l64 -5l48 -31q3 -2 3 -5l-1.5 -19.5t-3 -46t-2 -53.5t-0.5 -43
q1 -46 16 -59q8 -8 13 -11.5t16 -9.5zM416 333q-2 -16 -4.5 -48.5t-4.5 -68.5t-1.5 -69t5.5 -48q6 -17 19.5 -26.5t22.5 -11.5h44q-8 5 -13.5 8.5t-12.5 10.5q-11 10 -15 25t-4 42q0 15 0.5 39t1.5 48.5t2.5 44.5t1.5 27zM292 35q13 11 22 26.5t14 35.5q-4 20 -3.5 43.5
t2.5 48.5q-8 16 -23 29t-32 23q12 -12 20.5 -29.5t9.5 -42.5q0 -42 -17 -79t-56 -60q-10 -6 -22 -10q-11 -4 -25.5 -7.5t-31.5 -4.5q15 -3 33 -4.5t37 1t37.5 9.5t34.5 21zM205 166q-5 11 -17.5 17.5t-21.5 8.5l-17 -116q6 0 10 2q2 1 4 1q9 3 19.5 10.5t18 19.5t10 26.5
t-5.5 30.5zM100 79q11 -3 20.5 -3.5t17.5 -0.5l18 118q-6 0 -16.5 -0.5t-23.5 -4.5zM127 267q13 3 23.5 4.5t19.5 2.5l8 66l-41 38zM507 50h-50q-2 -5 -5.5 -10t-8.5 -10q17 -1 32 0t18 4zM124 4q-16 5 -20.5 7t-12.5 4l-5 -14l34 -16zM78 -18h24q-17 8 -20 10t-4 4h-26z
" />
    <glyph glyph-name="afii10094" unicode="&#x44c;" horiz-adv-x="367" 
d="M18 369l82 21q2 0 3 -1l53 -33q2 -2 2 -4l1 -71q8 2 13.5 2h10.5h9q4 0 8.5 -0.5t9.5 -1.5q15 -2 33.5 -6.5t37.5 -14t35 -24t26 -36.5q7 -16 8.5 -33.5t0 -34t-5.5 -30.5t-7 -21q-17 -37 -39.5 -50.5t-40.5 -19.5l-3 -2q-17 -6 -43 -7t-51 1v-26q0 -4 -5 -5
q-8 -2 -17 -2.5t-17 -1.5q-10 -1 -19 -2l-47 15q-2 0 -5 3zM333 195q-12 26 -33.5 41.5t-44.5 23.5q14 -10 24 -26t15 -40q6 -42 -5.5 -81t-46.5 -66q-10 -8 -21 -14q-11 -5 -25 -11t-32 -9q23 -1 48 0t40 6l3 1q17 7 37.5 19t36.5 46q3 7 6.5 19.5t5 28t0 32t-7.5 30.5z
M148 197q-5 0 -16 -2t-25 -8v-110q12 -2 22.5 -1.5t18.5 2.5v119zM199 178q-7 10 -19 13.5t-21 5.5v-116q6 2 8 3t3 1q8 4 17.5 13.5t15.5 22t6 27.5t-10 30zM100 378l6 -112q12 5 22.5 8t19.5 5v70zM151 4q-17 1 -28.5 2t-13.5 1l-3 2l-2 -9l46 -16zM105 -24l27 3
q-12 4 -18.5 6t-9.5 4l-4 2l-30 -4z" />
    <glyph glyph-name="afii10095" unicode="&#x44d;" horiz-adv-x="377" 
d="M19 24q18 6 37 15q16 8 35.5 20t36.5 29q10 10 19 20t16 21l-33 4l-1.5 0.5t-9.5 3t-24.5 8l-46.5 15.5q-3 1 -3 6l7 57l121 -2l6 -2q0 33 -23 52t-51.5 29t-52 12.5t-23.5 1.5l-12 60q-5 10 2 10q2 0 29 2.5t66 0.5t82.5 -11t79.5 -31q13 -9 27 -20.5t25.5 -28t19.5 -39
t9 -52.5q2 -62 -23.5 -115.5t-71.5 -81.5q-22 -13 -46.5 -20.5t-45.5 -11.5t-35.5 -5t-16.5 -1q-32 9 -49 14.5t-26 7.5q-11 3 -13 3zM170 361q17 -7 37.5 -19.5t38 -32.5t28.5 -48.5t10 -68.5q-2 -58 -27.5 -95t-60.5 -58t-72 -30t-62 -12l58 -16q3 0 17 1t34 5t42.5 11
t42.5 19q22 13 39 33t29 44.5t17.5 52.5t4.5 58q-1 32 -10 54.5t-21 37.5t-24.5 24.5t-20.5 14.5q-21 13 -45.5 21t-50 12.5t-50 6t-45.5 1.5q26 -2 51 -6t40 -10zM170 211l-12 -50l17 -6q8 24 5 52zM169 139l3 6q-16 5 -18.5 6.5t-3.5 2.5l-72 7l54 -18z" />
    <glyph glyph-name="afii10096" unicode="&#x44e;" horiz-adv-x="559" 
d="M10 -2q14 6 25 15q10 8 19.5 19t14.5 28q2 8 2.5 24t-0.5 37t-3 45l-4 48q-5 56 -13 123l90 -1l51 -27q3 -2 3 -4l3 -63q9 31 26.5 49.5t36 28.5t34.5 13.5t22 3.5q4 1 13 1q6 1 24.5 2t42.5 -2t50.5 -12t47.5 -27q35 -32 46.5 -78.5t-3.5 -99.5q-25 -81 -97 -104
q-18 -6 -39.5 -5.5t-40 3t-32 6t-14.5 4.5q-32 5 -57 25.5t-42 47.5q0 -11 -3.5 -33t-14.5 -47q-8 -17 -22 -30t-28.5 -21.5t-25.5 -13t-14 -5.5t-14 0.5t-24 4l-26 5t-21 4.5zM528 124q14 50 3.5 94t-43.5 73q-23 20 -53.5 27.5t-56.5 9.5q20 -8 38 -21.5t31 -36.5
q12 -20 20.5 -54t4.5 -69.5t-23.5 -67.5t-62.5 -48q-13 -5 -23 -6q18 -3 38 -3t37 5q33 11 56 35.5t34 61.5zM103 -2q-19 -13 -33 -20t-25 -10q21 -5 38.5 -8t20.5 -2t13.5 5t24 12.5t26.5 20t20 27.5q12 25 15 47t3 30l-53 25q0 -8 -0.5 -24t-5.5 -35t-15 -37t-29 -31z
M282 266q-12 -6 -16 -20t-4 -28q0 -17 3 -36q5 -26 16.5 -40.5t23.5 -21.5t23.5 -8t16.5 0q9 2 21 14q-8 3 -18.5 8.5t-20.5 15.5q-7 7 -12 19t-7 25t0 25t9 21q8 12 20 15.5t22 3.5q-16 13 -31.5 15t-20.5 2q-3 0 -7 -1q-6 -2 -18 -9zM370 248q-7 1 -21 0t-24 -14
q-5 -7 -6.5 -17.5t0 -22t6 -21.5t10.5 -16q9 -10 19.5 -15t18.5 -7q8 12 13 31t0 45q-4 22 -16 37zM142 324l6 -119h41l-4 96zM209 110q-3 6 -5.5 12.5t-4.5 12.5l-35 -4z" />
    <glyph glyph-name="afii10097" unicode="&#x44f;" horiz-adv-x="473" 
d="M131 209q-11 8 -23 17.5t-21.5 22.5t-13.5 31t2 43q4 17 13 29.5t21.5 21t27 14.5t29.5 9q34 8 76 6q54 -6 83.5 -9.5t43.5 -5.5t17 -2.5l3 -0.5l72 -49q4 -2 2 -6l-85 -345q-2 -4 -5 -4q-23 2 -35 3t-18 2l-8 1l-61 30q-4 2 -2 7l2 21q-13 -10 -31 -19t-40 -12
t-41.5 -3.5t-33 0.5t-14.5 1l-1.5 0.5t-7.5 3t-18.5 7.5t-36.5 15q-4 1 -4 4l-7 60q9 -4 24 -3q13 1 32 5.5t47 16.5q41 18 51 32t4.5 24.5t-20 18t-23.5 13.5zM386 375l-78 -350l62 -31l82 335zM216 36q11 5 19.5 11t16.5 11l7 80q-1 -1 -6 -9t-16.5 -19.5t-28.5 -24.5
t-42 -24q-32 -14 -64 -18t-53 -3l43 -18q3 0 16.5 -1t32 -0.5t39 4t36.5 11.5zM174 295q-6 -24 8 -40.5t34 -26.5q23 -12 55 -19v2l-11 6q-10 5 -22 14.5t-15 23.5q-2 16 10 29q8 9 21.5 11.5t26.5 1.5l4 36q-28 4 -51 2q-20 -2 -37.5 -10.5t-22.5 -29.5zM280 286
q-11 1 -22 -0.5t-17 -8.5q-10 -11 -7 -20q2 -11 13 -19.5t18 -11.5q2 -1 3.5 -2t3.5 -2zM316 -3l29 -3l-45 24l-31 2z" />
    <glyph glyph-name="afii10071" unicode="&#x451;" horiz-adv-x="373" 
d="M336 87q-9 -12 -26 -23t-38.5 -19t-45 -12t-45.5 -2q-35 3 -67 11t-57 28q-17 14 -29 34.5t-17 51.5q-4 22 -1.5 44.5t10.5 43.5q14 39 46 67.5t81 31.5q18 2 44.5 2.5t54 -5.5t51 -20.5t34.5 -42.5q9 -23 6.5 -51t-21.5 -48q-12 -13 -30.5 -20t-40 -10t-43 -2t-39.5 3
q-3 -7 4.5 -17t12.5 -10q11 0 20 5.5t20 13.5l91 9l27 -54q1 -2 0 -5t-2 -4zM320 273q-9 22 -24.5 34.5t-34 18.5t-38 7.5t-36.5 2.5q35 -10 58.5 -39.5t27.5 -67.5q2 -22 -6 -43.5t-32 -29.5q22 2 42.5 8t31.5 17q17 19 18 45.5t-7 46.5zM305 141l-77 -8l22 -45l77 9z
M250 78q-20 -20 -42 -27t-43 -10q18 -2 40 0t44 7.5t41 14.5t33 23zM169 119q-8 5 -13 15t-3 17q-11 3 -25.5 9.5t-28.5 17.5q-2 -13 3 -24.5t15 -20t23.5 -12.5t28.5 -2zM195 214q8 10 2.5 21t-10.5 16q-17 -4 -21.5 -18.5t3.5 -25.5q8 0 16 2t10 5zM182 256
q-13 15 -32.5 11.5t-28.5 -16.5q-7 -10 -4.5 -17.5t9.5 -12.5t17 -8.5t18 -5.5q-9 15 -2 29.5t23 19.5zM124 468q10 -1 22.5 -6t17.5 -18q6 -17 2 -35.5t-17 -26.5q-5 -3 -14.5 -5t-20 -3.5t-20.5 -2t-16 -0.5q-17 0 -35.5 7t-21.5 24q-6 31 7 49t33 19q31 -1 46 -1.5
t17 -0.5zM91 461q10 -7 16.5 -17.5t8 -22.5t-2.5 -22.5t-14 -17.5q12 1 25.5 2t19.5 6q9 7 13.5 23t-0.5 28q-3 7 -8 10.5t-10 5.5q-6 2 -13 3zM293 461q9 0 22 -5t18 -19q7 -17 2.5 -35.5t-17.5 -26.5q-5 -3 -14.5 -5t-20 -3.5t-20.5 -2t-16 -0.5q-17 0 -35.5 7t-21.5 24
q-6 31 7 49t33 19q31 -1 46 -1.5t17 -0.5zM260 454q10 -7 16.5 -18t7.5 -22.5t-3 -22.5t-14 -18q14 2 27 3t19 6q9 7 13.5 23t-0.5 28q-3 7 -8 10.5t-10 5.5q-6 2 -13 3z" />
    <glyph glyph-name="afii10100" unicode="&#x453;" horiz-adv-x="419" 
d="M398 91l1 -1t1 -4l-3 -7.5t-9.5 -17.5t-17.5 -21.5t-27 -19.5q-22 -12 -50 -18t-59 -6q-15 0 -32.5 2.5t-32.5 5.5t-25.5 6t-11.5 3q-21 6 -36 22q-12 14 -15.5 29t-1.5 26q7 36 32.5 63t54.5 52q8 5 14 11t12 11h1q0 1 2.5 2.5t5.5 4.5q-2 2 -8 4q-17 6 -36 2.5
t-28 -6.5q-3 -1 -6 -1h-1l-56 20l1 1q0 1 -0.5 1t-0.5 2l-12 45q0 4 3 6q1 0 12.5 5t29 11.5t39.5 13t45 10.5q21 3 40.5 3t31.5 -1q25 -2 45.5 -8.5t30.5 -15.5q16 -14 21.5 -40.5t-8.5 -55.5q-8 -17 -22 -33.5t-29.5 -30.5t-29.5 -24.5t-21 -16.5q-2 -1 -3 -2t-2 -1
q-3 -3 -6.5 -8t-1.5 -10q0 -4 8 -8q15 6 29.5 14.5t25.5 16.5t18.5 14.5l7.5 6.5q1 1 4 1l-1 1l56 -18l21 -40v-1zM261 581q45 -22 48 -27l52 -75q-52 -33 -80 -51.5t-41.5 -27t-16.5 -10.5l-3 -2q-3 -1 -7 1l-39 24l-27 22zM335 234q12 26 7.5 49.5t-18.5 34.5
q-13 13 -44 19q25 -13 30 -34q5 -23 -0.5 -42.5t-17 -35.5t-26.5 -29t-30 -25q-13 -11 -24.5 -20.5t-18.5 -19.5q-10 -14 -11 -21.5t1 -10.5q2 -5 8 -7t12 -2h10.5t10.5 2q-2 2 -3.5 4.5t-1.5 4.5q-3 8 2 16.5t10 12.5l5 4q7 5 20.5 15.5t28.5 24t28.5 29t21.5 31.5z
M219 396l131 84l-37 20l-132 -83zM339 29q23 12 34 29.5t15 25.5l-41 11q-3 -7 -11.5 -20t-25.5 -26t-44 -24.5t-66 -15.5q8 -1 17 -2t17 -1q61 0 105 23zM196 248q6 -1 11 -6q7 12 1 22q-3 4 -11 6.5t-19 3t-24 -0.5t-26 -3q-8 -2 -21 -6t-23 -7l40 -13h3q9 3 29.5 7
t39.5 -3zM302 551l-37 18l45 -60l37 -21zM369 125l-37 11l17 -30l1 -1l36 -9z" />
    <glyph glyph-name="afii10101" unicode="&#x454;" horiz-adv-x="339" 
d="M290 -13q-26 0 -55 4q-25 3 -56.5 10t-63.5 20q-25 8 -49.5 21t-45 34t-34 50t-15.5 69t8.5 68.5t27.5 49t37.5 33t37.5 20.5q15 6 40.5 10.5t50.5 7.5t44 4l19 1l76 -15q6 0 4 -6l-16 -53q0 -3 -4 -3l-18.5 -3.5t-42 -9t-45.5 -11t-31 -9.5q-18 -10 -26 -24.5t-11 -28.5
q34 -1 52.5 -1h27.5h11h2l80 -11q5 -2 4 -6l-4 -43q0 -3 -4 -5q-34 -5 -52.5 -7.5t-27 -4t-10.5 -1.5h-2l-62 7q8 -13 20 -27.5t30 -28.5q16 -12 35 -24.5t35.5 -23t29 -18.5t16.5 -10q5 -2 2 -9l-10 -23q-2 -3 -5 -3zM294 13l-58 10l-7 -20q0 -1 9 -2t20 -2t20 -1.5l9 -0.5
zM252 165q-17 2 -25 3.5t-13 2.5l-6 1l-67 -8l59 -6zM289 204l-74 10l-3 -33l73 -10zM225 332l66 -9l13 42q-26 5 -40.5 8t-21 4.5t-8 1.5h-1.5zM77 236q-5 -29 -2.5 -50.5t10.5 -37.5t19.5 -29t24.5 -25q29 -27 60 -41t44 -19l42 -7q-19 11 -45 28t-49 34
q-22 17 -35.5 34.5t-21.5 31.5q-17 2 -20 2.5t-5 0.5l-17 68h30q3 17 12 34t31 28q6 3 18.5 7t28 7.5t31.5 7t30 6.5l-45 6q-9 -1 -30.5 -4.5t-44.5 -12.5t-42.5 -25.5t-23.5 -43.5z" />
    <glyph glyph-name="afii10102" unicode="&#x455;" horiz-adv-x="367" 
d="M349 248q-1 -7 -8 -6l-98 11q-9 1 -25 -5.5t-19 -24.5q-1 -6 7 -22t19 -34.5t22.5 -37t16.5 -29.5q11 -20 14.5 -44.5t-2.5 -47.5t-23 -42.5t-47 -29.5q-23 -8 -47.5 -10t-47 -1.5t-41 3t-29.5 4.5q-5 1 -6.5 2.5t-2.5 3.5l-14 75q0 7 4 7q22 4 37 7l25 5q28 7 37 23.5
t-1 38.5q-5 13 -16 25t-23 26q-20 23 -36 45t-18 48q-2 40 14.5 68t45.5 43.5t69.5 18t86.5 -8.5q35 -7 67 -14.5t43 -9.5q9 -2 8 -10zM188 226q4 17 16.5 24t23.5 10q-23 4 -43 1.5t-33.5 -11t-18.5 -22t3 -31.5q2 -3 11.5 -20.5t20.5 -38.5t21 -41t13 -29q4 -14 5 -29.5
t-2.5 -30.5t-11.5 -28t-20 -22q-17 -11 -38.5 -17t-38.5 -9q25 0 53 1.5t53 9.5q31 10 47 30t20 43.5t-1.5 48t-17.5 44.5q-26 46 -45.5 74t-16.5 43zM339 252l13 74l-76 17l-14 -82z" />
    <glyph glyph-name="afii10103" unicode="&#x456;" horiz-adv-x="277" 
d="M265 506q14 -5 27 -18.5t9 -43.5q-2 -15 -8 -31t-16.5 -30t-25.5 -23.5t-34 -11.5q-23 -2 -44.5 1.5t-33.5 17.5q-18 21 -15.5 44t15 43t30.5 34.5t32 18.5q12 3 32 3.5t32 -4.5zM290 445q3 23 -5 35.5t-24 18.5q-6 2 -19.5 2t-21.5 -2q18 -12 24 -31t2.5 -39.5t-16 -39
t-32.5 -30.5q42 -2 64.5 22t27.5 64zM171 120q0 -17 11 -27t16 -12q19 -8 31 -15t17 -18q3 -6 1 -17t-7 -21.5t-12 -18.5t-14 -9l-78 -13q-53 17 -74.5 43t-20.5 60q0 31 4 60t13 59t23.5 63t35.5 72l55 10q9 1 11 0l22 -11t11 -7t3 -5.5v-6.5q-1 -9 -5 -24t-12 -41
q-5 -18 -10.5 -37t-10 -35.5t-7.5 -29.5t-3 -19zM177 328l-38 -6q17 -5 23 -12l40 5zM195 72q-8 3 -21.5 15.5t-11.5 32.5q0 6 3 19t7.5 30t10.5 37t12 39q5 20 9.5 37.5t4.5 25.5l-47 -8q-3 -14 -10.5 -35.5t-16 -46t-16 -50t-8.5 -47.5t6 -39t26 -25q15 -6 22 -16.5
t7.5 -21.5t-5 -21.5t-17.5 -17.5l59 11q7 1 13.5 7.5t10 14t5 15.5t0.5 14q-4 11 -16 17t-27 13z" />
    <glyph glyph-name="afii10104" unicode="&#x457;" horiz-adv-x="270" 
d="M171 120q0 -17 11 -27t16 -12q19 -8 31 -15t17 -18q3 -6 1 -17t-7 -21.5t-12 -18.5t-14 -9l-78 -13q-53 17 -74.5 43t-20.5 60q0 31 4 60t13 59t23.5 63t35.5 72l55 10q9 1 11 0l22 -11t11 -7t3 -5.5v-6.5q-1 -9 -5 -24t-12 -41q-5 -18 -10.5 -37t-10 -35.5t-7.5 -29.5
t-3 -19zM177 328l-38 -6q17 -5 23 -12l40 5zM195 72q-8 3 -21.5 15.5t-11.5 32.5q0 6 3 19t7.5 30t10.5 37t12 39q5 20 9.5 37.5t4.5 25.5l-47 -8q-3 -14 -10.5 -35.5t-16 -46t-16 -50t-8.5 -47.5t6 -39t26 -25q15 -6 22 -16.5t7.5 -21.5t-5 -21.5t-17.5 -17.5l59 11
q7 1 13.5 7.5t10 14t5 15.5t0.5 14q-4 11 -16 17t-27 13zM122 461q10 -1 22.5 -6t17.5 -18q6 -17 2 -35.5t-17 -26.5q-5 -3 -14.5 -5t-20 -3.5t-20.5 -2t-16 -0.5q-17 0 -35.5 7t-21.5 24q-6 31 7 49t33 19q31 -1 46 -1.5t17 -0.5zM89 454q10 -7 16.5 -17.5t8 -22.5
t-2.5 -22.5t-14 -17.5q12 1 25.5 2t19.5 6q9 7 13.5 23t-0.5 28q-3 7 -8 10.5t-10 5.5q-6 2 -13 3zM291 454q9 0 22 -5t18 -19q7 -17 2.5 -35.5t-17.5 -26.5q-5 -3 -14.5 -5t-20 -3.5t-20.5 -2t-16 -0.5q-17 0 -35.5 7t-21.5 24q-6 31 7 49t33 19q31 -1 46 -1.5t17 -0.5z
M258 447q10 -7 16.5 -18t7.5 -22.5t-3 -22.5t-14 -18q14 2 27 3t19 6q9 7 13.5 23t-0.5 28q-3 7 -8 10.5t-10 5.5q-6 2 -13 3z" />
    <glyph glyph-name="afii10105" unicode="&#x458;" horiz-adv-x="252" 
d="M275 478q0 -16 -6.5 -39t-18 -45t-28 -39t-35.5 -20q-5 -1 -16.5 -1h-24.5t-23 0.5l-10 0.5q-24 0 -34 18.5t-10.5 45t6 55.5t16.5 50q25 45 94 45q17 0 33.5 -2.5t29 -10t20 -21.5t7.5 -37zM264 478q0 20 -7.5 35.5t-21.5 20.5q-18 7 -48 7q14 -8 21.5 -25.5t4.5 -37.5
q-6 -51 -19.5 -81.5t-44.5 -53.5q9 -1 19.5 -1t21.5 3q18 5 31.5 21t23 36.5t14.5 41t5 34.5zM200 300q10 -3 9 -9q0 -1 -2.5 -16.5t-6 -39t-8 -51.5t-8.5 -54.5t-7 -47.5t-4 -30q-7 -44 -16 -91t-27 -89t-50 -73t-84 -42q-44 -9 -79 -11t-62.5 1.5t-49 10.5t-38.5 15
q-8 9 -16.5 24t-13.5 23q-7 9 4 12q39 8 83 20t94 41q74 45 111 147q9 26 15 57t11 63t9 63t10 56q2 8 4 10t11 5t23.5 5t30.5 2.5t31 0.5t26 -2zM160 44q1 8 4 27.5t6.5 44t8 52.5t9 52.5t7.5 43.5t5 27q-14 3 -30 2.5t-27 -2.5l-22 -132t-15 -87q-5 -30 -9 -53.5
t-8.5 -43.5t-11.5 -37.5t-17 -34.5q-29 -47 -58.5 -73t-60.5 -39t-64 -16.5t-69 -6.5q27 -6 72.5 -10.5t111.5 10.5q49 11 79 40t48 67.5t26.5 82.5t14.5 86z" />
    <glyph glyph-name="afii10106" unicode="&#x459;" horiz-adv-x="505" 
d="M554 86q-10 -26 -23 -41.5t-25.5 -24.5t-24.5 -13t-21 -6l-4 -1q-15 -4 -38 -3t-45 3l-3 -23l-1 -1q-1 -1 -1 -2q-1 0 -1 -1h-1l-1 -1l-55 -6l-2 1l-47 14q-3 1 -3 3h-1l-10 212q-7 -31 -17 -62t-24 -51q-22 -31 -48 -50t-50 -29.5t-43.5 -14.5t-28.5 -5q-3 0 -16 2
t-28.5 4.5t-29.5 5t-19 3.5l-3 3h-3l-5 90q23 -1 46 6q20 6 43 21.5t45 45.5q21 29 35 63t22.5 64.5t12.5 53.5t4 31l-1 4h4l172 -1q3 2 5 1l50 -28q2 -2 2 -5l3 -68q16 3 26 3h9q3 0 13 -2h1q1 0 14 -2t31 -7.5t37 -15.5t32 -26q9 -10 16 -25t10 -34t1 -40.5t-11 -44.5z
M197 89q9 13 16.5 31.5t13.5 39t10.5 41.5t7.5 39l-2 55l-43 18q-2 -28 -7 -59.5t-14.5 -62.5t-24 -60.5t-35.5 -53.5q-16 -19 -35.5 -32t-40 -21t-39.5 -12.5t-34 -6.5q24 -5 43 -8t22 -3q9 1 27.5 5t41.5 14t47.5 28t45.5 48zM458 11q8 2 19 5.5t22.5 12t23.5 23t21 38.5
q18 44 10 79t-24 54q-11 13 -26 22t-30 14q13 -10 23 -26t14 -40q6 -41 -5.5 -80t-46.5 -67q-11 -7 -23 -14q-11 -6 -26 -12t-35 -8v-2q20 -2 42 -2.5t36 2.5zM324 179l1 -103q22 -3 40 2l-1 78zM319 369l5 -104q11 5 21.5 8t19.5 5l-3 67zM376 81q6 2 8 3t3 1q13 6 26 22.5
t13 38.5q-4 4 -8.5 7t-10.5 5q-9 3 -18 1.5t-14 -3.5zM416 177q-8 12 -23.5 15.5t-23.5 4.5q-6 0 -12 -1q-10 -1 -28 -8l41 -23q5 2 16.5 4.5t23.5 -1.5q7 -1 13 -6q-1 4 -3 7.5t-4 7.5zM363 1q-15 2 -25 3.5t-12 1.5t-2 2l-3 -11l39 -13zM310 -23l30 3l-25 8l-2 2l-33 -4z
M225 318l-8 -1l25 -11v12h-17z" />
    <glyph glyph-name="afii10107" unicode="&#x45a;" horiz-adv-x="491" 
d="M371 228q2 0 13.5 -2.5t28 -7t36 -12.5t36.5 -19.5t29.5 -27.5t15.5 -36q9 -65 -41 -114h-1q-17 -16 -42 -23.5t-52.5 -9t-55.5 1t-50.5 7t-37 8t-16.5 4.5q-1 0 -1 0.5t-1 0.5q-3 0 -5 0.5t-4 0.5h-3l-4 128l-49 1q-3 -34 -8.5 -56t-12 -36t-13 -21t-10.5 -11l-1 -1
q-13 -12 -30.5 -16.5t-34 -5t-28 1.5t-12.5 2l-1 1q-8 2 -14 4.5t-10 10.5q15 15 27 36q11 18 20 44t11 61q2 23 2 58.5t1 70.5q0 40 1 84q16 6 39.5 6.5t40.5 -8.5l2 -1l44 -30q3 -2 3 -5l-8 -96q9 1 18 1.5t19 2.5v86v32q8 4 19 7q10 2 25 3.5t37 -0.5q2 2 5 0l46 -32
q2 -2 2 -5l-3 -85q7 -1 13.5 -1.5t13.5 -2.5q1 0 1 1zM482 17q46 43 38 105q-5 29 -29 47t-52 29q16 -13 26 -33t8 -49q-3 -55 -38 -86t-94 -35q-21 -2 -51 0q22 -4 49 -7t53 -1.5t49.5 8t39.5 21.5zM116 12q4 3 9.5 10t11.5 20t11.5 34t8.5 53l-33 23q-4 -30 -12 -64.5
t-19 -52.5q-18 -32 -41 -43q15 0 32.5 3.5t30.5 15.5zM296 342l-4 -112q11 1 20.5 1h19.5l4 83zM165 219l7 96l-33 23l-10 -123zM287 52q5 0 15.5 -0.5t22.5 0.5l4 78l-40 20zM382 81q7 16 7 27q-9 9 -14 11q-8 3 -18.5 5t-17.5 3q0 -12 -1 -35t-2 -39q14 2 26.5 8.5
t19.5 19.5zM216 138l-1 19q-21 1 -41 1h-40l27 -19zM384 126q-6 10 -19 19q-9 5 -25.5 7t-36.5 3l33 -17q3 -1 17.5 -3t25.5 -7q1 0 5 -2z" />
    <glyph glyph-name="afii10108" unicode="&#x45b;" horiz-adv-x="347" 
d="M353 157q-2 -24 -6 -48q-2 -9 -3 -18t-2 -17q-2 -14 3 -29.5t12 -28t13 -21.5l6 -9q2 -2 1 -5t-3 -4l-24 -16q-3 -3 -4 -1l-58 18l-6.5 4t-15 9t-17.5 11.5t-14 12.5q-1 1 -6 8t-9.5 19.5t-7.5 32t0 46.5q0 6 -0.5 14.5t-3 17.5t-9 16t-18.5 9q-10 2 -21.5 0.5
t-16.5 -3.5l-12 -174q-1 -3 -2.5 -3.5t-4.5 -2.5q-3 0 -10.5 -0.5t-16.5 -1t-17 -0.5t-11 1q-5 1 -13 4.5t-15.5 7t-13 7l-5.5 3.5q-2 2 -2 7l18 287q-11 1 -13.5 1h-3.5l-37 14q-3 0 -3 3l-8 56q2 0 21.5 -1t47.5 -2q2 36 3 57.5t1.5 33.5t0 16t-0.5 5q18 4 23.5 3.5
t13.5 -1.5q2 0 10.5 -1t18.5 -3.5t19.5 -7.5t13.5 -13q3 -5 4 -17t1 -26t-0.5 -28t-0.5 -23q15 -1 21.5 -1h8.5l48 -16q4 -2 4 -5l-2 -35q0 -6 -5 -6l-75 -1l-2 -28q26 7 35 7.5t15 0.5q1 1 16 2.5t35 -0.5t41.5 -9.5t36.5 -25.5q31 -39 27 -102zM337 110q2 12 3.5 24
t2.5 24q4 58 -25 94q-15 18 -39 24.5t-44 7.5q17 -7 26 -17q28 -25 33 -65t-3 -77q-4 -17 -5.5 -31.5t0.5 -28.5t9 -28.5t19 -30.5h1t5.5 -1t13.5 -4t25 -8q-9 14 -19.5 37t-7.5 45q1 9 2 17.5t3 17.5zM133 177l-29 12l-17 -166l34 -14zM136 465q-3 6 -11 9.5t-17 6.5
q2 -3 3 -5.5t1 -8.5q1 -8 1 -20q0 -21 -3 -69q8 -1 15 -1h13q1 12 1.5 26t0.5 26.5t-1 22.5t-3 13zM136 282l2 32l-31 11q0 -12 -0.5 -25.5t-1.5 -27.5zM177 364l-2 -24l44 -14l1 24zM361 -19q-18 6 -27.5 9t-14 4.5t-5.5 2l-1 0.5q-2 -3 -6.5 -6t-8.5 -5l48 -15zM183 189
q12 -4 18 -8q-9 9 -23 16q-8 2 -18 3q-8 1 -20 0t-26 -4l25 -11q5 2 18.5 4t25.5 0zM121 331l22 -8h51q-18 6 -21 7.5t-4 1.5zM72 4q2 -1 12 -1t21 1l-25 10q-8 0 -16.5 -1t-15.5 1q15 -8 24 -10zM39 320v9l-35 -1l21 -7z" />
    <glyph glyph-name="afii10109" unicode="&#x45c;" horiz-adv-x="436" 
d="M435 121q7 -3 7.5 -14.5t-7.5 -16.5q-3 -3 -9 -7.5t-12.5 -9.5t-12 -8.5t-6.5 -3.5l-98 -30q-11 3 -25 12t-27.5 19t-24.5 18.5t-17 11.5l1 -59q-24 -11 -38 -16.5t-22 -8.5t-11.5 -4.5t-5.5 -2.5q-12 -3 -23 2t-13 10q-5 37 -13 81t-16 89t-16 88.5t-13 81.5q2 0 9 2.5
t16 5.5t18.5 6.5t16.5 5.5q19 7 46 9q14 2 26.5 3.5t13.5 -0.5q3 0 8 -6t8 -18q0 -6 2 -14t2 -14l32 44q6 2 17.5 4.5l23 5t21 4.5t10.5 2t3.5 -0.5t8 -3.5t15 -9.5t25.5 -18.5q6 -4 2 -11l-74 -129l19.5 -13t30 -19.5t34 -22t32.5 -21t25 -16.5t11 -8zM427 117q-3 1 -24 14
t-47.5 29t-50.5 31.5t-32 21.5l-63 -11l145 -105zM210 210l63 11l70 128l-56 -16zM175 377q-3 0 -17 -0.5t-35 -3.5q5 -3 8 -8q2 -3 4 -14.5t4 -26.5t3 -31t1 -28l48 60q-3 3 -4 15t-4 21q0 5 -1 7.5t-3 4.5zM195 101q-6 6 -12 10.5t-20 13.5l-4 -100l36 16v60zM279 341
l64 20q-12 6 -24.5 13t-15.5 7t-22.5 -4.5t-37.5 -7.5zM391 69q3 3 16.5 12.5t19.5 15.5q3 3 3 5q2 4 -67 -13l-48 -44zM247 611q45 -22 48 -27l52 -75q-52 -33 -80 -51.5t-41.5 -27t-16.5 -10.5l-3 -2q-3 -1 -7 1l-39 24l-27 22zM205 426l131 84l-37 20l-132 -83zM288 581
l-37 18l45 -60l37 -21z" />
    <glyph glyph-name="afii10110" unicode="&#x45e;" horiz-adv-x="376" 
d="M366 217q3 -2 3 -5q0 -1 -5 -37t-20 -90q-23 -84 -53.5 -145.5t-74.5 -109.5q-17 -19 -36.5 -32t-38 -21t-35.5 -12.5t-27 -5.5q-11 -1 -24 1t-24 5t-19 5.5t-9 3.5q-7 2 -13.5 9t-12.5 16.5t-10 19.5t-5 19v16q0 8 1 18.5t5 23.5q13 -10 25 -15t21 -7q11 -3 20 -4h12
t20 3t26.5 10.5t32.5 21.5q14 11 28 27q12 14 25 33t24 43q-20 -5 -36.5 -2t-28.5 8q-14 6 -26 15q-8 7 -16.5 18t-15 24t-11 26t-4.5 24q-1 11 -2 30q-1 17 -1.5 45.5t-1.5 74.5q13 6 24 9t19 5q10 2 17 2t16 -2q8 -2 17 -4t20 -6l50 -39q2 -2 2 -4q0 -7 -0.5 -19
t-0.5 -24.5t0.5 -23.5t1.5 -16q5 -17 16 -25l51 129q13 -7 20 -10t10 -5l4 -2zM432 379q0 -3 -1 -4q0 -1 -8 -8t-23.5 -16t-40 -16.5t-58.5 -8.5q-30 -1 -56.5 2t-47 7t-33 8l-12.5 4q-20 5 -26.5 11t-5.5 6l11 103q2 10 8 7q36 -12 56 -18.5t29 -9.5t11 -3.5l2 -0.5
q5 -5 12 -9q6 -4 16 -8t24 -7q12 0 24 4.5t23 9t18.5 8t10.5 1.5l55 -26q2 -1 3 -3q7 -24 8 -28t1 -5zM334 87q12 46 17.5 79t6.5 43l-34 16q-17 -60 -28 -97.5t-19 -59.5q-9 -26 -14 -39q-6 -15 -12 -29.5t-13.5 -30t-18.5 -35t-28 -44.5q-18 -27 -40 -46.5t-44.5 -33
t-42.5 -22t-35 -11.5q11 -3 24.5 -6t24.5 -1q10 1 25.5 5t33.5 12t37 20t35 30q43 48 72.5 107.5t52.5 142.5zM170 162q1 -7 3 -16t6 -17t10.5 -14.5t15.5 -9.5q6 -2 12 -2q5 0 10 2t9 9q-6 5 -12.5 13t-8.5 20q-2 6 -2.5 17.5t-0.5 24.5t0.5 24.5t0.5 16.5l-42 32
q-2 -32 -2 -51v-30q0 -13 1 -19zM301 337q25 1 45 5.5t34.5 11t23.5 13t14 10.5l-51 22q-5 -5 -15.5 -13.5t-28 -17.5t-42 -16.5t-55.5 -8.5h-14q19 -3 41.5 -5t47.5 -1zM261 415q-14 5 -21.5 11t-9.5 8l-82 26q15 -12 41.5 -27t59.5 -17q4 -1 12 -1zM364 430l4 -21l7 -3
l15 -6t29 -12l-5 19z" />
    <glyph glyph-name="afii10051" unicode="&#x402;" horiz-adv-x="562" 
d="M480 364q20 -15 33.5 -36t20.5 -45.5t8.5 -50t-1.5 -48.5q-3 -22 -5.5 -41.5t-8.5 -40t-16.5 -45t-27.5 -56.5q-20 -38 -49 -65t-56 -44.5t-47 -26t-22 -9.5q-9 1 -21 3t-24 4.5t-21 5.5t-12 6q-3 8 -14 24t-18 24l-2.5 2.5t2.5 2.5q4 2 14.5 6.5t24 13t28.5 23t30 36.5
q-24 -14 -50.5 -14.5t-49 5t-37.5 12t-16 7.5q-5 4 -5 7q-8 136 -13 232.5t-10 162.5l-23 -1l-75 16l-5 89l326 -7l96 -26l-13 -52l-142 -13l3 -38q12 4 22 6l8 2q15 1 30 0q13 1 32 -1t39.5 -6t38.5 -10t28 -14zM531 185q3 22 1.5 46.5t-8.5 47.5t-19 43t-31 34
q-11 9 -34.5 15.5t-47.5 9.5q22 -13 37 -33.5t23.5 -45.5t10.5 -51.5t-1 -51.5q-3 -22 -6 -41t-9 -39.5t-16 -44.5t-27 -56q-12 -23 -28.5 -42.5t-34.5 -34.5t-35.5 -26.5t-32.5 -19.5q-14 -10 -28 -16q9 -3 26.5 -6.5t34.5 -6.5q4 2 24 11t45.5 26.5t52.5 42.5t46 60
q17 31 27 54.5t15.5 44t8.5 39t6 41.5zM292 19l-11 217l-63 18l5 -219zM303 17q17 29 30 72t17 105q2 20 -3 34.5t-12 24.5q-19 -3 -44 -14zM206 355q39 19 65 28q0 11 -0.5 23t-1.5 21l-69 20zM421 482l-84 23l-9 -32q12 -2 38 -8.5t48 -11.5zM395 446q-23 6 -45 11t-28 7
l-105 -11l60 -17zM283 247q23 10 44 15q-17 16 -37.5 14.5t-60.5 -15.5l53 -14h1zM161 19q9 -4 23 -8t30 -6.5t33 -1.5t34 8l-65 15q-17 -5 -31 -6t-24 -1zM115 430q-1 5 -1 14l-71 -5l49 -11z" />
    <glyph glyph-name="afii10062" unicode="&#x40e;" horiz-adv-x="444" 
d="M34 91q8 0 32.5 3t61.5 28q10 7 21 17q9 8 20 20t22 27q-33 7 -47.5 18.5t-30.5 24.5q-17 12 -32.5 35t-23.5 52q-7 30 -11.5 82.5t2.5 145.5q1 6 9 10t20 5.5t26 1.5t27 -1q10 0 22.5 -3t24.5 -7.5t23 -9.5t17 -9q11 -7 11 -15q-9 -81 -6 -127.5t7 -66.5l6 -21
q11 10 21 29q9 17 19.5 53t19.5 71q11 41 22 89l47 1q5 0 9 -2l57 -27q3 -1 3 -5q-10 -59 -22.5 -116t-32 -112.5t-47.5 -108.5t-69 -103q-25 -30 -50.5 -47t-48 -26t-40 -11.5t-25.5 -1.5l-55 35q-2 2 -2 6zM254 77q40 49 68 101t46.5 106t31 110.5t22.5 113.5l-51 24
q-2 -12 -8.5 -41t-14.5 -64q-20 -89 -53.5 -169.5t-94.5 -153.5q-19 -23 -39 -38.5t-38.5 -25t-34.5 -14.5t-28 -6l41 -25q7 -1 23 1.5t37 11t45 25t48 44.5zM400 633q-38 -25 -84 -40.5t-92 -14.5t-86.5 21t-67.5 67q-1 7 4.5 22t12.5 30q8 18 18 37q11 -17 26 -32
q13 -13 30 -24.5t39 -16.5q21 -5 46.5 -2.5t48.5 6.5q26 4 53 12l58 -27zM217 517q0 3 -15.5 10.5t-36.5 15.5q-8 -73 -6 -120t7 -71q6 -25 15.5 -38.5t29.5 -18.5q1 -1 4 -1h4.5t6.5 2q-2 5 -3.5 11t-3.5 13q-5 20 -8 67t6 130zM340 652q-11 -6 -36.5 -15t-56.5 -15.5
t-63.5 -7.5t-57.5 8q31 -22 64.5 -28.5t67 -2.5t66 16.5t60.5 27.5zM391 644l4 21l-44 21l-3 -26zM154 212q8 -5 19 -9.5t25 -7.5l9 16q-15 -4 -28.5 -3t-24.5 4z" />
    <glyph glyph-name="afii10099" unicode="&#x452;" horiz-adv-x="426" 
d="M153 -59q-1 1 7 3t20.5 9.5t28 20.5t29 36.5t24 57.5t13.5 83q1 9 0 17t-6 14q-1 2 -5 4q-3 2 -8 3t-13 1q-14 -1 -22 -3.5t-10 -4.5l6 -176v-4.5t-3 -3.5q-1 0 -11.5 -3.5t-21.5 -5.5q-12 -2 -23.5 0.5t-12.5 2.5t-5 3q-3 2 -10 6t-19 12q-1 1 -3 4q-7 117 -11.5 196.5
t-8.5 132.5l-68 -1l-3 50q1 0 20.5 -0.5t47.5 -1.5q-3 34 -4.5 53.5t-2 29t-1 12l-0.5 2.5q18 5 23.5 5.5t12.5 0.5q3 0 13 -1t22.5 -4t23.5 -8.5t15 -15.5l1 -10q1 -8 2 -23t4 -44h27t18 -1l47 -21q5 -2 3 -6l-10 -36q-1 -4 -5 -4l-75 1l2 -29q13 5 29 9.5t43 4.5
q2 0 20 -2.5t41 -10.5t44.5 -24t31.5 -43q13 -36 9.5 -77t-16 -78.5t-30 -68t-32.5 -46.5q-21 -20 -45.5 -39t-67.5 -35h-4l-41 16q-3 3 -7 9t-8.5 12.5t-8.5 12t-6 7.5zM318 13q-12 -23 -29 -40.5t-34 -30.5t-33 -22t-26 -14l30 -11q42 16 64.5 33.5t42.5 37.5q13 13 30 42
t29 65.5t16 76t-8 74.5q-10 27 -33 42t-46 22q14 -11 23 -27t14.5 -34t6.5 -36.5t-1 -36.5q-2 -17 -4.5 -32t-7 -30.5t-12.5 -34.5t-22 -44zM171 192l3 -165l33 -14l-7 166zM177 464q-3 7 -13 11.5t-23 6.5q5 -21 8 -47t4 -44q8 0 15.5 -0.5t14.5 -0.5zM161 276q8 5 15.5 8
t14.5 6l-3 35l-32 19q2 -14 3 -31t2 -37zM229 353l41 -18l8 25l-42 18zM242 200q13 0 21 -3q-3 5 -6.5 8t-6.5 5q-10 5 -28 4t-47 -12l27 -12q2 1 11 5t29 5zM180 -1q5 1 10.5 2.5t10.5 2.5l-33 14q-23 -6 -38 -4l18 -12q3 -1 12.5 -2.5t19.5 -0.5zM172 347l23 -13l54 -1
l-31 15z" />
    <glyph glyph-name="afii10067" unicode="&#x432;" horiz-adv-x="402" 
d="M160 445q3 36 -5 48.5t-11 15.5q-5 -5 -12 -20t-12 -36q-3 -14 -5.5 -26.5t-4 -27.5t-2 -34t-0.5 -44q4 7 12.5 21.5t17 31.5t15 35.5t7.5 35.5zM232 177q-6 12 -16.5 20.5t-19.5 11.5q-5 -7 -3 -17t8.5 -18.5t16 -14t18.5 -2.5q0 6 -0.5 9.5t-3.5 10.5zM144 149
q9 -15 26 -27t38 -9q8 5 15.5 13.5t8.5 18.5q-9 3 -20 7.5t-20 16.5t-8.5 23t0.5 17q-13 6 -32 0q-3 -3 -6 -6.5t-6 -9.5q-3 -9 -2.5 -22t6.5 -22zM392 181q5 -39 -4 -72t-28 -56q-23 -27 -53.5 -36.5t-54.5 -11.5q-19 -2 -36.5 1.5t-31 8.5t-22 9.5t-10.5 4.5q-21 9 -39 30
t-31 43t-20 39.5t-6 19.5l-8 40q-15 56 -17 117q-2 51 8 113.5t45 121.5q19 32 40 42t36 10q1 0 13.5 1t29 1t32.5 -3t25 -11q9 -9 19.5 -25t19.5 -37t14 -46t3 -52q-5 -45 -19 -77.5t-41 -50.5q5 -2 15 -4.5t22 -6.5t24.5 -10t22.5 -15q4 -3 12 -9.5t16.5 -17.5t15 -26.5
t8.5 -34.5zM252 585q-9 9 -30 10.5t-42 1.5q21 -9 37 -25.5t23 -34.5q14 -40 14 -80t-18 -76q-9 -30 -30 -52t-42 -40q12 6 34 11t46 5q55 37 64 128q2 27 -3 51t-14 44.5t-19.5 35t-19.5 21.5zM352 57q25 31 27.5 62.5t0.5 57.5q-2 18 -8 32t-13.5 25t-15 17.5t-11.5 9.5
q-19 14 -44 25t-44 11q-21 0 -42.5 -5t-33.5 -11q27 3 49 0t43 -12q55 -31 72 -104q4 -18 0.5 -36.5t-11 -34t-17.5 -28.5t-20 -21q-16 -12 -40.5 -17.5t-51.5 -2.5q12 -6 26.5 -8.5t29.5 0.5q24 0 54 7.5t50 32.5z" />
    <glyph glyph-name="afii10066" unicode="&#x431;" horiz-adv-x="321" 
d="M236 22q-15 -19 -36.5 -26.5t-42.5 -8t-39.5 3t-28.5 6.5q-16 4 -31.5 13.5t-26.5 26.5q-12 19 -18 41.5t-5.5 44.5t7 41t18.5 31q20 20 41 27t47 4q4 0 1 9.5t-8 24t-11 32t-9 32.5q-15 64 -9.5 104t19.5 65q5 9 15.5 22t27 25.5t40 23.5t53.5 17q7 2 9 1l60 -26l2 -2
q0 -1 1 -1l22 -59q2 -5 -1 -6.5l-7 -3.5l-15.5 -4.5t-36.5 -15t-41.5 -27.5t-31.5 -43q-5 -14 -6.5 -29.5t-0.5 -30.5t3.5 -28.5t5.5 -22.5q1 -5 5.5 -17t9.5 -29q6 -16 11.5 -33.5t11 -33t9 -27.5t5.5 -18q7 -29 1.5 -57t-20.5 -46zM176 456q-28 -31 -34 -72t6 -86
q2 -9 12 -36t21 -59.5t20.5 -63t11.5 -47.5q1 -15 -4 -30t-14.5 -27.5t-22.5 -22.5t-27 -14q22 -1 44.5 5t38.5 25q14 17 18.5 43t-1.5 52l-6 18t-9 27.5t-11 32.5t-11 32q-5 17 -9.5 29.5t-5.5 17.5q-1 3 -4 15t-5 29t-1 36.5t9 37.5q10 23 27 39.5t35 28t35 17.5t26 9
l-51 22q-26 -9 -47 -22t-41 -36zM106 154q-22 -7 -32 -25.5t4 -37.5q9 -12 23.5 -16t28.5 0q-28 10 -28 36q0 5 4.5 14t17.5 12q8 2 16.5 0.5t14.5 -3.5q-5 13 -17.5 20t-31.5 0zM303 547l-54 24l18 -47l53 -23zM134 84q3 -1 5.5 -1.5t5.5 -0.5q11 8 13.5 18t0.5 21
q-5 2 -14 5t-18 1q-10 -3 -12 -9t-2 -7q-1 -11 6 -17.5t15 -9.5z" />
    <glyph glyph-name="afii10069" unicode="&#x434;" horiz-adv-x="448" 
d="M373 375q5 -8 2 -43t-8 -89q-5 -30 -11.5 -70t-14 -83t-16.5 -84t-18 -73q-9 -31 -21 -53t-25.5 -37t-28 -25t-28.5 -17q-66 -36 -162 -7q-45 14 -68.5 27t-40.5 35l-28 39q-4 5 -9 12t-1 12l69 92q4 5 8 1l13 -13q13 -13 35.5 -27t40.5 -21q12 -5 27 -7.5t30 -2t28 5.5
t21 16q22 32 29 62q-8 0 -21 1.5t-30 9.5q-60 27 -83 73t-9 97q6 21 19.5 37t30 26.5t35 16.5t33.5 8q42 4 69 3l22 89q1 4 7.5 6t15 2.5t16.5 -0.5t13 -1q4 0 13 -1.5t18 -4t17 -5.5t11 -7zM321 382q4 -10 3 -18.5t-3 -21.5q-16 -89 -26 -143.5t-15.5 -85.5t-7.5 -42.5
t-2 -12.5q-3 -18 -7.5 -39.5t-11.5 -44.5t-18 -46t-26 -42q-28 -34 -58.5 -47.5t-55.5 -11.5q-26 1 -46 5.5t-39.5 12.5t-40.5 21t-49 33l38 -55q5 -4 26 -16t63 -23q43 -12 80 -14t75 17q13 7 27 16.5t27 24.5t24.5 36.5t20.5 51.5q10 30 19 70.5t16 81.5t12.5 78t8.5 61
q3 19 6 42t5.5 44t2.5 36t-3 18q-3 5 -15.5 8.5t-29.5 5.5zM218 206q-9 5 -22.5 2.5t-24.5 -10t-16.5 -19.5t1.5 -25q9 -15 21 -16.5t27 1.5q-6 4 -7.5 14.5t0.5 21.5t7.5 20t13.5 11zM148 44q17 -8 30.5 -9.5t18.5 -1.5q3 5 4 12t3 13q-16 -3 -31 -2t-27 3t-20 4.5t-11 2.5
q8 -8 16 -12.5t17 -9.5zM211 143q3 -5 6.5 1t5.5 16.5t4 22.5t2 19q-8 0 -13.5 -7.5t-8 -18t-2 -20.5t5.5 -13z" />
    <glyph glyph-name="afii10078" unicode="&#x43c;" horiz-adv-x="406" 
d="M390 337q2 -2 2 -4l5 -350q-1 -2 -9 -11t-27 -11q-8 -1 -21 1t-26 4.5t-22.5 5t-10.5 2.5q-3 0 -3 3q0 5 -1 28t-2 53.5t-3 64t-3 60.5l-35 -22q-1 -1 -4 -1l-49 13q-1 0 -3 2q-2 3 -7.5 14.5t-10.5 25.5l-54 -195q0 -3 -5 -3l-45 15q-6 2 -14 5.5t-25 12.5l69 339
q5 1 8 1h7q1 0 11.5 -0.5t24.5 -3.5t29 -8.5t24 -14.5q4 -3 9 -11t10 -17.5t9.5 -19t7.5 -15.5q14 14 32.5 30.5t31.5 21.5q6 2 13 4q11 3 32 1q5 0 7 -1zM342 348l2 -352l45 -12l-5 347zM154 227q-3 9 -6.5 16l-5.5 11q-2 5 -6 14.5t-7 9.5q-3 -1 -10 -21q-1 -2 -5 -16.5
t-9.5 -36t-12.5 -46.5t-13.5 -48.5t-12.5 -42.5t-10 -28h1t5 -1.5t13 -4t25 -7.5zM165 324l7 -14q4 -7 9.5 -17.5t13.5 -23.5l25 25q-3 7 -8 16.5t-9.5 19t-9.5 17t-8 10.5q-10 10 -27 15t-31 7q3 -3 8 -9t10.5 -14t10.5 -16.5t9 -15.5zM269 192q-2 20 -2.5 32.5t-2.5 11.5
t-11 -8.5t-21 -16.5l-24 -18t-20 -14l42 -11zM360 -32q14 3 23 10l-40 10q-5 -7 -14 -9.5t-19 -3.5q14 -3 28 -5.5t22 -1.5z" />
    <glyph glyph-name="numbersign" unicode="#" horiz-adv-x="537" 
d="M509 351q0 -5 -1 -12t-2 -12q-1 -1 -4 -3l-86 -6q-4 -17 -7.5 -35t-5.5 -35l88 -29q8 -2 11.5 -13.5t3.5 -18.5q0 -26 -20 -33q-18 -5 -46 -4.5t-46 2.5l-21 -99q-11 -11 -33.5 -14.5t-36.5 -3.5q-17 0 -30 2.5t-22 10.5q-10 9 -16 25q0 3 2.5 15t6 26t6.5 26.5t4 15.5
h-43q-4 -20 -8.5 -45.5t-15.5 -45.5q0 -2 -2 -4q-8 -10 -16 -15q-2 -2 -3 -1.5t-3 0.5l-58 10q-5 3 -6 4q-4 7 -5 20.5t-1 28.5q0 16 1 30.5t1 23.5l-46 18q-5 5 -4.5 21.5t8.5 28.5l50 3l7 74l-53 13q-7 2 -8 9.5t1 16.5t5.5 18t6.5 13q2 2 10 2.5t17 0.5t17.5 -0.5
t11.5 -0.5l7 90q10 9 20 12t21 3q17 0 29 -3t22.5 -8.5t21 -13.5t24.5 -18q2 -2 2 -5l-11 -57h51q1 4 4 17.5t6.5 28.5t6.5 27.5t5 14.5q12 6 25 6q23 0 43 -10t37 -25l-9 -59h31l53 -22q2 -1 2 -6zM340 173l-16 -98l42 -15l18 94zM162 174q-5 -26 -10 -49.5t-10 -45.5
l38 -9q11 18 15.5 44t6.5 44zM239 309l-15 -70l48 2l17 71zM368 335l-17 -91q21 3 42 3l13 73zM193 325l-20 -90l42 4l15 73zM497 191q0 9 -8 17q-7 3 -16.5 6.5t-19.5 6.5t-18.5 5.5t-12.5 4.5q2 -2 4.5 -8t0.5 -19q-1 -6 -2 -9.5t-2 -7.5l64 -20q5 2 7.5 9t2.5 15z
M221 462l-17 -83h40l12 57zM388 456l-13 -77h39l9 57zM416 180q-17 -2 -31.5 -3t-29.5 -1q11 -5 21 -9t20 -6q16 -2 35 -2.5t45 1.5zM322 68q-12 -12 -29 -15t-34 -2q11 -6 23 -7.5t24 -1.5q31 0 53 11zM445 346l-66 -6l33 -13l68 4zM260 178h-85l35 -13h46zM294 335
q-21 -2 -42 -3.5t-41 -2.5l30 -11l49 4zM452 370l-1 -17l47 -18l2 14zM164 53q7 3 11 9l-36 10q-5 -5 -10 -8t-10 -5zM99 180h-24l24 -9v9zM112 324q-5 0 -11 -1t-11 -1l22 -6v8z" />
    </font>
</defs>
</svg>
